<?xml version="1.0" encoding="UTF-8"?>
<svg xmlns="http://www.w3.org/2000/svg" xmlns:xlink="http://www.w3.org/1999/xlink" width="32px" height="32px" viewBox="0 0 32 32" version="1.1">
<g id="surface1">
<path style=" stroke:none;fill-rule:evenodd;fill:rgb(92.54902%,58.823529%,85.098039%);fill-opacity:1;" d="M -0.0664062 -0.0664062 C 1.132812 -0.0664062 2.332031 -0.0664062 3.535156 -0.0664062 C 3.71875 0.320312 3.984375 0.652344 4.332031 0.933594 C 5.105469 1.375 5.816406 1.886719 6.464844 2.464844 C 6.550781 2.695312 6.683594 2.898438 6.867188 3.066406 C 7.753906 3.539062 8.597656 4.074219 9.398438 4.667969 C 10.25 5.363281 10.648438 6.273438 10.601562 7.398438 C 10.554688 7.398438 10.511719 7.398438 10.464844 7.398438 C 10.019531 7.378906 9.574219 7.398438 9.132812 7.464844 C 8.832031 7.777344 8.523438 8.089844 8.199219 8.398438 C 7.976562 8.488281 7.753906 8.488281 7.535156 8.398438 C 7.300781 7.882812 6.902344 7.640625 6.332031 7.667969 C 6.289062 7.460938 6.15625 7.371094 5.933594 7.398438 C 5.835938 7.238281 5.789062 7.0625 5.800781 6.867188 C 5.058594 6.546875 4.5 6.011719 4.132812 5.265625 C 4.078125 5.328125 4.011719 5.371094 3.933594 5.398438 C 3.273438 5.207031 2.742188 4.832031 2.332031 4.265625 C 2.117188 4.199219 1.894531 4.179688 1.667969 4.199219 C 1.695312 3.980469 1.652344 3.78125 1.535156 3.601562 C 1.019531 3.332031 0.484375 3.132812 -0.0664062 3 C -0.0664062 1.976562 -0.0664062 0.957031 -0.0664062 -0.0664062 Z M -0.0664062 -0.0664062 "/>
<path style=" stroke:none;fill-rule:evenodd;fill:rgb(83.137255%,92.54902%,92.54902%);fill-opacity:1;" d="M 3.800781 -0.0664062 C 13.179688 -0.0664062 22.554688 -0.0664062 31.933594 -0.0664062 C 31.933594 8.644531 31.933594 17.355469 31.933594 26.066406 C 31.480469 25.992188 31.078125 25.8125 30.734375 25.535156 C 30.316406 25.039062 29.828125 24.636719 29.265625 24.332031 C 30.050781 23.066406 30.316406 21.6875 30.066406 20.199219 C 30.074219 19.945312 30.03125 19.703125 29.933594 19.464844 C 30.875 18.824219 31.453125 17.933594 31.667969 16.800781 C 31.5 14.390625 30.679688 12.234375 29.199219 10.332031 C 27.253906 8.125 24.921875 6.460938 22.199219 5.332031 C 19.992188 4.289062 18.28125 4.800781 17.066406 6.867188 C 16.875 6.546875 16.585938 6.347656 16.199219 6.265625 C 15.230469 6.066406 14.253906 6.019531 13.265625 6.132812 C 12.574219 6.457031 11.863281 6.746094 11.132812 7 C 11.171875 6.164062 11.039062 5.367188 10.734375 4.601562 C 10.421875 4.601562 10.15625 4.488281 9.933594 4.265625 C 9.546875 3.515625 8.925781 3.183594 8.066406 3.265625 C 7.738281 3.183594 7.515625 2.984375 7.398438 2.667969 C 7.179688 2.585938 6.957031 2.519531 6.734375 2.464844 C 6.574219 2.183594 6.328125 2.003906 6 1.933594 C 5.808594 1.402344 5.429688 1.066406 4.867188 0.933594 C 4.753906 0.796875 4.710938 0.644531 4.734375 0.464844 C 4.238281 0.574219 3.925781 0.398438 3.800781 -0.0664062 Z M 3.800781 -0.0664062 "/>
<path style=" stroke:none;fill-rule:evenodd;fill:rgb(89.803922%,84.313725%,93.72549%);fill-opacity:1;" d="M 3.535156 -0.0664062 C 3.621094 -0.0664062 3.710938 -0.0664062 3.800781 -0.0664062 C 3.925781 0.398438 4.238281 0.574219 4.734375 0.464844 C 4.710938 0.644531 4.753906 0.796875 4.867188 0.933594 C 5.429688 1.066406 5.808594 1.402344 6 1.933594 C 6.328125 2.003906 6.574219 2.183594 6.734375 2.464844 C 6.644531 2.464844 6.554688 2.464844 6.464844 2.464844 C 5.816406 1.886719 5.105469 1.375 4.332031 0.933594 C 3.984375 0.652344 3.71875 0.320312 3.535156 -0.0664062 Z M 3.535156 -0.0664062 "/>
<path style=" stroke:none;fill-rule:evenodd;fill:rgb(88.235294%,88.627451%,94.901961%);fill-opacity:1;" d="M 6.734375 2.464844 C 6.957031 2.519531 7.179688 2.585938 7.398438 2.667969 C 7.515625 2.984375 7.738281 3.183594 8.066406 3.265625 C 8.925781 3.183594 9.546875 3.515625 9.933594 4.265625 C 10.15625 4.488281 10.421875 4.601562 10.734375 4.601562 C 11.039062 5.367188 11.171875 6.164062 11.132812 7 C 11.132812 7.089844 11.089844 7.132812 11 7.132812 C 10.894531 6.574219 10.785156 5.996094 10.667969 5.398438 C 9.492188 4.585938 8.316406 3.761719 7.132812 2.933594 C 6.972656 2.792969 6.839844 2.640625 6.734375 2.464844 Z M 6.734375 2.464844 "/>
<path style=" stroke:none;fill-rule:evenodd;fill:rgb(83.921569%,64.705882%,87.058824%);fill-opacity:1;" d="M -0.0664062 3.132812 C -0.0664062 3.089844 -0.0664062 3.042969 -0.0664062 3 C 0.484375 3.132812 1.019531 3.332031 1.535156 3.601562 C 1.652344 3.78125 1.695312 3.980469 1.667969 4.199219 C 1.894531 4.179688 2.117188 4.199219 2.332031 4.265625 C 2.742188 4.832031 3.273438 5.207031 3.933594 5.398438 C 4.011719 5.371094 4.078125 5.328125 4.132812 5.265625 C 4.5 6.011719 5.058594 6.546875 5.800781 6.867188 C 5.789062 7.0625 5.835938 7.238281 5.933594 7.398438 C 5.539062 7.066406 5.09375 6.800781 4.601562 6.601562 C 4.113281 6.347656 3.714844 5.96875 3.398438 5.464844 C 2.265625 4.851562 1.242188 4.097656 0.332031 3.199219 C 0.207031 3.136719 0.0742188 3.113281 -0.0664062 3.132812 Z M -0.0664062 3.132812 "/>
<path style=" stroke:none;fill-rule:evenodd;fill:rgb(60.392157%,85.490196%,94.509804%);fill-opacity:1;" d="M -0.0664062 3.132812 C 0.0742188 3.113281 0.207031 3.136719 0.332031 3.199219 C 1.242188 4.097656 2.265625 4.851562 3.398438 5.464844 C 3.714844 5.96875 4.113281 6.347656 4.601562 6.601562 C 4.5625 6.839844 4.605469 7.0625 4.734375 7.265625 C 4.976562 7.261719 5.242188 7.304688 5.535156 7.398438 C 5.5 7.664062 5.546875 7.90625 5.667969 8.132812 C 6.070312 8.226562 6.449219 8.382812 6.800781 8.601562 C 6.960938 9.042969 6.851562 9.378906 6.464844 9.601562 C 6.566406 9.6875 6.613281 9.800781 6.601562 9.933594 C 4.96875 11.34375 3.632812 12.988281 2.601562 14.867188 C 2.621094 14.726562 2.597656 14.59375 2.535156 14.464844 C 2.234375 14.703125 1.902344 14.769531 1.535156 14.667969 C 1.144531 14.449219 0.789062 14.179688 0.464844 13.867188 C 0.292969 13.800781 0.117188 13.777344 -0.0664062 13.800781 C -0.0664062 10.246094 -0.0664062 6.6875 -0.0664062 3.132812 Z M -0.0664062 3.132812 "/>
<path style=" stroke:none;fill-rule:evenodd;fill:rgb(85.490196%,64.313725%,82.352941%);fill-opacity:1;" d="M 6.464844 2.464844 C 6.554688 2.464844 6.644531 2.464844 6.734375 2.464844 C 6.839844 2.640625 6.972656 2.792969 7.132812 2.933594 C 8.316406 3.761719 9.492188 4.585938 10.667969 5.398438 C 10.785156 5.996094 10.894531 6.574219 11 7.132812 C 10.894531 7.253906 10.761719 7.34375 10.601562 7.398438 C 10.648438 6.273438 10.25 5.363281 9.398438 4.667969 C 8.597656 4.074219 7.753906 3.539062 6.867188 3.066406 C 6.683594 2.898438 6.550781 2.695312 6.464844 2.464844 Z M 6.464844 2.464844 "/>
<path style=" stroke:none;fill-rule:evenodd;fill:rgb(5.098039%,5.490196%,5.882353%);fill-opacity:1;" d="M 30.066406 20.199219 C 29.878906 19.789062 29.742188 19.34375 29.667969 18.867188 C 29.730469 18.734375 29.820312 18.625 29.933594 18.535156 C 29.769531 18.503906 29.636719 18.4375 29.535156 18.332031 C 29.785156 18.359375 29.984375 18.273438 30.132812 18.066406 C 30.808594 17.234375 30.921875 16.34375 30.464844 15.398438 C 30.464844 15.355469 30.464844 15.3125 30.464844 15.265625 C 30.25 13.972656 29.78125 12.773438 29.066406 11.667969 C 27.765625 10.035156 26.234375 8.699219 24.464844 7.667969 C 23.390625 6.839844 22.191406 6.261719 20.867188 5.933594 C 19.722656 5.511719 18.832031 5.824219 18.199219 6.867188 C 18.066406 7.039062 17.933594 7.21875 17.800781 7.398438 C 17.476562 7.421875 17.191406 7.332031 16.933594 7.132812 C 16.800781 7.222656 16.667969 7.3125 16.535156 7.398438 C 15.5625 7.035156 14.5625 6.921875 13.535156 7.066406 C 12.601562 7.425781 11.714844 7.851562 10.867188 8.332031 C 7.351562 9.980469 4.773438 12.558594 3.132812 16.066406 C 3.34375 16.351562 3.613281 16.574219 3.933594 16.734375 C 4.007812 16.050781 4.230469 15.429688 4.601562 14.867188 C 4.71875 14.785156 4.851562 14.742188 5 14.734375 C 5.46875 15.019531 5.515625 15.375 5.132812 15.800781 C 4.957031 17.113281 4.957031 18.445312 5.132812 19.800781 C 5.894531 19.597656 6.625 19.332031 7.332031 19 C 7.398438 18.289062 7.421875 17.578125 7.398438 16.867188 C 7.445312 15.550781 7.710938 14.285156 8.199219 13.066406 C 8.285156 12.890625 8.417969 12.78125 8.601562 12.734375 C 8.964844 12.675781 9.144531 12.832031 9.132812 13.199219 C 8.90625 13.589844 8.773438 14.011719 8.734375 14.464844 C 8.632812 14.570312 8.5625 14.703125 8.535156 14.867188 C 8.246094 16.652344 8.265625 18.429688 8.601562 20.199219 C 8.320312 20.070312 8.054688 20.113281 7.800781 20.332031 C 7.671875 20.160156 7.492188 20.070312 7.265625 20.066406 C 7.0625 20.039062 6.882812 19.949219 6.734375 19.800781 C 6.609375 20.464844 6.496094 21.128906 6.398438 21.800781 C 6.359375 21.90625 6.292969 21.996094 6.199219 22.066406 C 5.871094 21.875 5.515625 21.785156 5.132812 21.800781 C 4.46875 21.886719 3.800781 21.933594 3.132812 21.933594 C 3.132812 22.066406 3.132812 22.199219 3.132812 22.332031 C 2.617188 22.355469 2.128906 22.488281 1.667969 22.734375 C 1.464844 22.914062 1.378906 23.132812 1.398438 23.398438 C 0.988281 23.355469 0.679688 23.492188 0.464844 23.800781 C 0.320312 23.945312 0.140625 24.035156 -0.0664062 24.066406 C -0.0664062 23.753906 -0.0664062 23.445312 -0.0664062 23.132812 C 1.695312 21.894531 3.652344 21.273438 5.800781 21.265625 C 5.800781 21.042969 5.800781 20.824219 5.800781 20.601562 C 4.761719 21.160156 4.183594 20.851562 4.066406 19.667969 C 4.066406 18.957031 4.066406 18.246094 4.066406 17.535156 C 3.890625 17.535156 3.710938 17.535156 3.535156 17.535156 C 2.929688 17.21875 2.488281 16.753906 2.199219 16.132812 C 2.292969 15.695312 2.425781 15.273438 2.601562 14.867188 C 3.632812 12.988281 4.96875 11.34375 6.601562 9.933594 C 7.042969 9.667969 7.441406 9.359375 7.800781 9 C 8.660156 8.40625 9.546875 7.871094 10.464844 7.398438 C 10.511719 7.398438 10.554688 7.398438 10.601562 7.398438 C 10.761719 7.34375 10.894531 7.253906 11 7.132812 C 11.089844 7.132812 11.132812 7.089844 11.132812 7 C 11.863281 6.746094 12.574219 6.457031 13.265625 6.132812 C 14.253906 6.019531 15.230469 6.066406 16.199219 6.265625 C 16.585938 6.347656 16.875 6.546875 17.066406 6.867188 C 18.28125 4.800781 19.992188 4.289062 22.199219 5.332031 C 24.921875 6.460938 27.253906 8.125 29.199219 10.332031 C 30.679688 12.234375 31.5 14.390625 31.667969 16.800781 C 31.453125 17.933594 30.875 18.824219 29.933594 19.464844 C 30.03125 19.703125 30.074219 19.945312 30.066406 20.199219 Z M 30.066406 20.199219 "/>
<path style=" stroke:none;fill-rule:evenodd;fill:rgb(50.980392%,50.980392%,51.372549%);fill-opacity:1;" d="M 20.867188 5.933594 C 20.464844 5.910156 20.0625 5.933594 19.667969 6 C 19.132812 6.226562 18.644531 6.515625 18.199219 6.867188 C 18.832031 5.824219 19.722656 5.511719 20.867188 5.933594 Z M 20.867188 5.933594 "/>
<path style=" stroke:none;fill-rule:evenodd;fill:rgb(69.411765%,69.803922%,69.019608%);fill-opacity:1;" d="M 17.800781 7.398438 C 17.496094 7.625 17.140625 7.800781 16.734375 7.933594 C 16.042969 7.671875 15.332031 7.605469 14.601562 7.734375 C 14.402344 7.828125 14.316406 7.984375 14.332031 8.199219 C 14.515625 8.179688 14.695312 8.203125 14.867188 8.265625 C 14.605469 8.332031 14.335938 8.355469 14.066406 8.332031 C 14.105469 8.589844 14.058594 8.8125 13.933594 9 C 13.933594 8.777344 13.933594 8.554688 13.933594 8.332031 C 12.738281 8.429688 11.648438 8.828125 10.667969 9.535156 C 10.476562 9.621094 10.273438 9.664062 10.066406 9.667969 C 10.269531 9.476562 10.226562 9.386719 9.933594 9.398438 C 10.121094 9.128906 10.386719 8.996094 10.734375 9 C 10.714844 8.761719 10.761719 8.539062 10.867188 8.332031 C 11.714844 7.851562 12.601562 7.425781 13.535156 7.066406 C 14.5625 6.921875 15.5625 7.035156 16.535156 7.398438 C 16.667969 7.3125 16.800781 7.222656 16.933594 7.132812 C 17.191406 7.332031 17.476562 7.421875 17.800781 7.398438 Z M 17.800781 7.398438 "/>
<path style=" stroke:none;fill-rule:evenodd;fill:rgb(65.490196%,81.176471%,92.156863%);fill-opacity:1;" d="M 4.601562 6.601562 C 5.09375 6.800781 5.539062 7.066406 5.933594 7.398438 C 6.15625 7.371094 6.289062 7.460938 6.332031 7.667969 C 6.851562 8.082031 7.34375 8.527344 7.800781 9 C 7.441406 9.359375 7.042969 9.667969 6.601562 9.933594 C 6.613281 9.800781 6.566406 9.6875 6.464844 9.601562 C 6.851562 9.378906 6.960938 9.042969 6.800781 8.601562 C 6.449219 8.382812 6.070312 8.226562 5.667969 8.132812 C 5.546875 7.90625 5.5 7.664062 5.535156 7.398438 C 5.242188 7.304688 4.976562 7.261719 4.734375 7.265625 C 4.605469 7.0625 4.5625 6.839844 4.601562 6.601562 Z M 4.601562 6.601562 "/>
<path style=" stroke:none;fill-rule:evenodd;fill:rgb(82.745098%,82.745098%,82.745098%);fill-opacity:1;" d="M 28.199219 15.800781 C 27.710938 14.625 27.15625 13.46875 26.535156 12.332031 C 26.097656 11.765625 25.628906 11.230469 25.132812 10.734375 C 24.945312 10.605469 24.722656 10.5625 24.464844 10.601562 C 24.488281 10.78125 24.464844 10.960938 24.398438 11.132812 C 23.921875 10.746094 23.609375 10.257812 23.464844 9.667969 C 22.867188 9.339844 22.265625 9.007812 21.667969 8.667969 C 21.554688 8.53125 21.511719 8.375 21.535156 8.199219 C 20.84375 7.964844 20.128906 7.898438 19.398438 8 C 18.980469 8.261719 18.757812 8.640625 18.734375 9.132812 C 18.609375 9.328125 18.429688 9.464844 18.199219 9.535156 C 18.074219 9.390625 18.03125 9.214844 18.066406 9 C 18.066406 8.6875 17.910156 8.507812 17.601562 8.464844 C 17.308594 8.46875 17.109375 8.601562 17 8.867188 C 16.429688 8.847656 15.988281 9.070312 15.667969 9.535156 C 15.480469 9.996094 15.304688 10.464844 15.132812 10.933594 C 15.355469 11.355469 15.222656 11.558594 14.734375 11.535156 C 14.558594 11.511719 14.402344 11.554688 14.265625 11.667969 C 14.082031 12.652344 13.878906 13.628906 13.667969 14.601562 C 13.523438 15.246094 13.390625 15.914062 13.265625 16.601562 C 13.09375 16.851562 12.894531 17.074219 12.667969 17.265625 C 12.570312 17.148438 12.460938 17.058594 12.332031 17 C 12.332031 16.910156 12.289062 16.867188 12.199219 16.867188 C 12.0625 16.726562 11.972656 16.546875 11.933594 16.332031 C 12.035156 15.523438 12.28125 14.769531 12.667969 14.066406 C 12.710938 13.800781 12.753906 13.535156 12.800781 13.265625 C 13.363281 12.289062 13.875 11.289062 14.332031 10.265625 C 14.300781 10.089844 14.210938 9.957031 14.066406 9.867188 C 13.335938 9.652344 12.867188 9.894531 12.667969 10.601562 C 12.492188 10.679688 12.335938 10.765625 12.199219 10.867188 C 11.980469 10.953125 11.804688 11.085938 11.667969 11.265625 C 11.664062 10.988281 11.753906 10.742188 11.933594 10.535156 C 11.765625 10.320312 11.585938 10.34375 11.398438 10.601562 C 10.9375 11.300781 10.582031 12.054688 10.332031 12.867188 C 10.273438 12.972656 10.183594 13.015625 10.066406 13 C 9.679688 12.398438 9.1875 12.308594 8.601562 12.734375 C 8.417969 12.78125 8.285156 12.890625 8.199219 13.066406 C 7.710938 14.285156 7.445312 15.550781 7.398438 16.867188 C 7.324219 17.398438 7.191406 17.933594 7 18.464844 C 6.777344 18.644531 6.554688 18.644531 6.332031 18.464844 C 6.167969 17.347656 6.214844 16.238281 6.464844 15.132812 C 6.632812 14.394531 6.921875 13.683594 7.332031 13 C 7.480469 12.796875 7.679688 12.707031 7.933594 12.734375 C 7.886719 12.46875 7.976562 12.292969 8.199219 12.199219 C 8.4375 12.238281 8.660156 12.195312 8.867188 12.066406 C 10.226562 10.484375 11.914062 9.460938 13.933594 9 C 14.058594 8.8125 14.105469 8.589844 14.066406 8.332031 C 14.335938 8.355469 14.605469 8.332031 14.867188 8.265625 C 14.695312 8.203125 14.515625 8.179688 14.332031 8.199219 C 14.316406 7.984375 14.402344 7.828125 14.601562 7.734375 C 15.332031 7.605469 16.042969 7.671875 16.734375 7.933594 C 17.140625 7.800781 17.496094 7.625 17.800781 7.398438 C 18.398438 7.335938 18.929688 7.113281 19.398438 6.734375 C 20.28125 6.75 21.167969 6.773438 22.066406 6.800781 C 22.523438 6.78125 22.789062 6.980469 22.867188 7.398438 C 22.515625 7.296875 22.160156 7.277344 21.800781 7.332031 C 25.480469 8.878906 27.96875 11.546875 29.265625 15.332031 C 29.164062 16.089844 28.808594 16.246094 28.199219 15.800781 Z M 28.199219 15.800781 "/>
<path style=" stroke:none;fill-rule:evenodd;fill:rgb(69.803922%,69.803922%,69.803922%);fill-opacity:1;" d="M 25.132812 10.734375 C 24.636719 10.769531 24.480469 11.039062 24.667969 11.535156 C 25.167969 12.058594 25.589844 12.636719 25.933594 13.265625 C 26.175781 13.957031 26.351562 14.667969 26.464844 15.398438 C 26.332031 15.398438 26.199219 15.398438 26.066406 15.398438 C 25.730469 15.460938 25.464844 15.371094 25.265625 15.132812 C 25.417969 14.714844 25.441406 14.269531 25.332031 13.800781 C 25.082031 13.644531 24.972656 13.425781 25 13.132812 C 24.867188 13.132812 24.734375 13.132812 24.601562 13.132812 C 24.546875 12.507812 24.300781 11.972656 23.867188 11.535156 C 23.800781 11.40625 23.78125 11.273438 23.800781 11.132812 C 23.394531 10.816406 22.949219 10.550781 22.464844 10.332031 C 21.832031 9.855469 21.207031 9.34375 20.601562 8.800781 C 20.363281 8.679688 20.117188 8.566406 19.867188 8.464844 C 19.4375 8.601562 19.0625 8.824219 18.734375 9.132812 C 18.757812 8.640625 18.980469 8.261719 19.398438 8 C 20.128906 7.898438 20.84375 7.964844 21.535156 8.199219 C 21.511719 8.375 21.554688 8.53125 21.667969 8.667969 C 22.265625 9.007812 22.867188 9.339844 23.464844 9.667969 C 23.609375 10.257812 23.921875 10.746094 24.398438 11.132812 C 24.464844 10.960938 24.488281 10.78125 24.464844 10.601562 C 24.722656 10.5625 24.945312 10.605469 25.132812 10.734375 Z M 25.132812 10.734375 "/>
<path style=" stroke:none;fill-rule:evenodd;fill:rgb(81.960784%,62.352941%,80.392157%);fill-opacity:1;" d="M 10.464844 7.398438 C 9.546875 7.871094 8.660156 8.40625 7.800781 9 C 7.34375 8.527344 6.851562 8.082031 6.332031 7.667969 C 6.902344 7.640625 7.300781 7.882812 7.535156 8.398438 C 7.753906 8.488281 7.976562 8.488281 8.199219 8.398438 C 8.523438 8.089844 8.832031 7.777344 9.132812 7.464844 C 9.574219 7.398438 10.019531 7.378906 10.464844 7.398438 Z M 10.464844 7.398438 "/>
<path style=" stroke:none;fill-rule:evenodd;fill:rgb(53.72549%,53.72549%,54.117647%);fill-opacity:1;" d="M 24.464844 7.667969 C 26.234375 8.699219 27.765625 10.035156 29.066406 11.667969 C 29.78125 12.773438 30.25 13.972656 30.464844 15.265625 C 30.265625 15.265625 30.109375 15.175781 30 15 C 29.4375 13.640625 28.839844 12.304688 28.199219 11 C 28.058594 11.019531 27.925781 10.996094 27.800781 10.933594 C 27.152344 9.972656 26.304688 9.261719 25.265625 8.800781 C 24.945312 8.441406 24.679688 8.0625 24.464844 7.667969 Z M 24.464844 7.667969 "/>
<path style=" stroke:none;fill-rule:evenodd;fill:rgb(69.803922%,69.803922%,69.803922%);fill-opacity:1;" d="M 17 8.867188 C 16.367188 9.773438 15.988281 10.796875 15.867188 11.933594 C 15.636719 13.613281 15.523438 15.304688 15.535156 17 C 14.972656 16.898438 14.484375 16.652344 14.066406 16.265625 C 13.703125 16.140625 13.523438 16.273438 13.535156 16.667969 C 13.523438 16.894531 13.613281 17.074219 13.800781 17.199219 C 13.375 17.75 12.839844 17.992188 12.199219 17.933594 C 12.316406 17.632812 12.359375 17.324219 12.332031 17 C 12.460938 17.058594 12.570312 17.148438 12.667969 17.265625 C 12.894531 17.074219 13.09375 16.851562 13.265625 16.601562 C 13.390625 15.914062 13.523438 15.246094 13.667969 14.601562 C 13.632812 14.90625 13.675781 15.195312 13.800781 15.464844 C 14.074219 15.53125 14.25 15.417969 14.332031 15.132812 C 14.554688 14.089844 14.777344 13.046875 15 12 C 14.953125 11.808594 14.863281 11.652344 14.734375 11.535156 C 15.222656 11.558594 15.355469 11.355469 15.132812 10.933594 C 15.304688 10.464844 15.480469 9.996094 15.667969 9.535156 C 15.988281 9.070312 16.429688 8.847656 17 8.867188 Z M 17 8.867188 "/>
<path style=" stroke:none;fill-rule:evenodd;fill:rgb(56.470588%,56.078431%,56.078431%);fill-opacity:1;" d="M 13.933594 9 C 11.914062 9.460938 10.226562 10.484375 8.867188 12.066406 C 8.660156 12.195312 8.4375 12.238281 8.199219 12.199219 C 8.222656 11.375 8.625 10.820312 9.398438 10.535156 C 9.5 10.445312 9.542969 10.332031 9.535156 10.199219 C 9.671875 9.972656 9.847656 9.796875 10.066406 9.667969 C 10.273438 9.664062 10.476562 9.621094 10.667969 9.535156 C 11.648438 8.828125 12.738281 8.429688 13.933594 8.332031 C 13.933594 8.554688 13.933594 8.777344 13.933594 9 Z M 13.933594 9 "/>
<path style=" stroke:none;fill-rule:evenodd;fill:rgb(5.490196%,4.705882%,4.313725%);fill-opacity:1;" d="M 18.066406 9 C 17.683594 9.453125 17.371094 9.964844 17.132812 10.535156 C 17.21875 10.761719 17.351562 10.785156 17.535156 10.601562 C 17.707031 10.207031 17.929688 9.851562 18.199219 9.535156 C 18.429688 9.464844 18.609375 9.328125 18.734375 9.132812 C 19.0625 8.824219 19.4375 8.601562 19.867188 8.464844 C 20.117188 8.566406 20.363281 8.679688 20.601562 8.800781 C 21.207031 9.34375 21.832031 9.855469 22.464844 10.332031 C 23.714844 11.675781 24.382812 13.273438 24.464844 15.132812 C 24.6875 15.132812 24.910156 15.132812 25.132812 15.132812 C 25.175781 15.132812 25.222656 15.132812 25.265625 15.132812 C 25.464844 15.371094 25.730469 15.460938 26.066406 15.398438 C 26.386719 15.589844 26.742188 15.65625 27.132812 15.601562 C 26.78125 14.785156 26.382812 14.007812 25.933594 13.265625 C 25.589844 12.636719 25.167969 12.058594 24.667969 11.535156 C 24.480469 11.039062 24.636719 10.769531 25.132812 10.734375 C 25.628906 11.230469 26.097656 11.765625 26.535156 12.332031 C 27.15625 13.46875 27.710938 14.625 28.199219 15.800781 C 28.40625 16.433594 28.648438 17.054688 28.933594 17.667969 C 29.070312 17.828125 29.226562 17.960938 29.398438 18.066406 C 29.445312 18.15625 29.488281 18.246094 29.535156 18.332031 C 29.636719 18.4375 29.769531 18.503906 29.933594 18.535156 C 29.820312 18.625 29.730469 18.734375 29.667969 18.867188 C 29.742188 19.34375 29.878906 19.789062 30.066406 20.199219 C 30.316406 21.6875 30.050781 23.066406 29.265625 24.332031 C 28.960938 24.683594 28.652344 25.039062 28.332031 25.398438 C 28.90625 25.636719 29.460938 25.902344 30 26.199219 C 30.082031 26.898438 29.882812 27.496094 29.398438 28 C 29.617188 28.761719 29.570312 29.496094 29.265625 30.199219 C 29.683594 30.722656 29.996094 31.300781 30.199219 31.933594 C 29.890625 31.933594 29.578125 31.933594 29.265625 31.933594 C 29.097656 31.539062 28.921875 31.136719 28.734375 30.734375 C 28.644531 30.6875 28.554688 30.644531 28.464844 30.601562 C 28.007812 30.761719 27.5625 30.964844 27.132812 31.199219 C 26.871094 31.394531 26.695312 31.636719 26.601562 31.933594 C 26.289062 31.933594 25.976562 31.933594 25.667969 31.933594 C 25.726562 31.304688 26.035156 30.839844 26.601562 30.535156 C 27.332031 30.011719 28.132812 29.679688 29 29.535156 C 29 29.175781 29 28.824219 29 28.464844 C 28.617188 28.425781 28.257812 28.46875 27.933594 28.601562 C 25.992188 28.941406 24.792969 30.050781 24.332031 31.933594 C 24.109375 31.933594 23.890625 31.933594 23.667969 31.933594 C 23.882812 31.515625 24.015625 31.074219 24.066406 30.601562 C 24.242188 30.515625 24.375 30.378906 24.464844 30.199219 C 24.03125 30.109375 23.585938 30.109375 23.132812 30.199219 C 20.054688 30.296875 16.988281 30.164062 13.933594 29.800781 C 13.710938 29.824219 13.488281 29.84375 13.265625 29.867188 C 13.285156 30.027344 13.332031 30.183594 13.398438 30.332031 C 13.367188 30.503906 13.414062 30.640625 13.535156 30.734375 C 13.621094 31.128906 13.664062 31.527344 13.667969 31.933594 C 13.488281 31.933594 13.3125 31.933594 13.132812 31.933594 C 13.132812 31.753906 13.132812 31.578125 13.132812 31.398438 C 13.144531 31.046875 13.054688 30.734375 12.867188 30.464844 C 12.148438 29.304688 11.082031 28.683594 9.667969 28.601562 C 8.933594 28.445312 8.179688 28.425781 7.398438 28.535156 C 7.285156 28.671875 7.148438 28.785156 7 28.867188 C 7.140625 27.652344 7.296875 26.40625 7.464844 25.132812 C 8.1875 24.777344 8.144531 24.421875 7.332031 24.066406 C 6.5625 24.171875 5.785156 24.261719 5 24.332031 C 4.867188 24.289062 4.734375 24.246094 4.601562 24.199219 C 5.238281 23.921875 5.90625 23.742188 6.601562 23.667969 C 6.566406 23.085938 6.542969 22.507812 6.535156 21.933594 C 6.800781 22.433594 6.910156 22.964844 6.867188 23.535156 C 7.007812 23.511719 7.140625 23.535156 7.265625 23.601562 C 7.355469 23.800781 7.488281 23.957031 7.667969 24.066406 C 7.894531 24.339844 8.160156 24.558594 8.464844 24.734375 C 8.996094 25.597656 9.707031 25.800781 10.601562 25.332031 C 15.113281 24.703125 19.554688 25.011719 23.933594 26.265625 C 24.597656 26.332031 25.265625 26.355469 25.933594 26.332031 C 25.910156 26.054688 25.953125 25.789062 26.066406 25.535156 C 26.523438 25.378906 26.96875 25.203125 27.398438 25 C 27.535156 24.957031 27.621094 24.867188 27.667969 24.734375 C 28.160156 24.507812 28.515625 24.152344 28.734375 23.667969 C 28.910156 23.222656 29.089844 22.777344 29.265625 22.332031 C 29.367188 22.230469 29.4375 22.097656 29.464844 21.933594 C 29.675781 20.847656 29.476562 19.871094 28.867188 19 C 28.605469 18.734375 28.335938 18.46875 28.066406 18.199219 C 27.433594 19.144531 26.632812 19.902344 25.667969 20.464844 C 25.265625 20.53125 24.863281 20.621094 24.464844 20.734375 C 24.648438 20.871094 24.734375 21.046875 24.734375 21.265625 C 25.042969 22.058594 24.886719 22.726562 24.265625 23.265625 C 24.234375 22.976562 24.101562 22.757812 23.867188 22.601562 C 23.566406 22.792969 23.230469 22.90625 22.867188 22.933594 C 22.765625 23.023438 22.722656 23.132812 22.734375 23.265625 C 21.664062 23.40625 20.597656 23.40625 19.535156 23.265625 C 19.601562 23.175781 19.691406 23.109375 19.800781 23.066406 C 20.960938 23.085938 22.09375 22.933594 23.199219 22.601562 C 23.464844 22.472656 23.664062 22.292969 23.800781 22.066406 C 24.058594 21.835938 24.101562 21.566406 23.933594 21.265625 C 23.683594 21.128906 23.507812 20.929688 23.398438 20.667969 C 23.078125 20.566406 22.769531 20.457031 22.464844 20.332031 C 22.421875 20.332031 22.378906 20.332031 22.332031 20.332031 C 21.511719 20.179688 20.667969 20.15625 19.800781 20.265625 C 19.570312 20.425781 19.347656 20.582031 19.132812 20.734375 C 18.5 21.011719 18.1875 21.503906 18.199219 22.199219 C 18.292969 22.582031 18.515625 22.871094 18.867188 23.066406 C 18.613281 23.214844 18.523438 23.390625 18.601562 23.601562 C 18.5 23.738281 18.367188 23.804688 18.199219 23.800781 C 18.023438 23.667969 17.84375 23.535156 17.667969 23.398438 C 17.269531 22.570312 17.3125 21.769531 17.800781 21 C 16.734375 20.867188 15.757812 20.511719 14.867188 19.933594 C 14.757812 19.699219 14.578125 19.519531 14.332031 19.398438 C 13.996094 18.476562 13.464844 18.34375 12.734375 19 C 12.601562 19 12.464844 19 12.332031 19 C 12.148438 19.0625 12.058594 19.195312 12.066406 19.398438 C 12.222656 19.847656 12.222656 20.289062 12.066406 20.734375 C 11.8125 20.847656 11.546875 20.890625 11.265625 20.867188 C 10.695312 21.0625 10.09375 21.152344 9.464844 21.132812 C 8.921875 21.160156 8.410156 21.074219 7.933594 20.867188 C 7.957031 20.734375 7.910156 20.644531 7.800781 20.601562 C 7.800781 20.511719 7.800781 20.421875 7.800781 20.332031 C 8.054688 20.113281 8.320312 20.070312 8.601562 20.199219 C 9.179688 20.378906 9.753906 20.378906 10.332031 20.199219 C 10.59375 20.230469 10.839844 20.1875 11.066406 20.066406 C 11.074219 19.070312 11.207031 18.09375 11.464844 17.132812 C 11.660156 16.914062 11.902344 16.824219 12.199219 16.867188 C 12.289062 16.867188 12.332031 16.910156 12.332031 17 C 12.359375 17.324219 12.316406 17.632812 12.199219 17.933594 C 12.839844 17.992188 13.375 17.75 13.800781 17.199219 C 13.613281 17.074219 13.523438 16.894531 13.535156 16.667969 C 13.523438 16.273438 13.703125 16.140625 14.066406 16.265625 C 14.484375 16.652344 14.972656 16.898438 15.535156 17 C 15.523438 15.304688 15.636719 13.613281 15.867188 11.933594 C 15.988281 10.796875 16.367188 9.773438 17 8.867188 C 17.109375 8.601562 17.308594 8.46875 17.601562 8.464844 C 17.910156 8.507812 18.066406 8.6875 18.066406 9 Z M 18.066406 9 "/>
<path style=" stroke:none;fill-rule:evenodd;fill:rgb(46.666667%,46.666667%,46.27451%);fill-opacity:1;" d="M 18.066406 9 C 18.03125 9.214844 18.074219 9.390625 18.199219 9.535156 C 17.929688 9.851562 17.707031 10.207031 17.535156 10.601562 C 17.351562 10.785156 17.21875 10.761719 17.132812 10.535156 C 17.371094 9.964844 17.683594 9.453125 18.066406 9 Z M 18.066406 9 "/>
<path style=" stroke:none;fill-rule:evenodd;fill:rgb(49.019608%,49.019608%,49.019608%);fill-opacity:1;" d="M 19.667969 9.535156 C 20.019531 9.59375 20.328125 9.75 20.601562 10 C 20.105469 10.078125 19.617188 10.125 19.132812 10.132812 C 19.339844 9.949219 19.515625 9.75 19.667969 9.535156 Z M 19.667969 9.535156 "/>
<path style=" stroke:none;fill-rule:evenodd;fill:rgb(56.078431%,56.078431%,56.078431%);fill-opacity:1;" d="M 14.734375 11.535156 C 14.863281 11.652344 14.953125 11.808594 15 12 C 14.777344 13.046875 14.554688 14.089844 14.332031 15.132812 C 14.25 15.417969 14.074219 15.53125 13.800781 15.464844 C 13.675781 15.195312 13.632812 14.90625 13.667969 14.601562 C 13.878906 13.628906 14.082031 12.652344 14.265625 11.667969 C 14.402344 11.554688 14.558594 11.511719 14.734375 11.535156 Z M 14.734375 11.535156 "/>
<path style=" stroke:none;fill-rule:evenodd;fill:rgb(71.372549%,71.372549%,70.980392%);fill-opacity:1;" d="M 9.535156 10.199219 C 9.542969 10.332031 9.5 10.445312 9.398438 10.535156 C 8.625 10.820312 8.222656 11.375 8.199219 12.199219 C 7.976562 12.292969 7.886719 12.46875 7.933594 12.734375 C 7.679688 12.707031 7.480469 12.796875 7.332031 13 C 6.921875 13.683594 6.632812 14.394531 6.464844 15.132812 C 6.464844 14.910156 6.464844 14.6875 6.464844 14.464844 C 6.164062 14.417969 5.921875 14.507812 5.734375 14.734375 C 5.472656 15.828125 5.339844 16.9375 5.332031 18.066406 C 5.160156 17.320312 5.09375 16.566406 5.132812 15.800781 C 5.515625 15.375 5.46875 15.019531 5 14.734375 C 5.367188 13.957031 5.832031 13.246094 6.398438 12.601562 C 7.140625 11.949219 7.875 11.304688 8.601562 10.667969 C 8.875 10.4375 9.1875 10.285156 9.535156 10.199219 Z M 9.535156 10.199219 "/>
<path style=" stroke:none;fill-rule:evenodd;fill:rgb(62.352941%,54.901961%,41.176471%);fill-opacity:1;" d="M 22.199219 11.667969 C 21.746094 11.527344 21.277344 11.4375 20.800781 11.398438 C 19.890625 11.484375 18.980469 11.550781 18.066406 11.601562 C 17.71875 11.75 17.363281 11.863281 17 11.933594 C 17 12.246094 17 12.554688 17 12.867188 C 17.371094 12.835938 17.726562 12.882812 18.066406 13 C 18.066406 13.042969 18.066406 13.089844 18.066406 13.132812 C 17.632812 13.023438 17.1875 12.980469 16.734375 13 C 16.691406 12.589844 16.734375 12.191406 16.867188 11.800781 C 18.496094 11.183594 20.1875 10.984375 21.933594 11.199219 C 22.039062 11.347656 22.128906 11.503906 22.199219 11.667969 Z M 22.199219 11.667969 "/>
<path style=" stroke:none;fill-rule:evenodd;fill:rgb(70.588235%,60%,34.117647%);fill-opacity:1;" d="M 22.199219 11.667969 C 22.699219 12.132812 23.054688 12.710938 23.265625 13.398438 C 23.042969 13.644531 22.777344 13.824219 22.464844 13.933594 C 22.464844 13.84375 22.421875 13.800781 22.332031 13.800781 C 22.148438 13.414062 21.882812 13.082031 21.535156 12.800781 C 21.0625 12.363281 20.527344 12.03125 19.933594 11.800781 C 18.964844 11.703125 18.34375 12.101562 18.066406 13 C 17.726562 12.882812 17.371094 12.835938 17 12.867188 C 17 12.554688 17 12.246094 17 11.933594 C 17.363281 11.863281 17.71875 11.75 18.066406 11.601562 C 18.980469 11.550781 19.890625 11.484375 20.800781 11.398438 C 21.277344 11.4375 21.746094 11.527344 22.199219 11.667969 Z M 22.199219 11.667969 "/>
<path style=" stroke:none;fill-rule:evenodd;fill:rgb(55.686275%,55.686275%,55.686275%);fill-opacity:1;" d="M 12.199219 10.867188 C 12.332031 10.867188 12.464844 10.867188 12.601562 10.867188 C 12.621094 11.09375 12.597656 11.316406 12.535156 11.535156 C 11.203125 13.582031 10.601562 15.851562 10.734375 18.332031 C 10.457031 18.332031 10.191406 18.285156 9.933594 18.199219 C 9.78125 15.726562 10.359375 13.460938 11.667969 11.398438 C 11.667969 11.355469 11.667969 11.3125 11.667969 11.265625 C 11.804688 11.085938 11.980469 10.953125 12.199219 10.867188 Z M 12.199219 10.867188 "/>
<path style=" stroke:none;fill-rule:evenodd;fill:rgb(53.72549%,53.72549%,53.72549%);fill-opacity:1;" d="M 22.464844 10.332031 C 22.949219 10.550781 23.394531 10.816406 23.800781 11.132812 C 23.78125 11.273438 23.800781 11.40625 23.867188 11.535156 C 24.300781 11.972656 24.546875 12.507812 24.601562 13.132812 C 24.882812 13.769531 25.058594 14.433594 25.132812 15.132812 C 24.910156 15.132812 24.6875 15.132812 24.464844 15.132812 C 24.382812 13.273438 23.714844 11.675781 22.464844 10.332031 Z M 22.464844 10.332031 "/>
<path style=" stroke:none;fill-rule:evenodd;fill:rgb(57.254902%,56.470588%,56.470588%);fill-opacity:1;" d="M 10.867188 8.332031 C 10.761719 8.539062 10.714844 8.761719 10.734375 9 C 10.386719 8.996094 10.121094 9.128906 9.933594 9.398438 C 9.40625 9.703125 8.871094 10.015625 8.332031 10.332031 C 7.402344 11.242188 6.445312 12.132812 5.464844 13 C 5.296875 13.414062 5.050781 13.769531 4.734375 14.066406 C 4.683594 14.304688 4.59375 14.527344 4.464844 14.734375 C 4.484375 14.8125 4.527344 14.859375 4.601562 14.867188 C 4.230469 15.429688 4.007812 16.050781 3.933594 16.734375 C 3.613281 16.574219 3.34375 16.351562 3.132812 16.066406 C 4.773438 12.558594 7.351562 9.980469 10.867188 8.332031 Z M 10.867188 8.332031 "/>
<path style=" stroke:none;fill-rule:evenodd;fill:rgb(96.862745%,85.098039%,49.411765%);fill-opacity:1;" d="M 22.332031 13.800781 C 21.898438 14.054688 21.5 14.367188 21.132812 14.734375 C 20.558594 14.382812 20.070312 13.9375 19.667969 13.398438 C 19.117188 13.289062 18.582031 13.15625 18.066406 13 C 18.34375 12.101562 18.964844 11.703125 19.933594 11.800781 C 20.527344 12.03125 21.0625 12.363281 21.535156 12.800781 C 21.882812 13.082031 22.148438 13.414062 22.332031 13.800781 Z M 22.332031 13.800781 "/>
<path style=" stroke:none;fill-rule:evenodd;fill:rgb(88.235294%,87.843137%,87.843137%);fill-opacity:1;" d="M 9.933594 9.398438 C 10.226562 9.386719 10.269531 9.476562 10.066406 9.667969 C 9.847656 9.796875 9.671875 9.972656 9.535156 10.199219 C 9.1875 10.285156 8.875 10.4375 8.601562 10.667969 C 7.875 11.304688 7.140625 11.949219 6.398438 12.601562 C 5.832031 13.246094 5.367188 13.957031 5 14.734375 C 4.851562 14.742188 4.71875 14.785156 4.601562 14.867188 C 4.527344 14.859375 4.484375 14.8125 4.464844 14.734375 C 4.59375 14.527344 4.683594 14.304688 4.734375 14.066406 C 5.050781 13.769531 5.296875 13.414062 5.464844 13 C 6.445312 12.132812 7.402344 11.242188 8.332031 10.332031 C 8.871094 10.015625 9.40625 9.703125 9.933594 9.398438 Z M 9.933594 9.398438 "/>
<path style=" stroke:none;fill-rule:evenodd;fill:rgb(94.509804%,94.509804%,94.509804%);fill-opacity:1;" d="M 17.535156 13.933594 C 18.992188 14.210938 19.992188 15.054688 20.535156 16.464844 C 20.769531 18.105469 20.125 19.238281 18.601562 19.867188 C 17.492188 20.089844 16.46875 19.914062 15.535156 19.332031 C 15.316406 19.183594 15.179688 18.984375 15.132812 18.734375 C 15.140625 18.660156 15.1875 18.617188 15.265625 18.601562 C 15.914062 18.898438 16.582031 18.988281 17.265625 18.867188 C 17.3125 18.710938 17.355469 18.554688 17.398438 18.398438 C 17.042969 16.90625 17.089844 15.417969 17.535156 13.933594 Z M 17.535156 13.933594 "/>
<path style=" stroke:none;fill-rule:evenodd;fill:rgb(48.627451%,48.627451%,48.627451%);fill-opacity:1;" d="M 25.933594 13.265625 C 26.382812 14.007812 26.78125 14.785156 27.132812 15.601562 C 26.742188 15.65625 26.386719 15.589844 26.066406 15.398438 C 26.199219 15.398438 26.332031 15.398438 26.464844 15.398438 C 26.351562 14.667969 26.175781 13.957031 25.933594 13.265625 Z M 25.933594 13.265625 "/>
<path style=" stroke:none;fill-rule:evenodd;fill:rgb(70.196078%,70.196078%,70.196078%);fill-opacity:1;" d="M 12.199219 16.867188 C 11.902344 16.824219 11.660156 16.914062 11.464844 17.132812 C 11.207031 18.09375 11.074219 19.070312 11.066406 20.066406 C 10.839844 20.1875 10.59375 20.230469 10.332031 20.199219 C 9.96875 20.242188 9.613281 20.199219 9.265625 20.066406 C 9.050781 19.597656 8.894531 19.109375 8.800781 18.601562 C 8.734375 17.222656 8.710938 15.84375 8.734375 14.464844 C 8.773438 14.011719 8.90625 13.589844 9.132812 13.199219 C 9.144531 12.832031 8.964844 12.675781 8.601562 12.734375 C 9.1875 12.308594 9.679688 12.398438 10.066406 13 C 9.644531 14.101562 9.421875 15.257812 9.398438 16.464844 C 9.222656 16.8125 9.136719 17.210938 9.132812 17.667969 C 9.152344 18.363281 9.285156 19.03125 9.535156 19.667969 C 9.671875 19.6875 9.808594 19.664062 9.933594 19.601562 C 10.113281 19.332031 10.289062 19.066406 10.464844 18.800781 C 10.320312 18.570312 10.140625 18.371094 9.933594 18.199219 C 10.191406 18.285156 10.457031 18.332031 10.734375 18.332031 C 10.601562 15.851562 11.203125 13.582031 12.535156 11.535156 C 12.597656 11.316406 12.621094 11.09375 12.601562 10.867188 C 12.464844 10.867188 12.332031 10.867188 12.199219 10.867188 C 12.335938 10.765625 12.492188 10.679688 12.667969 10.601562 C 12.867188 9.894531 13.335938 9.652344 14.066406 9.867188 C 14.210938 9.957031 14.300781 10.089844 14.332031 10.265625 C 13.875 11.289062 13.363281 12.289062 12.800781 13.265625 C 12.753906 13.535156 12.710938 13.800781 12.667969 14.066406 C 12.28125 14.769531 12.035156 15.523438 11.933594 16.332031 C 11.972656 16.546875 12.0625 16.726562 12.199219 16.867188 Z M 12.199219 16.867188 "/>
<path style=" stroke:none;fill-rule:evenodd;fill:rgb(89.019608%,89.019608%,89.019608%);fill-opacity:1;" d="M 24.601562 13.132812 C 24.734375 13.132812 24.867188 13.132812 25 13.132812 C 24.972656 13.425781 25.082031 13.644531 25.332031 13.800781 C 25.441406 14.269531 25.417969 14.714844 25.265625 15.132812 C 25.222656 15.132812 25.175781 15.132812 25.132812 15.132812 C 25.058594 14.433594 24.882812 13.769531 24.601562 13.132812 Z M 24.601562 13.132812 "/>
<path style=" stroke:none;fill-rule:evenodd;fill:rgb(90.196078%,80.784314%,58.039216%);fill-opacity:1;" d="M 18.066406 13.132812 C 18.066406 13.089844 18.066406 13.042969 18.066406 13 C 18.582031 13.15625 19.117188 13.289062 19.667969 13.398438 C 20.070312 13.9375 20.558594 14.382812 21.132812 14.734375 C 21.5 14.367188 21.898438 14.054688 22.332031 13.800781 C 22.421875 13.800781 22.464844 13.84375 22.464844 13.933594 C 21.96875 14.453125 21.546875 15.03125 21.199219 15.667969 C 20.492188 14.402344 19.445312 13.558594 18.066406 13.132812 Z M 18.066406 13.132812 "/>
<path style=" stroke:none;fill-rule:evenodd;fill:rgb(70.196078%,70.196078%,70.196078%);fill-opacity:1;" d="M 20.867188 5.933594 C 22.191406 6.261719 23.390625 6.839844 24.464844 7.667969 C 24.679688 8.0625 24.945312 8.441406 25.265625 8.800781 C 26.304688 9.261719 27.152344 9.972656 27.800781 10.933594 C 27.925781 10.996094 28.058594 11.019531 28.199219 11 C 28.839844 12.304688 29.4375 13.640625 30 15 C 30.109375 15.175781 30.265625 15.265625 30.464844 15.265625 C 30.464844 15.3125 30.464844 15.355469 30.464844 15.398438 C 30.488281 15.800781 30.464844 16.203125 30.398438 16.601562 C 30.058594 16.539062 29.683594 16.496094 29.265625 16.464844 C 29.3125 17 29.355469 17.535156 29.398438 18.066406 C 29.226562 17.960938 29.070312 17.828125 28.933594 17.667969 C 28.648438 17.054688 28.40625 16.433594 28.199219 15.800781 C 28.808594 16.246094 29.164062 16.089844 29.265625 15.332031 C 27.96875 11.546875 25.480469 8.878906 21.800781 7.332031 C 22.160156 7.277344 22.515625 7.296875 22.867188 7.398438 C 22.789062 6.980469 22.523438 6.78125 22.066406 6.800781 C 21.167969 6.773438 20.28125 6.75 19.398438 6.734375 C 18.929688 7.113281 18.398438 7.335938 17.800781 7.398438 C 17.933594 7.21875 18.066406 7.039062 18.199219 6.867188 C 18.644531 6.515625 19.132812 6.226562 19.667969 6 C 20.0625 5.933594 20.464844 5.910156 20.867188 5.933594 Z M 20.867188 5.933594 "/>
<path style=" stroke:none;fill-rule:evenodd;fill:rgb(52.941176%,52.941176%,52.941176%);fill-opacity:1;" d="M 8.734375 14.464844 C 8.710938 15.84375 8.734375 17.222656 8.800781 18.601562 C 8.894531 19.109375 9.050781 19.597656 9.265625 20.066406 C 9.613281 20.199219 9.96875 20.242188 10.332031 20.199219 C 9.753906 20.378906 9.179688 20.378906 8.601562 20.199219 C 8.265625 18.429688 8.246094 16.652344 8.535156 14.867188 C 8.5625 14.703125 8.632812 14.570312 8.734375 14.464844 Z M 8.734375 14.464844 "/>
<path style=" stroke:none;fill-rule:evenodd;fill:rgb(90.980392%,90.980392%,90.980392%);fill-opacity:1;" d="M 11.667969 11.265625 C 11.667969 11.3125 11.667969 11.355469 11.667969 11.398438 C 11.550781 11.382812 11.460938 11.425781 11.398438 11.535156 C 10.285156 13.417969 9.660156 15.460938 9.535156 17.667969 C 9.402344 17.277344 9.359375 16.875 9.398438 16.464844 C 9.421875 15.257812 9.644531 14.101562 10.066406 13 C 10.183594 13.015625 10.273438 12.972656 10.332031 12.867188 C 10.582031 12.054688 10.9375 11.300781 11.398438 10.601562 C 11.585938 10.34375 11.765625 10.320312 11.933594 10.535156 C 11.753906 10.742188 11.664062 10.988281 11.667969 11.265625 Z M 11.667969 11.265625 "/>
<path style=" stroke:none;fill-rule:evenodd;fill:rgb(96.470588%,96.470588%,96.470588%);fill-opacity:1;" d="M 22.734375 14.867188 C 22.878906 14.882812 22.96875 14.972656 23 15.132812 C 23.023438 15.746094 23.203125 16.300781 23.535156 16.800781 C 23.84375 16.84375 24.15625 16.890625 24.464844 16.933594 C 24.546875 17.148438 24.636719 17.347656 24.734375 17.535156 C 24.867188 17.714844 25 17.894531 25.132812 18.066406 C 25.148438 18.148438 25.191406 18.214844 25.265625 18.265625 C 25.648438 18.375 26.003906 18.351562 26.332031 18.199219 C 26.492188 18.097656 26.625 17.964844 26.734375 17.800781 C 26.859375 17.941406 26.902344 18.121094 26.867188 18.332031 C 25.765625 20.085938 24.34375 20.394531 22.601562 19.265625 C 22.019531 18.730469 21.753906 18.0625 21.800781 17.265625 C 21.75 16.308594 22.058594 15.511719 22.734375 14.867188 Z M 22.734375 14.867188 "/>
<path style=" stroke:none;fill-rule:evenodd;fill:rgb(4.313725%,4.313725%,4.313725%);fill-opacity:1;" d="M 18.601562 16.066406 C 20.097656 16.070312 20.496094 16.714844 19.800781 18 C 18.542969 18.472656 17.941406 18.050781 18 16.734375 C 18.183594 16.484375 18.382812 16.261719 18.601562 16.066406 Z M 18.601562 16.066406 "/>
<path style=" stroke:none;fill-rule:evenodd;fill:rgb(68.627451%,68.627451%,68.627451%);fill-opacity:1;" d="M 24.734375 17.535156 C 24.636719 17.347656 24.546875 17.148438 24.464844 16.933594 C 24.15625 16.890625 23.84375 16.84375 23.535156 16.800781 C 23.203125 16.300781 23.023438 15.746094 23 15.132812 C 22.96875 14.972656 22.878906 14.882812 22.734375 14.867188 C 22.921875 14.660156 23.144531 14.480469 23.398438 14.332031 C 23.515625 14.820312 23.628906 15.308594 23.734375 15.800781 C 23.800781 15.867188 23.867188 15.933594 23.933594 16 C 24.339844 16.023438 24.742188 16.089844 25.132812 16.199219 C 24.796875 16.570312 24.664062 17.015625 24.734375 17.535156 Z M 24.734375 17.535156 "/>
<path style=" stroke:none;fill-rule:evenodd;fill:rgb(56.862745%,56.470588%,57.254902%);fill-opacity:1;" d="M 30.464844 15.398438 C 30.921875 16.34375 30.808594 17.234375 30.132812 18.066406 C 29.984375 18.273438 29.785156 18.359375 29.535156 18.332031 C 29.488281 18.246094 29.445312 18.15625 29.398438 18.066406 C 29.355469 17.535156 29.3125 17 29.265625 16.464844 C 29.683594 16.496094 30.058594 16.539062 30.398438 16.601562 C 30.464844 16.203125 30.488281 15.800781 30.464844 15.398438 Z M 30.464844 15.398438 "/>
<path style=" stroke:none;fill-rule:evenodd;fill:rgb(82.745098%,92.156863%,91.764706%);fill-opacity:1;" d="M -0.0664062 13.800781 C 0.117188 13.777344 0.292969 13.800781 0.464844 13.867188 C 0.789062 14.179688 1.144531 14.449219 1.535156 14.667969 C 1.902344 14.769531 2.234375 14.703125 2.535156 14.464844 C 2.597656 14.59375 2.621094 14.726562 2.601562 14.867188 C 2.425781 15.273438 2.292969 15.695312 2.199219 16.132812 C 2.488281 16.753906 2.929688 17.21875 3.535156 17.535156 C 3.628906 17.652344 3.761719 17.699219 3.933594 17.667969 C 3.890625 18.359375 3.933594 19.027344 4.066406 19.667969 C 4.183594 20.851562 4.761719 21.160156 5.800781 20.601562 C 5.800781 20.824219 5.800781 21.042969 5.800781 21.265625 C 3.652344 21.273438 1.695312 21.894531 -0.0664062 23.132812 C -0.0664062 20.023438 -0.0664062 16.910156 -0.0664062 13.800781 Z M -0.0664062 13.800781 "/>
<path style=" stroke:none;fill-rule:evenodd;fill:rgb(64.313725%,64.313725%,64.313725%);fill-opacity:1;" d="M 26.867188 18.332031 C 26.902344 18.121094 26.859375 17.941406 26.734375 17.800781 C 26.90625 17.421875 26.90625 17.042969 26.734375 16.667969 C 26.996094 16.601562 27.261719 16.578125 27.535156 16.601562 C 27.492188 17.257812 27.269531 17.835938 26.867188 18.332031 Z M 26.867188 18.332031 "/>
<path style=" stroke:none;fill-rule:evenodd;fill:rgb(80.784314%,80.784314%,80.784314%);fill-opacity:1;" d="M 11.667969 11.398438 C 10.359375 13.460938 9.78125 15.726562 9.933594 18.199219 C 10.140625 18.371094 10.320312 18.570312 10.464844 18.800781 C 10.289062 19.066406 10.113281 19.332031 9.933594 19.601562 C 9.808594 19.664062 9.671875 19.6875 9.535156 19.667969 C 9.285156 19.03125 9.152344 18.363281 9.132812 17.667969 C 9.136719 17.210938 9.222656 16.8125 9.398438 16.464844 C 9.359375 16.875 9.402344 17.277344 9.535156 17.667969 C 9.660156 15.460938 10.285156 13.417969 11.398438 11.535156 C 11.460938 11.425781 11.550781 11.382812 11.667969 11.398438 Z M 11.667969 11.398438 "/>
<path style=" stroke:none;fill-rule:evenodd;fill:rgb(68.235294%,68.235294%,68.235294%);fill-opacity:1;" d="M 17.535156 13.933594 C 17.089844 15.417969 17.042969 16.90625 17.398438 18.398438 C 17.355469 18.554688 17.3125 18.710938 17.265625 18.867188 C 16.582031 18.988281 15.914062 18.898438 15.265625 18.601562 C 15.1875 18.617188 15.140625 18.660156 15.132812 18.734375 C 14.757812 18.535156 14.535156 18.226562 14.464844 17.800781 C 15.160156 17.996094 15.871094 18.085938 16.601562 18.066406 C 16.46875 16.78125 16.445312 15.492188 16.535156 14.199219 C 16.8125 13.960938 17.148438 13.871094 17.535156 13.933594 Z M 17.535156 13.933594 "/>
<path style=" stroke:none;fill-rule:evenodd;fill:rgb(41.568627%,41.568627%,41.568627%);fill-opacity:1;" d="M 25.132812 18.066406 C 25.523438 18.171875 25.925781 18.21875 26.332031 18.199219 C 26.003906 18.351562 25.648438 18.375 25.265625 18.265625 C 25.191406 18.214844 25.148438 18.148438 25.132812 18.066406 Z M 25.132812 18.066406 "/>
<path style=" stroke:none;fill-rule:evenodd;fill:rgb(58.039216%,58.039216%,57.647059%);fill-opacity:1;" d="M 6.464844 15.132812 C 6.214844 16.238281 6.167969 17.347656 6.332031 18.464844 C 6.554688 18.644531 6.777344 18.644531 7 18.464844 C 7.191406 17.933594 7.324219 17.398438 7.398438 16.867188 C 7.421875 17.578125 7.398438 18.289062 7.332031 19 C 6.625 19.332031 5.894531 19.597656 5.132812 19.800781 C 4.957031 18.445312 4.957031 17.113281 5.132812 15.800781 C 5.09375 16.566406 5.160156 17.320312 5.332031 18.066406 C 5.339844 16.9375 5.472656 15.828125 5.734375 14.734375 C 5.921875 14.507812 6.164062 14.417969 6.464844 14.464844 C 6.464844 14.6875 6.464844 14.910156 6.464844 15.132812 Z M 6.464844 15.132812 "/>
<path style=" stroke:none;fill-rule:evenodd;fill:rgb(41.176471%,45.098039%,45.490196%);fill-opacity:1;" d="M 3.535156 17.535156 C 3.710938 17.535156 3.890625 17.535156 4.066406 17.535156 C 4.066406 18.246094 4.066406 18.957031 4.066406 19.667969 C 3.933594 19.027344 3.890625 18.359375 3.933594 17.667969 C 3.761719 17.699219 3.628906 17.652344 3.535156 17.535156 Z M 3.535156 17.535156 "/>
<path style=" stroke:none;fill-rule:evenodd;fill:rgb(60.784314%,56.862745%,40%);fill-opacity:1;" d="M 14.332031 19.398438 C 14.199219 19.398438 14.066406 19.398438 13.933594 19.398438 C 13.886719 19.21875 13.773438 19.085938 13.601562 19 C 13.289062 19.160156 13 19.160156 12.734375 19 C 13.464844 18.34375 13.996094 18.476562 14.332031 19.398438 Z M 14.332031 19.398438 "/>
<path style=" stroke:none;fill-rule:evenodd;fill:rgb(74.117647%,70.588235%,62.745098%);fill-opacity:1;" d="M 21.132812 18.734375 C 22.066406 19.5 21.886719 19.746094 20.601562 19.464844 C 20.796875 19.230469 20.972656 18.984375 21.132812 18.734375 Z M 21.132812 18.734375 "/>
<path style=" stroke:none;fill-rule:evenodd;fill:rgb(73.333333%,56.078431%,34.117647%);fill-opacity:1;" d="M 12.332031 19 C 12.464844 19 12.601562 19 12.734375 19 C 13 19.160156 13.289062 19.160156 13.601562 19 C 13.773438 19.085938 13.886719 19.21875 13.933594 19.398438 C 13.675781 19.59375 13.453125 19.816406 13.265625 20.066406 C 12.953125 19.703125 12.644531 19.347656 12.332031 19 Z M 12.332031 19 "/>
<path style=" stroke:none;fill-rule:evenodd;fill:rgb(80.392157%,65.098039%,48.627451%);fill-opacity:1;" d="M 28.867188 19 C 28.890625 19.132812 28.84375 19.222656 28.734375 19.265625 C 27.894531 19.308594 27.230469 19.664062 26.734375 20.332031 C 26.523438 20.363281 26.347656 20.453125 26.199219 20.601562 C 26.058594 20.476562 25.878906 20.429688 25.667969 20.464844 C 26.632812 19.902344 27.433594 19.144531 28.066406 18.199219 C 28.335938 18.46875 28.605469 18.734375 28.867188 19 Z M 28.867188 19 "/>
<path style=" stroke:none;fill-rule:evenodd;fill:rgb(82.352941%,62.352941%,40%);fill-opacity:1;" d="M 22.332031 20.332031 C 21.621094 20.3125 20.910156 20.332031 20.199219 20.398438 C 19.886719 20.628906 19.53125 20.742188 19.132812 20.734375 C 19.347656 20.582031 19.570312 20.425781 19.800781 20.265625 C 20.667969 20.15625 21.511719 20.179688 22.332031 20.332031 Z M 22.332031 20.332031 "/>
<path style=" stroke:none;fill-rule:evenodd;fill:rgb(63.529412%,50.980392%,32.941176%);fill-opacity:1;" d="M 7.265625 20.066406 C 7.492188 20.070312 7.671875 20.160156 7.800781 20.332031 C 7.800781 20.421875 7.800781 20.511719 7.800781 20.601562 C 7.800781 20.734375 7.800781 20.867188 7.800781 21 C 7.703125 21.054688 7.636719 21.144531 7.601562 21.265625 C 7.40625 21.046875 7.164062 20.957031 6.867188 21 C 6.867188 21.175781 6.867188 21.355469 6.867188 21.535156 C 6.734375 21.117188 6.691406 20.671875 6.734375 20.199219 C 6.945312 20.234375 7.125 20.191406 7.265625 20.066406 Z M 7.265625 20.066406 "/>
<path style=" stroke:none;fill-rule:evenodd;fill:rgb(98.039216%,17.647059%,15.686275%);fill-opacity:1;" d="M 28.734375 19.800781 C 28.90625 19.875 29.015625 20.007812 29.066406 20.199219 C 29.15625 20.910156 29.15625 21.621094 29.066406 22.332031 C 28.945312 22.503906 28.792969 22.636719 28.601562 22.734375 C 28.535156 23.308594 28.269531 23.753906 27.800781 24.066406 C 26.851562 23.90625 26.453125 23.328125 26.601562 22.332031 C 26.589844 21.542969 26.8125 20.832031 27.265625 20.199219 C 27.738281 19.992188 28.226562 19.859375 28.734375 19.800781 Z M 28.734375 19.800781 "/>
<path style=" stroke:none;fill-rule:evenodd;fill:rgb(58.431373%,16.078431%,14.901961%);fill-opacity:1;" d="M 12.332031 19 C 12.644531 19.347656 12.953125 19.703125 13.265625 20.066406 C 13.265625 20.109375 13.265625 20.15625 13.265625 20.199219 C 13.171875 20.320312 13.039062 20.363281 12.867188 20.332031 C 12.882812 20.714844 12.707031 20.9375 12.332031 21 C 11.042969 21.484375 9.710938 21.640625 8.332031 21.464844 C 8.117188 21.402344 7.9375 21.292969 7.800781 21.132812 C 7.800781 21.089844 7.800781 21.042969 7.800781 21 C 7.800781 20.867188 7.800781 20.734375 7.800781 20.601562 C 7.910156 20.644531 7.957031 20.734375 7.933594 20.867188 C 7.992188 20.996094 8.082031 21.105469 8.199219 21.199219 C 9.089844 21.289062 9.976562 21.289062 10.867188 21.199219 C 11.058594 21.148438 11.191406 21.039062 11.265625 20.867188 C 11.546875 20.890625 11.8125 20.847656 12.066406 20.734375 C 12.222656 20.289062 12.222656 19.847656 12.066406 19.398438 C 12.058594 19.195312 12.148438 19.0625 12.332031 19 Z M 12.332031 19 "/>
<path style=" stroke:none;fill-rule:evenodd;fill:rgb(98.431373%,68.235294%,27.058824%);fill-opacity:1;" d="M 22.332031 20.332031 C 22.378906 20.332031 22.421875 20.332031 22.464844 20.332031 C 22.449219 20.449219 22.492188 20.539062 22.601562 20.601562 C 22.851562 20.679688 23.09375 20.769531 23.332031 20.867188 C 23.390625 21.113281 23.457031 21.359375 23.535156 21.601562 C 23.269531 21.820312 23.003906 22.042969 22.734375 22.265625 C 21.597656 22.574219 20.441406 22.664062 19.265625 22.535156 C 19.042969 22.3125 18.863281 22.070312 18.734375 21.800781 C 18.992188 21.496094 19.125 21.140625 19.132812 20.734375 C 19.53125 20.742188 19.886719 20.628906 20.199219 20.398438 C 20.910156 20.332031 21.621094 20.3125 22.332031 20.332031 Z M 22.332031 20.332031 "/>
<path style=" stroke:none;fill-rule:evenodd;fill:rgb(88.627451%,78.431373%,57.254902%);fill-opacity:1;" d="M 14.867188 19.933594 C 15.757812 20.511719 16.734375 20.867188 17.800781 21 C 17.3125 21.769531 17.269531 22.570312 17.667969 23.398438 C 17.578125 23.398438 17.488281 23.398438 17.398438 23.398438 C 17.3125 23.398438 17.265625 23.355469 17.265625 23.265625 C 17.265625 22.554688 17.265625 21.84375 17.265625 21.132812 C 16.214844 21.179688 15.414062 20.78125 14.867188 19.933594 Z M 14.867188 19.933594 "/>
<path style=" stroke:none;fill-rule:evenodd;fill:rgb(20.784314%,1.568627%,1.960784%);fill-opacity:1;" d="M 7.933594 20.867188 C 8.410156 21.074219 8.921875 21.160156 9.464844 21.132812 C 10.09375 21.152344 10.695312 21.0625 11.265625 20.867188 C 11.191406 21.039062 11.058594 21.148438 10.867188 21.199219 C 9.976562 21.289062 9.089844 21.289062 8.199219 21.199219 C 8.082031 21.105469 7.992188 20.996094 7.933594 20.867188 Z M 7.933594 20.867188 "/>
<path style=" stroke:none;fill-rule:evenodd;fill:rgb(22.352941%,2.745098%,2.745098%);fill-opacity:1;" d="M 28.867188 19 C 29.476562 19.871094 29.675781 20.847656 29.464844 21.933594 C 29.4375 22.097656 29.367188 22.230469 29.265625 22.332031 C 29.289062 21.578125 29.265625 20.820312 29.199219 20.066406 C 29.144531 19.792969 28.988281 19.617188 28.734375 19.535156 C 28.734375 19.445312 28.734375 19.355469 28.734375 19.265625 C 28.84375 19.222656 28.890625 19.132812 28.867188 19 Z M 28.867188 19 "/>
<path style=" stroke:none;fill-rule:evenodd;fill:rgb(69.803922%,11.764706%,11.764706%);fill-opacity:1;" d="M 12.332031 21 C 12.34375 21.132812 12.300781 21.242188 12.199219 21.332031 C 11.910156 21.367188 11.6875 21.5 11.535156 21.734375 C 10.28125 21.878906 9.035156 21.902344 7.800781 21.800781 C 7.800781 21.578125 7.800781 21.355469 7.800781 21.132812 C 7.9375 21.292969 8.117188 21.402344 8.332031 21.464844 C 9.710938 21.640625 11.042969 21.484375 12.332031 21 Z M 12.332031 21 "/>
<path style=" stroke:none;fill-rule:evenodd;fill:rgb(87.058824%,28.235294%,17.647059%);fill-opacity:1;" d="M 28.734375 19.265625 C 28.734375 19.355469 28.734375 19.445312 28.734375 19.535156 C 28.734375 19.621094 28.734375 19.710938 28.734375 19.800781 C 28.226562 19.859375 27.738281 19.992188 27.265625 20.199219 C 26.8125 20.832031 26.589844 21.542969 26.601562 22.332031 C 26.453125 23.328125 26.851562 23.90625 27.800781 24.066406 C 27.71875 24.183594 27.675781 24.320312 27.667969 24.464844 C 27.667969 24.554688 27.667969 24.644531 27.667969 24.734375 C 27.621094 24.867188 27.535156 24.957031 27.398438 25 C 26.9375 24.539062 26.5625 24.003906 26.265625 23.398438 C 26.175781 22.644531 26.175781 21.890625 26.265625 21.132812 C 26.453125 20.882812 26.609375 20.613281 26.734375 20.332031 C 27.230469 19.664062 27.894531 19.308594 28.734375 19.265625 Z M 28.734375 19.265625 "/>
<path style=" stroke:none;fill-rule:evenodd;fill:rgb(98.039216%,17.647059%,15.686275%);fill-opacity:1;" d="M 8.464844 23.667969 C 8.464844 23.621094 8.464844 23.578125 8.464844 23.535156 C 8.257812 23.113281 8.121094 22.667969 8.066406 22.199219 C 9.539062 22.101562 11.007812 21.945312 12.464844 21.734375 C 12.625 21.304688 12.871094 20.925781 13.199219 20.601562 C 13.445312 20.933594 13.554688 21.3125 13.535156 21.734375 C 13.441406 22.328125 13.261719 22.886719 13 23.398438 C 12.859375 23.378906 12.726562 23.402344 12.601562 23.464844 C 12.402344 23.730469 12.179688 23.976562 11.933594 24.199219 C 11.136719 24.332031 10.339844 24.378906 9.535156 24.332031 C 9.535156 24.199219 9.535156 24.066406 9.535156 23.933594 C 9.199219 23.78125 8.84375 23.691406 8.464844 23.667969 Z M 8.464844 23.667969 "/>
<path style=" stroke:none;fill-rule:evenodd;fill:rgb(81.960784%,62.745098%,37.647059%);fill-opacity:1;" d="M 22.464844 20.332031 C 22.769531 20.457031 23.078125 20.566406 23.398438 20.667969 C 23.507812 20.929688 23.683594 21.128906 23.933594 21.265625 C 24.101562 21.566406 24.058594 21.835938 23.800781 22.066406 C 22.414062 22.730469 20.945312 22.976562 19.398438 22.800781 C 18.960938 22.667969 18.558594 22.46875 18.199219 22.199219 C 18.1875 21.503906 18.5 21.011719 19.132812 20.734375 C 19.125 21.140625 18.992188 21.496094 18.734375 21.800781 C 18.863281 22.070312 19.042969 22.3125 19.265625 22.535156 C 20.441406 22.664062 21.597656 22.574219 22.734375 22.265625 C 23.003906 22.042969 23.269531 21.820312 23.535156 21.601562 C 23.457031 21.359375 23.390625 21.113281 23.332031 20.867188 C 23.09375 20.769531 22.851562 20.679688 22.601562 20.601562 C 22.492188 20.539062 22.449219 20.449219 22.464844 20.332031 Z M 22.464844 20.332031 "/>
<path style=" stroke:none;fill-rule:evenodd;fill:rgb(98.431373%,84.313725%,47.843137%);fill-opacity:1;" d="M 13.933594 19.398438 C 14.066406 19.398438 14.199219 19.398438 14.332031 19.398438 C 14.578125 19.519531 14.757812 19.699219 14.867188 19.933594 C 15.414062 20.78125 16.214844 21.179688 17.265625 21.132812 C 17.265625 21.84375 17.265625 22.554688 17.265625 23.265625 C 16.121094 23.113281 14.964844 23.09375 13.800781 23.199219 C 13.726562 23.296875 13.636719 23.363281 13.535156 23.398438 C 13.578125 23.222656 13.621094 23.042969 13.667969 22.867188 C 13.792969 22.160156 13.816406 21.449219 13.734375 20.734375 C 13.605469 20.519531 13.453125 20.34375 13.265625 20.199219 C 13.265625 20.15625 13.265625 20.109375 13.265625 20.066406 C 13.453125 19.816406 13.675781 19.59375 13.933594 19.398438 Z M 13.933594 19.398438 "/>
<path style=" stroke:none;fill-rule:evenodd;fill:rgb(94.901961%,71.372549%,39.215686%);fill-opacity:1;" d="M 7.800781 21 C 7.800781 21.042969 7.800781 21.089844 7.800781 21.132812 C 7.800781 21.355469 7.800781 21.578125 7.800781 21.800781 C 7.824219 22.25 7.890625 22.695312 8 23.132812 C 8.097656 23.339844 8.25 23.472656 8.464844 23.535156 C 8.464844 23.578125 8.464844 23.621094 8.464844 23.667969 C 9.289062 24.691406 10.355469 25.023438 11.667969 24.667969 C 11.988281 24.515625 12.300781 24.335938 12.601562 24.132812 C 12.9375 23.6875 13.292969 23.261719 13.667969 22.867188 C 13.621094 23.042969 13.578125 23.222656 13.535156 23.398438 C 13.113281 23.929688 12.625 24.394531 12.066406 24.800781 C 12.097656 24.851562 12.140625 24.875 12.199219 24.867188 C 11.640625 24.960938 11.0625 25.050781 10.464844 25.132812 C 10.378906 25.042969 10.289062 24.957031 10.199219 24.867188 C 10.042969 25.046875 9.839844 25.132812 9.601562 25.132812 C 9.207031 25.015625 8.832031 24.882812 8.464844 24.734375 C 8.160156 24.558594 7.894531 24.339844 7.667969 24.066406 C 7.265625 23.265625 7 22.421875 6.867188 21.535156 C 6.867188 21.355469 6.867188 21.175781 6.867188 21 C 7.164062 20.957031 7.40625 21.046875 7.601562 21.265625 C 7.636719 21.144531 7.703125 21.054688 7.800781 21 Z M 7.800781 21 "/>
<path style=" stroke:none;fill-rule:evenodd;fill:rgb(75.294118%,21.568627%,20.784314%);fill-opacity:1;" d="M 28.734375 19.535156 C 28.988281 19.617188 29.144531 19.792969 29.199219 20.066406 C 29.265625 20.820312 29.289062 21.578125 29.265625 22.332031 C 29.089844 22.777344 28.910156 23.222656 28.734375 23.667969 C 28.371094 23.941406 28.015625 24.207031 27.667969 24.464844 C 27.675781 24.320312 27.71875 24.183594 27.800781 24.066406 C 28.269531 23.753906 28.535156 23.308594 28.601562 22.734375 C 28.792969 22.636719 28.945312 22.503906 29.066406 22.332031 C 29.15625 21.621094 29.15625 20.910156 29.066406 20.199219 C 29.015625 20.007812 28.90625 19.875 28.734375 19.800781 C 28.734375 19.710938 28.734375 19.621094 28.734375 19.535156 Z M 28.734375 19.535156 "/>
<path style=" stroke:none;fill-rule:evenodd;fill:rgb(94.901961%,76.078431%,34.901961%);fill-opacity:1;" d="M 17.265625 23.265625 C 17.265625 23.355469 17.3125 23.398438 17.398438 23.398438 C 17.421875 23.710938 17.511719 24 17.667969 24.265625 C 18.054688 24.398438 18.457031 24.488281 18.867188 24.535156 C 19.0625 24.628906 19.152344 24.785156 19.132812 25 C 16.824219 24.761719 14.511719 24.71875 12.199219 24.867188 C 12.140625 24.875 12.097656 24.851562 12.066406 24.800781 C 12.625 24.394531 13.113281 23.929688 13.535156 23.398438 C 13.636719 23.363281 13.726562 23.296875 13.800781 23.199219 C 14.964844 23.09375 16.121094 23.113281 17.265625 23.265625 Z M 17.265625 23.265625 "/>
<path style=" stroke:none;fill-rule:evenodd;fill:rgb(12.941176%,6.27451%,3.529412%);fill-opacity:1;" d="M 24.734375 21.265625 C 25.226562 22.355469 25.003906 23.308594 24.066406 24.132812 C 22.28125 25.242188 20.457031 25.285156 18.601562 24.265625 C 18.4375 24.128906 18.304688 23.972656 18.199219 23.800781 C 18.367188 23.804688 18.5 23.738281 18.601562 23.601562 C 18.523438 23.390625 18.613281 23.214844 18.867188 23.066406 C 18.515625 22.871094 18.292969 22.582031 18.199219 22.199219 C 18.558594 22.46875 18.960938 22.667969 19.398438 22.800781 C 20.945312 22.976562 22.414062 22.730469 23.800781 22.066406 C 23.664062 22.292969 23.464844 22.472656 23.199219 22.601562 C 22.09375 22.933594 20.960938 23.085938 19.800781 23.066406 C 19.691406 23.109375 19.601562 23.175781 19.535156 23.265625 C 20.597656 23.40625 21.664062 23.40625 22.734375 23.265625 C 22.722656 23.132812 22.765625 23.023438 22.867188 22.933594 C 23.230469 22.90625 23.566406 22.792969 23.867188 22.601562 C 24.101562 22.757812 24.234375 22.976562 24.265625 23.265625 C 24.886719 22.726562 25.042969 22.058594 24.734375 21.265625 Z M 24.734375 21.265625 "/>
<path style=" stroke:none;fill-rule:evenodd;fill:rgb(64.313725%,40.784314%,32.156863%);fill-opacity:1;" d="M 0.464844 23.800781 C 1.203125 24.0625 1.957031 24.261719 2.734375 24.398438 C 4.113281 24.457031 5.492188 24.457031 6.867188 24.398438 C 7.179688 24.714844 7.203125 25.050781 6.933594 25.398438 C 6.867188 26.066406 6.84375 26.730469 6.867188 27.398438 C 6.597656 27.421875 6.328125 27.398438 6.066406 27.332031 C 5.425781 27.113281 4.804688 26.867188 4.199219 26.601562 C 4.90625 26.753906 5.617188 26.867188 6.332031 26.933594 C 6.398438 26.867188 6.464844 26.800781 6.535156 26.734375 C 6.601562 26.023438 6.621094 25.3125 6.601562 24.601562 C 5.960938 24.675781 5.316406 24.722656 4.667969 24.734375 C 3.097656 24.535156 1.519531 24.402344 -0.0664062 24.332031 C -0.0664062 24.246094 -0.0664062 24.15625 -0.0664062 24.066406 C 0.140625 24.035156 0.320312 23.945312 0.464844 23.800781 Z M 0.464844 23.800781 "/>
<path style=" stroke:none;fill-rule:evenodd;fill:rgb(84.313725%,64.705882%,42.745098%);fill-opacity:1;" d="M 20.332031 24.199219 C 20.203125 24.019531 20.023438 23.886719 19.800781 23.800781 C 20.371094 23.667969 20.949219 23.625 21.535156 23.667969 C 21.535156 23.621094 21.535156 23.578125 21.535156 23.535156 C 21.964844 23.511719 22.363281 23.421875 22.734375 23.265625 C 23.125 23.171875 23.5 23.039062 23.867188 22.867188 C 23.933594 22.910156 24 22.957031 24.066406 23 C 23.105469 24.292969 21.863281 24.691406 20.332031 24.199219 Z M 20.332031 24.199219 "/>
<path style=" stroke:none;fill-rule:evenodd;fill:rgb(87.058824%,25.882353%,15.294118%);fill-opacity:1;" d="M 13.265625 20.199219 C 13.453125 20.34375 13.605469 20.519531 13.734375 20.734375 C 13.816406 21.449219 13.792969 22.160156 13.667969 22.867188 C 13.292969 23.261719 12.9375 23.6875 12.601562 24.132812 C 12.300781 24.335938 11.988281 24.515625 11.667969 24.667969 C 10.355469 25.023438 9.289062 24.691406 8.464844 23.667969 C 8.84375 23.691406 9.199219 23.78125 9.535156 23.933594 C 9.535156 24.066406 9.535156 24.199219 9.535156 24.332031 C 10.339844 24.378906 11.136719 24.332031 11.933594 24.199219 C 12.179688 23.976562 12.402344 23.730469 12.601562 23.464844 C 12.726562 23.402344 12.859375 23.378906 13 23.398438 C 13.261719 22.886719 13.441406 22.328125 13.535156 21.734375 C 13.554688 21.3125 13.445312 20.933594 13.199219 20.601562 C 12.871094 20.925781 12.625 21.304688 12.464844 21.734375 C 11.007812 21.945312 9.539062 22.101562 8.066406 22.199219 C 8.121094 22.667969 8.257812 23.113281 8.464844 23.535156 C 8.25 23.472656 8.097656 23.339844 8 23.132812 C 7.890625 22.695312 7.824219 22.25 7.800781 21.800781 C 9.035156 21.902344 10.28125 21.878906 11.535156 21.734375 C 11.6875 21.5 11.910156 21.367188 12.199219 21.332031 C 12.300781 21.242188 12.34375 21.132812 12.332031 21 C 12.707031 20.9375 12.882812 20.714844 12.867188 20.332031 C 13.039062 20.363281 13.171875 20.320312 13.265625 20.199219 Z M 13.265625 20.199219 "/>
<path style=" stroke:none;fill-rule:evenodd;fill:rgb(41.176471%,9.803922%,9.803922%);fill-opacity:1;" d="M 28.734375 23.667969 C 28.515625 24.152344 28.160156 24.507812 27.667969 24.734375 C 27.667969 24.644531 27.667969 24.554688 27.667969 24.464844 C 28.015625 24.207031 28.371094 23.941406 28.734375 23.667969 Z M 28.734375 23.667969 "/>
<path style=" stroke:none;fill-rule:evenodd;fill:rgb(88.627451%,74.901961%,48.235294%);fill-opacity:1;" d="M 26.734375 20.332031 C 26.609375 20.613281 26.453125 20.882812 26.265625 21.132812 C 26.175781 21.890625 26.175781 22.644531 26.265625 23.398438 C 26.5625 24.003906 26.9375 24.539062 27.398438 25 C 26.96875 25.203125 26.523438 25.378906 26.066406 25.535156 C 25.953125 25.789062 25.910156 26.054688 25.933594 26.332031 C 25.265625 26.355469 24.597656 26.332031 23.933594 26.265625 C 19.554688 25.011719 15.113281 24.703125 10.601562 25.332031 C 9.707031 25.800781 8.996094 25.597656 8.464844 24.734375 C 8.832031 24.882812 9.207031 25.015625 9.601562 25.132812 C 9.839844 25.132812 10.042969 25.046875 10.199219 24.867188 C 10.289062 24.957031 10.378906 25.042969 10.464844 25.132812 C 11.0625 25.050781 11.640625 24.960938 12.199219 24.867188 C 14.511719 24.71875 16.824219 24.761719 19.132812 25 C 19.152344 24.785156 19.0625 24.628906 18.867188 24.535156 C 18.457031 24.488281 18.054688 24.398438 17.667969 24.265625 C 17.511719 24 17.421875 23.710938 17.398438 23.398438 C 17.488281 23.398438 17.578125 23.398438 17.667969 23.398438 C 17.84375 23.535156 18.023438 23.667969 18.199219 23.800781 C 18.304688 23.972656 18.4375 24.128906 18.601562 24.265625 C 20.457031 25.285156 22.28125 25.242188 24.066406 24.132812 C 25.003906 23.308594 25.226562 22.355469 24.734375 21.265625 C 24.734375 21.046875 24.648438 20.871094 24.464844 20.734375 C 24.863281 20.621094 25.265625 20.53125 25.667969 20.464844 C 25.257812 20.992188 25.167969 21.570312 25.398438 22.199219 C 25.304688 22.734375 25.191406 23.269531 25.066406 23.800781 C 24.738281 23.996094 24.449219 24.238281 24.199219 24.535156 C 23.871094 24.539062 23.601562 24.648438 23.398438 24.867188 C 22.347656 25.15625 22.347656 25.46875 23.398438 25.800781 C 24.105469 25.933594 24.816406 25.976562 25.535156 25.933594 C 25.46875 25.550781 25.605469 25.285156 25.933594 25.132812 C 26.3125 25.246094 26.667969 25.15625 27 24.867188 C 26.589844 24.675781 26.300781 24.363281 26.132812 23.933594 C 25.84375 22.8125 25.867188 21.703125 26.199219 20.601562 C 26.347656 20.453125 26.523438 20.363281 26.734375 20.332031 Z M 26.734375 20.332031 "/>
<path style=" stroke:none;fill-rule:evenodd;fill:rgb(98.039216%,85.098039%,47.058824%);fill-opacity:1;" d="M 25.667969 20.464844 C 25.878906 20.429688 26.058594 20.476562 26.199219 20.601562 C 25.867188 21.703125 25.84375 22.8125 26.132812 23.933594 C 26.300781 24.363281 26.589844 24.675781 27 24.867188 C 26.667969 25.15625 26.3125 25.246094 25.933594 25.132812 C 25.078125 24.980469 24.234375 24.890625 23.398438 24.867188 C 23.601562 24.648438 23.871094 24.539062 24.199219 24.535156 C 24.449219 24.238281 24.738281 23.996094 25.066406 23.800781 C 25.191406 23.269531 25.304688 22.734375 25.398438 22.199219 C 25.167969 21.570312 25.257812 20.992188 25.667969 20.464844 Z M 25.667969 20.464844 "/>
<path style=" stroke:none;fill-rule:evenodd;fill:rgb(93.333333%,69.019608%,34.901961%);fill-opacity:1;" d="M 21.535156 23.667969 C 21.933594 23.667969 22.332031 23.667969 22.734375 23.667969 C 22.734375 23.800781 22.734375 23.933594 22.734375 24.066406 C 22.113281 24.171875 21.492188 24.195312 20.867188 24.132812 C 20.804688 24.078125 20.761719 24.011719 20.734375 23.933594 C 21.015625 23.84375 21.285156 23.753906 21.535156 23.667969 Z M 21.535156 23.667969 "/>
<path style=" stroke:none;fill-rule:evenodd;fill:rgb(67.843137%,50.980392%,38.823529%);fill-opacity:1;" d="M 21.535156 23.535156 C 21.535156 23.578125 21.535156 23.621094 21.535156 23.667969 C 20.949219 23.625 20.371094 23.667969 19.800781 23.800781 C 20.023438 23.886719 20.203125 24.019531 20.332031 24.199219 C 19.757812 24.070312 19.226562 23.824219 18.734375 23.464844 C 19.660156 23.511719 20.59375 23.535156 21.535156 23.535156 Z M 21.535156 23.535156 "/>
<path style=" stroke:none;fill-rule:evenodd;fill:rgb(94.901961%,76.470588%,33.72549%);fill-opacity:1;" d="M 23.398438 24.867188 C 24.234375 24.890625 25.078125 24.980469 25.933594 25.132812 C 25.605469 25.285156 25.46875 25.550781 25.535156 25.933594 C 24.816406 25.976562 24.105469 25.933594 23.398438 25.800781 C 22.347656 25.46875 22.347656 25.15625 23.398438 24.867188 Z M 23.398438 24.867188 "/>
<path style=" stroke:none;fill-rule:evenodd;fill:rgb(76.862745%,44.705882%,28.235294%);fill-opacity:1;" d="M -0.0664062 24.332031 C 1.519531 24.402344 3.097656 24.535156 4.667969 24.734375 C 5.316406 24.722656 5.960938 24.675781 6.601562 24.601562 C 6.621094 25.3125 6.601562 26.023438 6.535156 26.734375 C 6.464844 26.800781 6.398438 26.867188 6.332031 26.933594 C 5.617188 26.867188 4.90625 26.753906 4.199219 26.601562 C 3.886719 26.632812 3.617188 26.542969 3.398438 26.332031 C 3.339844 26.207031 3.25 26.09375 3.132812 26 C 2.089844 25.695312 1.023438 25.496094 -0.0664062 25.398438 C -0.0664062 25.042969 -0.0664062 24.6875 -0.0664062 24.332031 Z M -0.0664062 24.332031 "/>
<path style=" stroke:none;fill-rule:evenodd;fill:rgb(62.352941%,42.745098%,34.117647%);fill-opacity:1;" d="M -0.0664062 25.535156 C -0.0664062 25.488281 -0.0664062 25.445312 -0.0664062 25.398438 C 1.023438 25.496094 2.089844 25.695312 3.132812 26 C 3.25 26.09375 3.339844 26.207031 3.398438 26.332031 C 2.253906 26.066406 1.097656 25.800781 -0.0664062 25.535156 Z M -0.0664062 25.535156 "/>
<path style=" stroke:none;fill-rule:evenodd;fill:rgb(12.156863%,12.156863%,12.156863%);fill-opacity:1;" d="M 13.265625 25.800781 C 15.636719 25.722656 17.992188 25.878906 20.332031 26.265625 C 21.777344 26.515625 23.199219 26.824219 24.601562 27.199219 C 25.882812 27.414062 27.171875 27.589844 28.464844 27.734375 C 27.71875 28.191406 26.898438 28.433594 26 28.464844 C 24.191406 28.210938 22.433594 27.789062 20.734375 27.199219 C 19.589844 26.921875 18.457031 26.941406 17.332031 27.265625 C 14.457031 28.414062 11.5 28.636719 8.464844 27.933594 C 8.332031 27.710938 8.15625 27.535156 7.933594 27.398438 C 8.25 27.09375 8.605469 26.851562 9 26.667969 C 10.398438 26.226562 11.820312 25.9375 13.265625 25.800781 Z M 13.265625 25.800781 "/>
<path style=" stroke:none;fill-rule:evenodd;fill:rgb(62.352941%,81.568627%,89.019608%);fill-opacity:1;" d="M 29.265625 24.332031 C 29.828125 24.636719 30.316406 25.039062 30.734375 25.535156 C 29.617188 25.128906 29.550781 25.351562 30.535156 26.199219 C 30.644531 26.871094 30.621094 27.539062 30.464844 28.199219 C 30.347656 28.089844 30.304688 27.957031 30.332031 27.800781 C 30.199219 27.800781 30.066406 27.800781 29.933594 27.800781 C 29.910156 28.824219 29.933594 29.84375 30 30.867188 C 30.335938 31.140625 30.492188 31.496094 30.464844 31.933594 C 30.378906 31.933594 30.289062 31.933594 30.199219 31.933594 C 29.996094 31.300781 29.683594 30.722656 29.265625 30.199219 C 29.570312 29.496094 29.617188 28.761719 29.398438 28 C 29.882812 27.496094 30.082031 26.898438 30 26.199219 C 29.460938 25.902344 28.90625 25.636719 28.332031 25.398438 C 28.652344 25.039062 28.960938 24.683594 29.265625 24.332031 Z M 29.265625 24.332031 "/>
<path style=" stroke:none;fill-rule:evenodd;fill:rgb(60%,85.490196%,95.686275%);fill-opacity:1;" d="M 30.734375 25.535156 C 31.078125 25.8125 31.480469 25.992188 31.933594 26.066406 C 31.933594 28.023438 31.933594 29.976562 31.933594 31.933594 C 31.445312 31.933594 30.957031 31.933594 30.464844 31.933594 C 30.492188 31.496094 30.335938 31.140625 30 30.867188 C 29.933594 29.84375 29.910156 28.824219 29.933594 27.800781 C 30.066406 27.800781 30.199219 27.800781 30.332031 27.800781 C 30.304688 27.957031 30.347656 28.089844 30.464844 28.199219 C 30.621094 27.539062 30.644531 26.871094 30.535156 26.199219 C 29.550781 25.351562 29.617188 25.128906 30.734375 25.535156 Z M 30.734375 25.535156 "/>
<path style=" stroke:none;fill-rule:evenodd;fill:rgb(10.980392%,4.313725%,3.529412%);fill-opacity:1;" d="M 7.265625 20.066406 C 7.125 20.191406 6.945312 20.234375 6.734375 20.199219 C 6.691406 20.671875 6.734375 21.117188 6.867188 21.535156 C 7 22.421875 7.265625 23.265625 7.667969 24.066406 C 7.488281 23.957031 7.355469 23.800781 7.265625 23.601562 C 7.140625 23.535156 7.007812 23.511719 6.867188 23.535156 C 6.910156 22.964844 6.800781 22.433594 6.535156 21.933594 C 6.542969 22.507812 6.566406 23.085938 6.601562 23.667969 C 5.90625 23.742188 5.238281 23.921875 4.601562 24.199219 C 4.734375 24.246094 4.867188 24.289062 5 24.332031 C 5.785156 24.261719 6.5625 24.171875 7.332031 24.066406 C 8.144531 24.421875 8.1875 24.777344 7.464844 25.132812 C 7.296875 26.40625 7.140625 27.652344 7 28.867188 C 7 29.089844 7 29.3125 7 29.535156 C 7.691406 29.492188 8.359375 29.535156 9 29.667969 C 8.289062 29.644531 7.578125 29.667969 6.867188 29.734375 C 7.007812 29.890625 7.1875 29.957031 7.398438 29.933594 C 7.410156 30.617188 7.320312 31.28125 7.132812 31.933594 C 7.089844 31.933594 7.042969 31.933594 7 31.933594 C 7.003906 31.296875 7.09375 30.675781 7.265625 30.066406 C 7 30.082031 6.777344 29.992188 6.601562 29.800781 C 6.585938 29.261719 6.628906 28.726562 6.734375 28.199219 C 5.703125 27.972656 4.679688 27.707031 3.667969 27.398438 C 2.695312 27.066406 1.71875 26.734375 0.734375 26.398438 C 0.46875 26.335938 0.203125 26.3125 -0.0664062 26.332031 C -0.0664062 26.066406 -0.0664062 25.800781 -0.0664062 25.535156 C 1.097656 25.800781 2.253906 26.066406 3.398438 26.332031 C 3.617188 26.542969 3.886719 26.632812 4.199219 26.601562 C 4.804688 26.867188 5.425781 27.113281 6.066406 27.332031 C 6.328125 27.398438 6.597656 27.421875 6.867188 27.398438 C 6.84375 26.730469 6.867188 26.066406 6.933594 25.398438 C 7.203125 25.050781 7.179688 24.714844 6.867188 24.398438 C 5.492188 24.457031 4.113281 24.457031 2.734375 24.398438 C 1.957031 24.261719 1.203125 24.0625 0.464844 23.800781 C 0.679688 23.492188 0.988281 23.355469 1.398438 23.398438 C 1.378906 23.132812 1.464844 22.914062 1.667969 22.734375 C 2.128906 22.488281 2.617188 22.355469 3.132812 22.332031 C 3.132812 22.199219 3.132812 22.066406 3.132812 21.933594 C 3.800781 21.933594 4.46875 21.886719 5.132812 21.800781 C 5.515625 21.785156 5.871094 21.875 6.199219 22.066406 C 6.292969 21.996094 6.359375 21.90625 6.398438 21.800781 C 6.496094 21.128906 6.609375 20.464844 6.734375 19.800781 C 6.882812 19.949219 7.0625 20.039062 7.265625 20.066406 Z M 7.265625 20.066406 "/>
<path style=" stroke:none;fill-rule:evenodd;fill:rgb(64.705882%,43.137255%,35.686275%);fill-opacity:1;" d="M 5.933594 22.332031 C 5.738281 22.28125 5.539062 22.238281 5.332031 22.199219 C 4.652344 22.359375 3.964844 22.472656 3.265625 22.535156 C 2.9375 22.722656 2.628906 22.921875 2.332031 23.132812 C 2.402344 23.226562 2.492188 23.292969 2.601562 23.332031 C 3.753906 23.398438 4.910156 23.421875 6.066406 23.398438 C 6.066406 23.222656 6.066406 23.042969 6.066406 22.867188 C 6.257812 23.039062 6.347656 23.257812 6.332031 23.535156 C 4.761719 23.765625 3.207031 23.695312 1.667969 23.332031 C 1.503906 23.214844 1.503906 23.101562 1.667969 23 C 2.179688 22.800781 2.667969 22.578125 3.132812 22.332031 C 3.769531 22.191406 4.414062 22.101562 5.066406 22.066406 C 5.414062 22.070312 5.703125 22.160156 5.933594 22.332031 Z M 5.933594 22.332031 "/>
<path style=" stroke:none;fill-rule:evenodd;fill:rgb(76.078431%,43.137255%,28.235294%);fill-opacity:1;" d="M 5.933594 22.332031 C 6.058594 22.476562 6.101562 22.652344 6.066406 22.867188 C 6.066406 23.042969 6.066406 23.222656 6.066406 23.398438 C 4.910156 23.421875 3.753906 23.398438 2.601562 23.332031 C 2.492188 23.292969 2.402344 23.226562 2.332031 23.132812 C 2.628906 22.921875 2.9375 22.722656 3.265625 22.535156 C 3.964844 22.472656 4.652344 22.359375 5.332031 22.199219 C 5.539062 22.238281 5.738281 22.28125 5.933594 22.332031 Z M 5.933594 22.332031 "/>
<path style=" stroke:none;fill-rule:evenodd;fill:rgb(61.960784%,39.607843%,31.764706%);fill-opacity:1;" d="M 3.667969 27.398438 C 4.679688 27.707031 5.703125 27.972656 6.734375 28.199219 C 6.628906 28.726562 6.585938 29.261719 6.601562 29.800781 C 6.585938 29.246094 6.363281 28.777344 5.933594 28.398438 C 5.121094 28.125 4.367188 27.792969 3.667969 27.398438 Z M 3.667969 27.398438 "/>
<path style=" stroke:none;fill-rule:evenodd;fill:rgb(76.470588%,44.705882%,29.411765%);fill-opacity:1;" d="M -0.0664062 26.332031 C 0.203125 26.3125 0.46875 26.335938 0.734375 26.398438 C 1.71875 26.734375 2.695312 27.066406 3.667969 27.398438 C 4.367188 27.792969 5.121094 28.125 5.933594 28.398438 C 6.363281 28.777344 6.585938 29.246094 6.601562 29.800781 C 6.777344 29.992188 7 30.082031 7.265625 30.066406 C 7.09375 30.675781 7.003906 31.296875 7 31.933594 C 6.644531 31.933594 6.289062 31.933594 5.933594 31.933594 C 5.777344 31.507812 5.507812 31.152344 5.132812 30.867188 C 4.050781 30.394531 2.984375 29.882812 1.933594 29.332031 C 1.269531 29.265625 0.601562 29.246094 -0.0664062 29.265625 C -0.0664062 28.289062 -0.0664062 27.3125 -0.0664062 26.332031 Z M -0.0664062 26.332031 "/>
<path style=" stroke:none;fill-rule:evenodd;fill:rgb(81.960784%,81.960784%,81.960784%);fill-opacity:1;" d="M 9.667969 28.601562 C 11.082031 28.683594 12.148438 29.304688 12.867188 30.464844 C 12.855469 30.820312 12.945312 31.132812 13.132812 31.398438 C 13.132812 31.578125 13.132812 31.753906 13.132812 31.933594 C 12.867188 31.933594 12.601562 31.933594 12.332031 31.933594 C 12.355469 31.664062 12.332031 31.394531 12.265625 31.132812 C 11.976562 30.871094 11.777344 30.558594 11.667969 30.199219 C 11.214844 30.039062 10.769531 29.839844 10.332031 29.601562 C 9.394531 29.375 8.460938 29.109375 7.535156 28.800781 C 8.230469 28.621094 8.941406 28.554688 9.667969 28.601562 Z M 9.667969 28.601562 "/>
<path style=" stroke:none;fill-rule:evenodd;fill:rgb(81.176471%,81.568627%,81.176471%);fill-opacity:1;" d="M 27.933594 28.601562 C 28.203125 28.578125 28.46875 28.601562 28.734375 28.667969 C 28.851562 28.847656 28.894531 29.046875 28.867188 29.265625 C 28.421875 29.246094 27.976562 29.265625 27.535156 29.332031 C 27.214844 29.570312 26.859375 29.722656 26.464844 29.800781 C 26.15625 30.175781 25.824219 30.53125 25.464844 30.867188 C 25.429688 31.253906 25.320312 31.609375 25.132812 31.933594 C 24.867188 31.933594 24.601562 31.933594 24.332031 31.933594 C 24.792969 30.050781 25.992188 28.941406 27.933594 28.601562 Z M 27.933594 28.601562 "/>
<path style=" stroke:none;fill-rule:evenodd;fill:rgb(69.411765%,69.411765%,69.411765%);fill-opacity:1;" d="M 9.667969 28.601562 C 8.941406 28.554688 8.230469 28.621094 7.535156 28.800781 C 8.460938 29.109375 9.394531 29.375 10.332031 29.601562 C 10.769531 29.839844 11.214844 30.039062 11.667969 30.199219 C 11.777344 30.558594 11.976562 30.871094 12.265625 31.132812 C 12.332031 31.394531 12.355469 31.664062 12.332031 31.933594 C 12.199219 31.933594 12.066406 31.933594 11.933594 31.933594 C 11.867188 31.574219 11.730469 31.242188 11.535156 30.933594 C 10.796875 30.296875 9.949219 29.875 9 29.667969 C 8.359375 29.535156 7.691406 29.492188 7 29.535156 C 7 29.3125 7 29.089844 7 28.867188 C 7.148438 28.785156 7.285156 28.671875 7.398438 28.535156 C 8.179688 28.425781 8.933594 28.445312 9.667969 28.601562 Z M 9.667969 28.601562 "/>
<path style=" stroke:none;fill-rule:evenodd;fill:rgb(66.27451%,42.352941%,32.941176%);fill-opacity:1;" d="M -0.0664062 29.398438 C -0.0664062 29.355469 -0.0664062 29.3125 -0.0664062 29.265625 C 0.601562 29.246094 1.269531 29.265625 1.933594 29.332031 C 2.984375 29.882812 4.050781 30.394531 5.132812 30.867188 C 5.507812 31.152344 5.777344 31.507812 5.933594 31.933594 C 5.84375 31.933594 5.753906 31.933594 5.667969 31.933594 C 4.039062 30.476562 2.125 29.628906 -0.0664062 29.398438 Z M -0.0664062 29.398438 "/>
<path style=" stroke:none;fill-rule:evenodd;fill:rgb(11.764706%,3.137255%,2.352941%);fill-opacity:1;" d="M -0.0664062 29.398438 C 2.125 29.628906 4.039062 30.476562 5.667969 31.933594 C 5.222656 31.933594 4.777344 31.933594 4.332031 31.933594 C 3.0625 30.914062 1.59375 30.335938 -0.0664062 30.199219 C -0.0664062 29.933594 -0.0664062 29.667969 -0.0664062 29.398438 Z M -0.0664062 29.398438 "/>
<path style=" stroke:none;fill-rule:evenodd;fill:rgb(13.72549%,13.72549%,13.72549%);fill-opacity:1;" d="M 23.132812 30.199219 C 22.085938 30.496094 21.019531 30.785156 19.933594 31.066406 C 17.804688 31.125 15.714844 30.835938 13.667969 30.199219 C 13.542969 30.207031 13.457031 30.25 13.398438 30.332031 C 13.332031 30.183594 13.285156 30.027344 13.265625 29.867188 C 13.488281 29.84375 13.710938 29.824219 13.933594 29.800781 C 16.988281 30.164062 20.054688 30.296875 23.132812 30.199219 Z M 23.132812 30.199219 "/>
<path style=" stroke:none;fill-rule:evenodd;fill:rgb(70.588235%,70.588235%,70.588235%);fill-opacity:1;" d="M 27.933594 28.601562 C 28.257812 28.46875 28.617188 28.425781 29 28.464844 C 29 28.824219 29 29.175781 29 29.535156 C 28.132812 29.679688 27.332031 30.011719 26.601562 30.535156 C 26.035156 30.839844 25.726562 31.304688 25.667969 31.933594 C 25.488281 31.933594 25.3125 31.933594 25.132812 31.933594 C 25.320312 31.609375 25.429688 31.253906 25.464844 30.867188 C 25.824219 30.53125 26.15625 30.175781 26.464844 29.800781 C 26.859375 29.722656 27.214844 29.570312 27.535156 29.332031 C 27.976562 29.265625 28.421875 29.246094 28.867188 29.265625 C 28.894531 29.046875 28.851562 28.847656 28.734375 28.667969 C 28.46875 28.601562 28.203125 28.578125 27.933594 28.601562 Z M 27.933594 28.601562 "/>
<path style=" stroke:none;fill-rule:evenodd;fill:rgb(69.019608%,44.313725%,35.686275%);fill-opacity:1;" d="M -0.0664062 30.199219 C 1.59375 30.335938 3.0625 30.914062 4.332031 31.933594 C 4.109375 31.933594 3.890625 31.933594 3.667969 31.933594 C 3.679688 31.800781 3.632812 31.691406 3.535156 31.601562 C 3.179688 31.535156 2.824219 31.511719 2.464844 31.535156 C 2.503906 31.273438 2.414062 31.074219 2.199219 30.933594 C 1.453125 30.757812 0.695312 30.644531 -0.0664062 30.601562 C -0.0664062 30.464844 -0.0664062 30.332031 -0.0664062 30.199219 Z M -0.0664062 30.199219 "/>
<path style=" stroke:none;fill-rule:evenodd;fill:rgb(4.313725%,4.313725%,4.313725%);fill-opacity:1;" d="M 9 29.667969 C 9.949219 29.875 10.796875 30.296875 11.535156 30.933594 C 11.730469 31.242188 11.867188 31.574219 11.933594 31.933594 C 11.535156 31.933594 11.132812 31.933594 10.734375 31.933594 C 10.148438 30.820312 9.214844 30.332031 7.933594 30.464844 C 7.925781 30.960938 7.882812 31.449219 7.800781 31.933594 C 7.578125 31.933594 7.355469 31.933594 7.132812 31.933594 C 7.320312 31.28125 7.410156 30.617188 7.398438 29.933594 C 7.1875 29.957031 7.007812 29.890625 6.867188 29.734375 C 7.578125 29.667969 8.289062 29.644531 9 29.667969 Z M 9 29.667969 "/>
<path style=" stroke:none;fill-rule:evenodd;fill:rgb(76.862745%,45.098039%,28.627451%);fill-opacity:1;" d="M -0.0664062 30.601562 C 0.695312 30.644531 1.453125 30.757812 2.199219 30.933594 C 2.414062 31.074219 2.503906 31.273438 2.464844 31.535156 C 2.824219 31.511719 3.179688 31.535156 3.535156 31.601562 C 3.632812 31.691406 3.679688 31.800781 3.667969 31.933594 C 2.421875 31.933594 1.179688 31.933594 -0.0664062 31.933594 C -0.0664062 31.488281 -0.0664062 31.042969 -0.0664062 30.601562 Z M -0.0664062 30.601562 "/>
<path style=" stroke:none;fill-rule:evenodd;fill:rgb(12.156863%,12.156863%,12.156863%);fill-opacity:1;" d="M 10.734375 31.933594 C 9.753906 31.933594 8.777344 31.933594 7.800781 31.933594 C 7.882812 31.449219 7.925781 30.960938 7.933594 30.464844 C 9.214844 30.332031 10.148438 30.820312 10.734375 31.933594 Z M 10.734375 31.933594 "/>
<path style=" stroke:none;fill-rule:evenodd;fill:rgb(69.411765%,69.411765%,69.411765%);fill-opacity:1;" d="M 24.066406 30.601562 C 22.515625 30.957031 20.960938 31.289062 19.398438 31.601562 C 19.183594 31.632812 19.050781 31.742188 19 31.933594 C 18.867188 31.933594 18.734375 31.933594 18.601562 31.933594 C 18.511719 31.769531 18.359375 31.679688 18.132812 31.667969 C 16.589844 31.375 15.058594 31.0625 13.535156 30.734375 C 13.414062 30.640625 13.367188 30.503906 13.398438 30.332031 C 13.457031 30.25 13.542969 30.207031 13.667969 30.199219 C 15.714844 30.835938 17.804688 31.125 19.933594 31.066406 C 21.019531 30.785156 22.085938 30.496094 23.132812 30.199219 C 23.585938 30.109375 24.03125 30.109375 24.464844 30.199219 C 24.375 30.378906 24.242188 30.515625 24.066406 30.601562 Z M 24.066406 30.601562 "/>
<path style=" stroke:none;fill-rule:evenodd;fill:rgb(12.156863%,12.156863%,12.156863%);fill-opacity:1;" d="M 29.265625 31.933594 C 28.378906 31.933594 27.488281 31.933594 26.601562 31.933594 C 26.695312 31.636719 26.871094 31.394531 27.132812 31.199219 C 27.5625 30.964844 28.007812 30.761719 28.464844 30.601562 C 28.554688 30.644531 28.644531 30.6875 28.734375 30.734375 C 28.921875 31.136719 29.097656 31.539062 29.265625 31.933594 Z M 29.265625 31.933594 "/>
<path style=" stroke:none;fill-rule:evenodd;fill:rgb(13.333333%,13.333333%,13.333333%);fill-opacity:1;" d="M 13.535156 30.734375 C 15.058594 31.0625 16.589844 31.375 18.132812 31.667969 C 18.359375 31.679688 18.511719 31.769531 18.601562 31.933594 C 16.957031 31.933594 15.3125 31.933594 13.667969 31.933594 C 13.664062 31.527344 13.621094 31.128906 13.535156 30.734375 Z M 13.535156 30.734375 "/>
<path style=" stroke:none;fill-rule:evenodd;fill:rgb(39.215686%,39.215686%,39.215686%);fill-opacity:1;" d="M 12.867188 30.464844 C 13.054688 30.734375 13.144531 31.046875 13.132812 31.398438 C 12.945312 31.132812 12.855469 30.820312 12.867188 30.464844 Z M 12.867188 30.464844 "/>
<path style=" stroke:none;fill-rule:evenodd;fill:rgb(12.54902%,12.54902%,12.54902%);fill-opacity:1;" d="M 24.066406 30.601562 C 24.015625 31.074219 23.882812 31.515625 23.667969 31.933594 C 22.109375 31.933594 20.554688 31.933594 19 31.933594 C 19.050781 31.742188 19.183594 31.632812 19.398438 31.601562 C 20.960938 31.289062 22.515625 30.957031 24.066406 30.601562 Z M 24.066406 30.601562 "/>
</g>
</svg>
