<?xml version="1.0" encoding="UTF-8"?>
<svg xmlns="http://www.w3.org/2000/svg" xmlns:xlink="http://www.w3.org/1999/xlink" width="16px" height="16px" viewBox="0 0 16 16" version="1.1">
<g id="surface1">
<path style=" stroke:none;fill-rule:evenodd;fill:rgb(92.54902%,58.823529%,85.098039%);fill-opacity:1;" d="M -0.0351562 -0.0351562 C 0.566406 -0.0351562 1.167969 -0.0351562 1.765625 -0.0351562 C 1.859375 0.160156 1.992188 0.328125 2.167969 0.464844 C 2.554688 0.6875 2.910156 0.941406 3.234375 1.234375 C 3.273438 1.347656 3.339844 1.449219 3.433594 1.535156 C 3.878906 1.769531 4.300781 2.035156 4.699219 2.332031 C 5.125 2.679688 5.324219 3.136719 5.300781 3.699219 C 5.277344 3.699219 5.253906 3.699219 5.234375 3.699219 C 5.011719 3.6875 4.789062 3.699219 4.566406 3.734375 C 4.417969 3.890625 4.261719 4.042969 4.101562 4.199219 C 3.988281 4.246094 3.878906 4.246094 3.765625 4.199219 C 3.652344 3.941406 3.449219 3.820312 3.167969 3.832031 C 3.144531 3.730469 3.078125 3.6875 2.964844 3.699219 C 2.917969 3.621094 2.894531 3.53125 2.898438 3.433594 C 2.527344 3.273438 2.25 3.007812 2.066406 2.632812 C 2.039062 2.664062 2.003906 2.6875 1.964844 2.699219 C 1.636719 2.605469 1.371094 2.414062 1.167969 2.132812 C 1.058594 2.101562 0.945312 2.089844 0.832031 2.101562 C 0.847656 1.992188 0.824219 1.890625 0.765625 1.800781 C 0.507812 1.667969 0.242188 1.566406 -0.0351562 1.5 C -0.0351562 0.988281 -0.0351562 0.476562 -0.0351562 -0.0351562 Z M -0.0351562 -0.0351562 "/>
<path style=" stroke:none;fill-rule:evenodd;fill:rgb(83.137255%,92.54902%,92.54902%);fill-opacity:1;" d="M 1.898438 -0.0351562 C 6.589844 -0.0351562 11.277344 -0.0351562 15.964844 -0.0351562 C 15.964844 4.320312 15.964844 8.679688 15.964844 13.035156 C 15.738281 12.996094 15.539062 12.90625 15.367188 12.765625 C 15.160156 12.519531 14.914062 12.320312 14.632812 12.167969 C 15.027344 11.53125 15.160156 10.84375 15.035156 10.101562 C 15.039062 9.972656 15.015625 9.851562 14.964844 9.734375 C 15.4375 9.410156 15.726562 8.96875 15.832031 8.398438 C 15.75 7.195312 15.339844 6.117188 14.601562 5.167969 C 13.628906 4.0625 12.460938 3.230469 11.101562 2.667969 C 9.996094 2.144531 9.140625 2.402344 8.535156 3.433594 C 8.4375 3.273438 8.292969 3.171875 8.101562 3.132812 C 7.617188 3.03125 7.125 3.011719 6.632812 3.066406 C 6.285156 3.230469 5.929688 3.375 5.566406 3.5 C 5.585938 3.082031 5.519531 2.683594 5.367188 2.300781 C 5.210938 2.300781 5.078125 2.246094 4.964844 2.132812 C 4.773438 1.757812 4.464844 1.589844 4.035156 1.632812 C 3.871094 1.589844 3.757812 1.492188 3.699219 1.332031 C 3.589844 1.292969 3.480469 1.257812 3.367188 1.234375 C 3.285156 1.089844 3.164062 1.003906 3 0.964844 C 2.902344 0.699219 2.714844 0.535156 2.433594 0.464844 C 2.378906 0.398438 2.355469 0.320312 2.367188 0.234375 C 2.117188 0.289062 1.964844 0.199219 1.898438 -0.0351562 Z M 1.898438 -0.0351562 "/>
<path style=" stroke:none;fill-rule:evenodd;fill:rgb(89.803922%,84.313725%,93.72549%);fill-opacity:1;" d="M 1.765625 -0.0351562 C 1.8125 -0.0351562 1.855469 -0.0351562 1.898438 -0.0351562 C 1.964844 0.199219 2.117188 0.289062 2.367188 0.234375 C 2.355469 0.320312 2.378906 0.398438 2.433594 0.464844 C 2.714844 0.535156 2.902344 0.699219 3 0.964844 C 3.164062 1.003906 3.285156 1.089844 3.367188 1.234375 C 3.320312 1.234375 3.277344 1.234375 3.234375 1.234375 C 2.910156 0.941406 2.554688 0.6875 2.167969 0.464844 C 1.992188 0.328125 1.859375 0.160156 1.765625 -0.0351562 Z M 1.765625 -0.0351562 "/>
<path style=" stroke:none;fill-rule:evenodd;fill:rgb(88.235294%,88.627451%,94.901961%);fill-opacity:1;" d="M 3.367188 1.234375 C 3.480469 1.257812 3.589844 1.292969 3.699219 1.332031 C 3.757812 1.492188 3.871094 1.589844 4.035156 1.632812 C 4.464844 1.589844 4.773438 1.757812 4.964844 2.132812 C 5.078125 2.246094 5.210938 2.300781 5.367188 2.300781 C 5.519531 2.683594 5.585938 3.082031 5.566406 3.5 C 5.566406 3.542969 5.542969 3.566406 5.5 3.566406 C 5.445312 3.285156 5.390625 2.996094 5.332031 2.699219 C 4.746094 2.292969 4.15625 1.882812 3.566406 1.464844 C 3.484375 1.398438 3.417969 1.320312 3.367188 1.234375 Z M 3.367188 1.234375 "/>
<path style=" stroke:none;fill-rule:evenodd;fill:rgb(83.921569%,64.705882%,87.058824%);fill-opacity:1;" d="M -0.0351562 1.566406 C -0.0351562 1.542969 -0.0351562 1.523438 -0.0351562 1.5 C 0.242188 1.566406 0.507812 1.667969 0.765625 1.800781 C 0.824219 1.890625 0.847656 1.992188 0.832031 2.101562 C 0.945312 2.089844 1.058594 2.101562 1.167969 2.132812 C 1.371094 2.414062 1.636719 2.605469 1.964844 2.699219 C 2.003906 2.6875 2.039062 2.664062 2.066406 2.632812 C 2.25 3.007812 2.527344 3.273438 2.898438 3.433594 C 2.894531 3.53125 2.917969 3.621094 2.964844 3.699219 C 2.769531 3.535156 2.546875 3.402344 2.300781 3.300781 C 2.058594 3.171875 1.855469 2.984375 1.699219 2.734375 C 1.132812 2.425781 0.621094 2.050781 0.167969 1.601562 C 0.101562 1.566406 0.0351562 1.558594 -0.0351562 1.566406 Z M -0.0351562 1.566406 "/>
<path style=" stroke:none;fill-rule:evenodd;fill:rgb(60.392157%,85.490196%,94.509804%);fill-opacity:1;" d="M -0.0351562 1.566406 C 0.0351562 1.558594 0.101562 1.566406 0.167969 1.601562 C 0.621094 2.050781 1.132812 2.425781 1.699219 2.734375 C 1.855469 2.984375 2.058594 3.171875 2.300781 3.300781 C 2.28125 3.417969 2.304688 3.53125 2.367188 3.632812 C 2.488281 3.628906 2.621094 3.652344 2.765625 3.699219 C 2.75 3.832031 2.773438 3.953125 2.832031 4.066406 C 3.035156 4.113281 3.222656 4.191406 3.398438 4.300781 C 3.480469 4.523438 3.425781 4.6875 3.234375 4.800781 C 3.285156 4.84375 3.304688 4.898438 3.300781 4.964844 C 2.484375 5.671875 1.816406 6.492188 1.300781 7.433594 C 1.308594 7.363281 1.300781 7.296875 1.265625 7.234375 C 1.117188 7.351562 0.949219 7.386719 0.765625 7.332031 C 0.574219 7.222656 0.394531 7.089844 0.234375 6.933594 C 0.148438 6.902344 0.0585938 6.890625 -0.0351562 6.898438 C -0.0351562 5.121094 -0.0351562 3.34375 -0.0351562 1.566406 Z M -0.0351562 1.566406 "/>
<path style=" stroke:none;fill-rule:evenodd;fill:rgb(85.490196%,64.313725%,82.352941%);fill-opacity:1;" d="M 3.234375 1.234375 C 3.277344 1.234375 3.320312 1.234375 3.367188 1.234375 C 3.417969 1.320312 3.484375 1.398438 3.566406 1.464844 C 4.15625 1.882812 4.746094 2.292969 5.332031 2.699219 C 5.390625 2.996094 5.445312 3.285156 5.5 3.566406 C 5.449219 3.625 5.378906 3.671875 5.300781 3.699219 C 5.324219 3.136719 5.125 2.679688 4.699219 2.332031 C 4.300781 2.035156 3.878906 1.769531 3.433594 1.535156 C 3.339844 1.449219 3.273438 1.347656 3.234375 1.234375 Z M 3.234375 1.234375 "/>
<path style=" stroke:none;fill-rule:evenodd;fill:rgb(5.098039%,5.490196%,5.882353%);fill-opacity:1;" d="M 15.035156 10.101562 C 14.9375 9.894531 14.871094 9.671875 14.832031 9.433594 C 14.863281 9.367188 14.910156 9.3125 14.964844 9.265625 C 14.882812 9.25 14.816406 9.21875 14.765625 9.167969 C 14.894531 9.179688 14.992188 9.136719 15.066406 9.035156 C 15.40625 8.617188 15.460938 8.171875 15.234375 7.699219 C 15.234375 7.679688 15.234375 7.65625 15.234375 7.632812 C 15.125 6.984375 14.890625 6.386719 14.535156 5.832031 C 13.882812 5.015625 13.117188 4.351562 12.234375 3.832031 C 11.695312 3.421875 11.09375 3.132812 10.433594 2.964844 C 9.859375 2.757812 9.417969 2.910156 9.101562 3.433594 C 9.035156 3.519531 8.96875 3.609375 8.898438 3.699219 C 8.738281 3.710938 8.59375 3.667969 8.464844 3.566406 C 8.398438 3.609375 8.332031 3.65625 8.265625 3.699219 C 7.78125 3.515625 7.28125 3.460938 6.765625 3.535156 C 6.300781 3.714844 5.855469 3.925781 5.433594 4.167969 C 3.675781 4.992188 2.386719 6.28125 1.566406 8.035156 C 1.671875 8.175781 1.804688 8.285156 1.964844 8.367188 C 2.003906 8.027344 2.117188 7.714844 2.300781 7.433594 C 2.359375 7.394531 2.425781 7.371094 2.5 7.367188 C 2.734375 7.507812 2.757812 7.6875 2.566406 7.898438 C 2.476562 8.554688 2.476562 9.222656 2.566406 9.898438 C 2.945312 9.800781 3.3125 9.664062 3.667969 9.5 C 3.699219 9.144531 3.710938 8.789062 3.699219 8.433594 C 3.722656 7.777344 3.855469 7.140625 4.101562 6.535156 C 4.140625 6.445312 4.207031 6.390625 4.300781 6.367188 C 4.484375 6.339844 4.570312 6.417969 4.566406 6.601562 C 4.453125 6.792969 4.386719 7.003906 4.367188 7.234375 C 4.316406 7.285156 4.28125 7.351562 4.265625 7.433594 C 4.121094 8.328125 4.132812 9.214844 4.300781 10.101562 C 4.160156 10.035156 4.027344 10.054688 3.898438 10.167969 C 3.835938 10.078125 3.746094 10.035156 3.632812 10.035156 C 3.53125 10.019531 3.441406 9.976562 3.367188 9.898438 C 3.304688 10.230469 3.25 10.566406 3.199219 10.898438 C 3.179688 10.953125 3.144531 11 3.101562 11.035156 C 2.9375 10.9375 2.757812 10.890625 2.566406 10.898438 C 2.234375 10.945312 1.902344 10.964844 1.566406 10.964844 C 1.566406 11.035156 1.566406 11.101562 1.566406 11.167969 C 1.308594 11.179688 1.066406 11.246094 0.832031 11.367188 C 0.734375 11.457031 0.6875 11.566406 0.699219 11.699219 C 0.496094 11.679688 0.339844 11.746094 0.234375 11.898438 C 0.160156 11.972656 0.0703125 12.019531 -0.0351562 12.035156 C -0.0351562 11.878906 -0.0351562 11.722656 -0.0351562 11.566406 C 0.847656 10.945312 1.824219 10.636719 2.898438 10.632812 C 2.898438 10.523438 2.898438 10.410156 2.898438 10.300781 C 2.378906 10.582031 2.089844 10.425781 2.035156 9.832031 C 2.035156 9.476562 2.035156 9.121094 2.035156 8.765625 C 1.945312 8.765625 1.855469 8.765625 1.765625 8.765625 C 1.464844 8.609375 1.242188 8.375 1.101562 8.066406 C 1.148438 7.847656 1.214844 7.636719 1.300781 7.433594 C 1.816406 6.492188 2.484375 5.671875 3.300781 4.964844 C 3.519531 4.835938 3.71875 4.679688 3.898438 4.5 C 4.328125 4.203125 4.773438 3.9375 5.234375 3.699219 C 5.253906 3.699219 5.277344 3.699219 5.300781 3.699219 C 5.378906 3.671875 5.449219 3.625 5.5 3.566406 C 5.542969 3.566406 5.566406 3.542969 5.566406 3.5 C 5.929688 3.375 6.285156 3.230469 6.632812 3.066406 C 7.125 3.011719 7.617188 3.03125 8.101562 3.132812 C 8.292969 3.171875 8.4375 3.273438 8.535156 3.433594 C 9.140625 2.402344 9.996094 2.144531 11.101562 2.667969 C 12.460938 3.230469 13.628906 4.0625 14.601562 5.167969 C 15.339844 6.117188 15.75 7.195312 15.832031 8.398438 C 15.726562 8.96875 15.4375 9.410156 14.964844 9.734375 C 15.015625 9.851562 15.039062 9.972656 15.035156 10.101562 Z M 15.035156 10.101562 "/>
<path style=" stroke:none;fill-rule:evenodd;fill:rgb(50.980392%,50.980392%,51.372549%);fill-opacity:1;" d="M 10.433594 2.964844 C 10.230469 2.957031 10.03125 2.96875 9.832031 3 C 9.566406 3.113281 9.320312 3.257812 9.101562 3.433594 C 9.417969 2.910156 9.859375 2.757812 10.433594 2.964844 Z M 10.433594 2.964844 "/>
<path style=" stroke:none;fill-rule:evenodd;fill:rgb(69.411765%,69.803922%,69.019608%);fill-opacity:1;" d="M 8.898438 3.699219 C 8.746094 3.8125 8.570312 3.902344 8.367188 3.964844 C 8.023438 3.835938 7.667969 3.804688 7.300781 3.867188 C 7.203125 3.914062 7.15625 3.992188 7.167969 4.101562 C 7.257812 4.089844 7.347656 4.101562 7.433594 4.132812 C 7.300781 4.167969 7.167969 4.175781 7.035156 4.167969 C 7.050781 4.292969 7.03125 4.40625 6.964844 4.5 C 6.964844 4.390625 6.964844 4.277344 6.964844 4.167969 C 6.367188 4.214844 5.824219 4.414062 5.332031 4.765625 C 5.238281 4.808594 5.136719 4.832031 5.035156 4.832031 C 5.136719 4.738281 5.113281 4.695312 4.964844 4.699219 C 5.0625 4.5625 5.195312 4.496094 5.367188 4.5 C 5.359375 4.378906 5.378906 4.269531 5.433594 4.167969 C 5.855469 3.925781 6.300781 3.714844 6.765625 3.535156 C 7.28125 3.460938 7.78125 3.515625 8.265625 3.699219 C 8.332031 3.65625 8.398438 3.609375 8.464844 3.566406 C 8.59375 3.667969 8.738281 3.710938 8.898438 3.699219 Z M 8.898438 3.699219 "/>
<path style=" stroke:none;fill-rule:evenodd;fill:rgb(65.490196%,81.176471%,92.156863%);fill-opacity:1;" d="M 2.300781 3.300781 C 2.546875 3.402344 2.769531 3.535156 2.964844 3.699219 C 3.078125 3.6875 3.144531 3.730469 3.167969 3.832031 C 3.425781 4.039062 3.671875 4.261719 3.898438 4.5 C 3.71875 4.679688 3.519531 4.835938 3.300781 4.964844 C 3.304688 4.898438 3.285156 4.84375 3.234375 4.800781 C 3.425781 4.6875 3.480469 4.523438 3.398438 4.300781 C 3.222656 4.191406 3.035156 4.113281 2.832031 4.066406 C 2.773438 3.953125 2.75 3.832031 2.765625 3.699219 C 2.621094 3.652344 2.488281 3.628906 2.367188 3.632812 C 2.304688 3.53125 2.28125 3.417969 2.300781 3.300781 Z M 2.300781 3.300781 "/>
<path style=" stroke:none;fill-rule:evenodd;fill:rgb(82.745098%,82.745098%,82.745098%);fill-opacity:1;" d="M 14.101562 7.898438 C 13.855469 7.3125 13.578125 6.734375 13.265625 6.167969 C 13.046875 5.882812 12.816406 5.617188 12.566406 5.367188 C 12.472656 5.304688 12.359375 5.28125 12.234375 5.300781 C 12.242188 5.390625 12.234375 5.480469 12.199219 5.566406 C 11.960938 5.371094 11.804688 5.128906 11.734375 4.832031 C 11.433594 4.671875 11.132812 4.503906 10.832031 4.332031 C 10.777344 4.265625 10.753906 4.1875 10.765625 4.101562 C 10.421875 3.984375 10.066406 3.949219 9.699219 4 C 9.492188 4.132812 9.378906 4.320312 9.367188 4.566406 C 9.304688 4.664062 9.214844 4.730469 9.101562 4.765625 C 9.039062 4.695312 9.015625 4.605469 9.035156 4.5 C 9.03125 4.34375 8.957031 4.253906 8.800781 4.234375 C 8.65625 4.234375 8.554688 4.300781 8.5 4.433594 C 8.214844 4.421875 7.992188 4.535156 7.832031 4.765625 C 7.742188 5 7.652344 5.230469 7.566406 5.464844 C 7.675781 5.679688 7.609375 5.777344 7.367188 5.765625 C 7.277344 5.753906 7.199219 5.777344 7.132812 5.832031 C 7.039062 6.324219 6.941406 6.816406 6.832031 7.300781 C 6.761719 7.625 6.695312 7.957031 6.632812 8.300781 C 6.546875 8.425781 6.445312 8.535156 6.332031 8.632812 C 6.285156 8.574219 6.230469 8.53125 6.167969 8.5 C 6.167969 8.457031 6.144531 8.433594 6.101562 8.433594 C 6.03125 8.363281 5.988281 8.273438 5.964844 8.167969 C 6.015625 7.761719 6.140625 7.382812 6.332031 7.035156 C 6.355469 6.898438 6.378906 6.765625 6.398438 6.632812 C 6.679688 6.144531 6.9375 5.644531 7.167969 5.132812 C 7.148438 5.046875 7.105469 4.976562 7.035156 4.933594 C 6.667969 4.824219 6.433594 4.949219 6.332031 5.300781 C 6.246094 5.339844 6.167969 5.382812 6.101562 5.433594 C 5.992188 5.476562 5.902344 5.542969 5.832031 5.632812 C 5.832031 5.492188 5.875 5.371094 5.964844 5.265625 C 5.882812 5.160156 5.792969 5.171875 5.699219 5.300781 C 5.46875 5.648438 5.292969 6.027344 5.167969 6.433594 C 5.136719 6.488281 5.089844 6.507812 5.035156 6.5 C 4.839844 6.199219 4.59375 6.15625 4.300781 6.367188 C 4.207031 6.390625 4.140625 6.445312 4.101562 6.535156 C 3.855469 7.140625 3.722656 7.777344 3.699219 8.433594 C 3.660156 8.699219 3.59375 8.964844 3.5 9.234375 C 3.390625 9.320312 3.277344 9.320312 3.167969 9.234375 C 3.085938 8.675781 3.105469 8.121094 3.234375 7.566406 C 3.316406 7.195312 3.460938 6.839844 3.667969 6.5 C 3.742188 6.398438 3.839844 6.351562 3.964844 6.367188 C 3.945312 6.234375 3.988281 6.144531 4.101562 6.101562 C 4.21875 6.117188 4.332031 6.097656 4.433594 6.035156 C 5.113281 5.242188 5.957031 4.730469 6.964844 4.5 C 7.03125 4.40625 7.050781 4.292969 7.035156 4.167969 C 7.167969 4.175781 7.300781 4.167969 7.433594 4.132812 C 7.347656 4.101562 7.257812 4.089844 7.167969 4.101562 C 7.15625 3.992188 7.203125 3.914062 7.300781 3.867188 C 7.667969 3.804688 8.023438 3.835938 8.367188 3.964844 C 8.570312 3.902344 8.746094 3.8125 8.898438 3.699219 C 9.199219 3.667969 9.464844 3.554688 9.699219 3.367188 C 10.140625 3.375 10.585938 3.386719 11.035156 3.398438 C 11.261719 3.390625 11.394531 3.492188 11.433594 3.699219 C 11.257812 3.648438 11.078125 3.636719 10.898438 3.667969 C 12.738281 4.441406 13.984375 5.773438 14.632812 7.667969 C 14.582031 8.046875 14.40625 8.125 14.101562 7.898438 Z M 14.101562 7.898438 "/>
<path style=" stroke:none;fill-rule:evenodd;fill:rgb(69.803922%,69.803922%,69.803922%);fill-opacity:1;" d="M 12.566406 5.367188 C 12.316406 5.386719 12.242188 5.519531 12.332031 5.765625 C 12.585938 6.027344 12.796875 6.316406 12.964844 6.632812 C 13.085938 6.976562 13.175781 7.332031 13.234375 7.699219 C 13.167969 7.699219 13.101562 7.699219 13.035156 7.699219 C 12.867188 7.730469 12.734375 7.683594 12.632812 7.566406 C 12.710938 7.355469 12.71875 7.136719 12.667969 6.898438 C 12.542969 6.824219 12.484375 6.710938 12.5 6.566406 C 12.433594 6.566406 12.367188 6.566406 12.300781 6.566406 C 12.273438 6.253906 12.152344 5.988281 11.933594 5.765625 C 11.902344 5.703125 11.890625 5.636719 11.898438 5.566406 C 11.695312 5.410156 11.472656 5.277344 11.234375 5.167969 C 10.914062 4.925781 10.605469 4.671875 10.300781 4.398438 C 10.179688 4.339844 10.058594 4.285156 9.933594 4.234375 C 9.71875 4.300781 9.53125 4.414062 9.367188 4.566406 C 9.378906 4.320312 9.492188 4.132812 9.699219 4 C 10.066406 3.949219 10.421875 3.984375 10.765625 4.101562 C 10.753906 4.1875 10.777344 4.265625 10.832031 4.332031 C 11.132812 4.503906 11.433594 4.671875 11.734375 4.832031 C 11.804688 5.128906 11.960938 5.371094 12.199219 5.566406 C 12.234375 5.480469 12.242188 5.390625 12.234375 5.300781 C 12.359375 5.28125 12.472656 5.304688 12.566406 5.367188 Z M 12.566406 5.367188 "/>
<path style=" stroke:none;fill-rule:evenodd;fill:rgb(81.960784%,62.352941%,80.392157%);fill-opacity:1;" d="M 5.234375 3.699219 C 4.773438 3.9375 4.328125 4.203125 3.898438 4.5 C 3.671875 4.261719 3.425781 4.039062 3.167969 3.832031 C 3.449219 3.820312 3.652344 3.941406 3.765625 4.199219 C 3.878906 4.246094 3.988281 4.246094 4.101562 4.199219 C 4.261719 4.042969 4.417969 3.890625 4.566406 3.734375 C 4.789062 3.699219 5.011719 3.6875 5.234375 3.699219 Z M 5.234375 3.699219 "/>
<path style=" stroke:none;fill-rule:evenodd;fill:rgb(53.72549%,53.72549%,54.117647%);fill-opacity:1;" d="M 12.234375 3.832031 C 13.117188 4.351562 13.882812 5.015625 14.535156 5.832031 C 14.890625 6.386719 15.125 6.984375 15.234375 7.632812 C 15.132812 7.632812 15.054688 7.589844 15 7.5 C 14.71875 6.820312 14.417969 6.152344 14.101562 5.5 C 14.03125 5.511719 13.964844 5.5 13.898438 5.464844 C 13.574219 4.984375 13.152344 4.628906 12.632812 4.398438 C 12.472656 4.222656 12.339844 4.03125 12.234375 3.832031 Z M 12.234375 3.832031 "/>
<path style=" stroke:none;fill-rule:evenodd;fill:rgb(69.803922%,69.803922%,69.803922%);fill-opacity:1;" d="M 8.5 4.433594 C 8.183594 4.886719 7.996094 5.398438 7.933594 5.964844 C 7.816406 6.808594 7.761719 7.652344 7.765625 8.5 C 7.488281 8.449219 7.242188 8.328125 7.035156 8.132812 C 6.851562 8.070312 6.761719 8.136719 6.765625 8.332031 C 6.761719 8.449219 6.808594 8.535156 6.898438 8.601562 C 6.6875 8.875 6.421875 8.996094 6.101562 8.964844 C 6.160156 8.816406 6.179688 8.660156 6.167969 8.5 C 6.230469 8.53125 6.285156 8.574219 6.332031 8.632812 C 6.445312 8.535156 6.546875 8.425781 6.632812 8.300781 C 6.695312 7.957031 6.761719 7.625 6.832031 7.300781 C 6.816406 7.453125 6.839844 7.597656 6.898438 7.734375 C 7.035156 7.765625 7.125 7.710938 7.167969 7.566406 C 7.277344 7.046875 7.390625 6.523438 7.5 6 C 7.476562 5.90625 7.429688 5.828125 7.367188 5.765625 C 7.609375 5.777344 7.675781 5.679688 7.566406 5.464844 C 7.652344 5.230469 7.742188 5 7.832031 4.765625 C 7.992188 4.535156 8.214844 4.421875 8.5 4.433594 Z M 8.5 4.433594 "/>
<path style=" stroke:none;fill-rule:evenodd;fill:rgb(56.470588%,56.078431%,56.078431%);fill-opacity:1;" d="M 6.964844 4.5 C 5.957031 4.730469 5.113281 5.242188 4.433594 6.035156 C 4.332031 6.097656 4.21875 6.117188 4.101562 6.101562 C 4.113281 5.6875 4.3125 5.410156 4.699219 5.265625 C 4.75 5.222656 4.773438 5.167969 4.765625 5.101562 C 4.835938 4.988281 4.925781 4.898438 5.035156 4.832031 C 5.136719 4.832031 5.238281 4.808594 5.332031 4.765625 C 5.824219 4.414062 6.367188 4.214844 6.964844 4.167969 C 6.964844 4.277344 6.964844 4.390625 6.964844 4.5 Z M 6.964844 4.5 "/>
<path style=" stroke:none;fill-rule:evenodd;fill:rgb(5.490196%,4.705882%,4.313725%);fill-opacity:1;" d="M 9.035156 4.5 C 8.839844 4.726562 8.6875 4.984375 8.566406 5.265625 C 8.609375 5.378906 8.675781 5.390625 8.765625 5.300781 C 8.851562 5.101562 8.964844 4.925781 9.101562 4.765625 C 9.214844 4.730469 9.304688 4.664062 9.367188 4.566406 C 9.53125 4.414062 9.71875 4.300781 9.933594 4.234375 C 10.058594 4.285156 10.179688 4.339844 10.300781 4.398438 C 10.605469 4.671875 10.914062 4.925781 11.234375 5.167969 C 11.855469 5.835938 12.191406 6.636719 12.234375 7.566406 C 12.34375 7.566406 12.457031 7.566406 12.566406 7.566406 C 12.589844 7.566406 12.609375 7.566406 12.632812 7.566406 C 12.734375 7.683594 12.867188 7.730469 13.035156 7.699219 C 13.195312 7.796875 13.371094 7.828125 13.566406 7.800781 C 13.390625 7.394531 13.191406 7.003906 12.964844 6.632812 C 12.796875 6.316406 12.585938 6.027344 12.332031 5.765625 C 12.242188 5.519531 12.316406 5.386719 12.566406 5.367188 C 12.816406 5.617188 13.046875 5.882812 13.265625 6.167969 C 13.578125 6.734375 13.855469 7.3125 14.101562 7.898438 C 14.203125 8.21875 14.324219 8.527344 14.464844 8.832031 C 14.535156 8.914062 14.613281 8.980469 14.699219 9.035156 C 14.722656 9.078125 14.746094 9.121094 14.765625 9.167969 C 14.816406 9.21875 14.882812 9.25 14.964844 9.265625 C 14.910156 9.3125 14.863281 9.367188 14.832031 9.433594 C 14.871094 9.671875 14.9375 9.894531 15.035156 10.101562 C 15.160156 10.84375 15.027344 11.53125 14.632812 12.167969 C 14.480469 12.339844 14.324219 12.519531 14.167969 12.699219 C 14.453125 12.820312 14.730469 12.953125 15 13.101562 C 15.042969 13.449219 14.941406 13.75 14.699219 14 C 14.808594 14.378906 14.785156 14.746094 14.632812 15.101562 C 14.839844 15.359375 14.996094 15.648438 15.101562 15.964844 C 14.945312 15.964844 14.789062 15.964844 14.632812 15.964844 C 14.550781 15.769531 14.460938 15.570312 14.367188 15.367188 C 14.320312 15.34375 14.277344 15.320312 14.234375 15.300781 C 14.003906 15.382812 13.78125 15.480469 13.566406 15.601562 C 13.4375 15.695312 13.347656 15.820312 13.300781 15.964844 C 13.144531 15.964844 12.988281 15.964844 12.832031 15.964844 C 12.863281 15.652344 13.019531 15.417969 13.300781 15.265625 C 13.664062 15.003906 14.066406 14.839844 14.5 14.765625 C 14.5 14.589844 14.5 14.410156 14.5 14.234375 C 14.308594 14.214844 14.128906 14.234375 13.964844 14.300781 C 12.996094 14.46875 12.398438 15.027344 12.167969 15.964844 C 12.054688 15.964844 11.945312 15.964844 11.832031 15.964844 C 11.941406 15.757812 12.007812 15.535156 12.035156 15.300781 C 12.121094 15.257812 12.1875 15.191406 12.234375 15.101562 C 12.015625 15.054688 11.792969 15.054688 11.566406 15.101562 C 10.027344 15.148438 8.492188 15.082031 6.964844 14.898438 C 6.855469 14.910156 6.746094 14.921875 6.632812 14.933594 C 6.644531 15.015625 6.664062 15.089844 6.699219 15.167969 C 6.683594 15.253906 6.707031 15.320312 6.765625 15.367188 C 6.8125 15.5625 6.832031 15.761719 6.832031 15.964844 C 6.746094 15.964844 6.65625 15.964844 6.566406 15.964844 C 6.566406 15.878906 6.566406 15.789062 6.566406 15.699219 C 6.574219 15.523438 6.527344 15.367188 6.433594 15.234375 C 6.074219 14.652344 5.542969 14.34375 4.832031 14.300781 C 4.46875 14.222656 4.089844 14.210938 3.699219 14.265625 C 3.640625 14.335938 3.574219 14.390625 3.5 14.433594 C 3.570312 13.824219 3.648438 13.203125 3.734375 12.566406 C 4.09375 12.386719 4.070312 12.210938 3.667969 12.035156 C 3.28125 12.085938 2.894531 12.128906 2.5 12.167969 C 2.433594 12.144531 2.367188 12.121094 2.300781 12.101562 C 2.617188 11.960938 2.953125 11.871094 3.300781 11.832031 C 3.28125 11.542969 3.273438 11.253906 3.265625 10.964844 C 3.398438 11.214844 3.457031 11.484375 3.433594 11.765625 C 3.503906 11.757812 3.570312 11.769531 3.632812 11.800781 C 3.675781 11.902344 3.746094 11.980469 3.832031 12.035156 C 3.945312 12.167969 4.082031 12.28125 4.234375 12.367188 C 4.5 12.800781 4.855469 12.898438 5.300781 12.667969 C 7.554688 12.351562 9.777344 12.507812 11.964844 13.132812 C 12.300781 13.167969 12.632812 13.175781 12.964844 13.167969 C 12.953125 13.027344 12.976562 12.894531 13.035156 12.765625 C 13.261719 12.691406 13.484375 12.601562 13.699219 12.5 C 13.765625 12.476562 13.8125 12.433594 13.832031 12.367188 C 14.078125 12.253906 14.257812 12.078125 14.367188 11.832031 C 14.457031 11.609375 14.542969 11.390625 14.632812 11.167969 C 14.683594 11.117188 14.71875 11.050781 14.734375 10.964844 C 14.835938 10.425781 14.738281 9.933594 14.433594 9.5 C 14.300781 9.367188 14.167969 9.234375 14.035156 9.101562 C 13.714844 9.574219 13.316406 9.949219 12.832031 10.234375 C 12.632812 10.265625 12.433594 10.308594 12.234375 10.367188 C 12.324219 10.433594 12.367188 10.523438 12.367188 10.632812 C 12.519531 11.027344 12.441406 11.363281 12.132812 11.632812 C 12.117188 11.488281 12.050781 11.378906 11.933594 11.300781 C 11.78125 11.398438 11.617188 11.453125 11.433594 11.464844 C 11.382812 11.511719 11.359375 11.566406 11.367188 11.632812 C 10.832031 11.703125 10.300781 11.703125 9.765625 11.632812 C 9.800781 11.585938 9.847656 11.554688 9.898438 11.535156 C 10.480469 11.542969 11.046875 11.464844 11.601562 11.300781 C 11.730469 11.234375 11.832031 11.148438 11.898438 11.035156 C 12.027344 10.917969 12.050781 10.785156 11.964844 10.632812 C 11.84375 10.566406 11.753906 10.464844 11.699219 10.332031 C 11.539062 10.285156 11.382812 10.226562 11.234375 10.167969 C 11.210938 10.167969 11.1875 10.167969 11.167969 10.167969 C 10.757812 10.089844 10.335938 10.078125 9.898438 10.132812 C 9.785156 10.210938 9.671875 10.289062 9.566406 10.367188 C 9.25 10.507812 9.09375 10.75 9.101562 11.101562 C 9.144531 11.289062 9.257812 11.433594 9.433594 11.535156 C 9.308594 11.605469 9.261719 11.695312 9.300781 11.800781 C 9.25 11.871094 9.183594 11.902344 9.101562 11.898438 C 9.011719 11.832031 8.921875 11.765625 8.832031 11.699219 C 8.636719 11.285156 8.65625 10.882812 8.898438 10.5 C 8.367188 10.433594 7.878906 10.253906 7.433594 9.964844 C 7.378906 9.847656 7.289062 9.761719 7.167969 9.699219 C 7 9.238281 6.730469 9.171875 6.367188 9.5 C 6.300781 9.5 6.234375 9.5 6.167969 9.5 C 6.074219 9.53125 6.03125 9.597656 6.035156 9.699219 C 6.113281 9.921875 6.113281 10.144531 6.035156 10.367188 C 5.90625 10.421875 5.773438 10.445312 5.632812 10.433594 C 5.347656 10.53125 5.046875 10.574219 4.734375 10.566406 C 4.460938 10.582031 4.207031 10.535156 3.964844 10.433594 C 3.976562 10.367188 3.957031 10.324219 3.898438 10.300781 C 3.898438 10.253906 3.898438 10.210938 3.898438 10.167969 C 4.027344 10.054688 4.160156 10.035156 4.300781 10.101562 C 4.589844 10.1875 4.878906 10.1875 5.167969 10.101562 C 5.296875 10.117188 5.421875 10.09375 5.535156 10.035156 C 5.539062 9.535156 5.605469 9.046875 5.734375 8.566406 C 5.828125 8.457031 5.953125 8.410156 6.101562 8.433594 C 6.144531 8.433594 6.167969 8.457031 6.167969 8.5 C 6.179688 8.660156 6.160156 8.816406 6.101562 8.964844 C 6.421875 8.996094 6.6875 8.875 6.898438 8.601562 C 6.808594 8.535156 6.761719 8.449219 6.765625 8.332031 C 6.761719 8.136719 6.851562 8.070312 7.035156 8.132812 C 7.242188 8.328125 7.488281 8.449219 7.765625 8.5 C 7.761719 7.652344 7.816406 6.808594 7.933594 5.964844 C 7.996094 5.398438 8.183594 4.886719 8.5 4.433594 C 8.554688 4.300781 8.65625 4.234375 8.800781 4.234375 C 8.957031 4.253906 9.03125 4.34375 9.035156 4.5 Z M 9.035156 4.5 "/>
<path style=" stroke:none;fill-rule:evenodd;fill:rgb(46.666667%,46.666667%,46.27451%);fill-opacity:1;" d="M 9.035156 4.5 C 9.015625 4.605469 9.039062 4.695312 9.101562 4.765625 C 8.964844 4.925781 8.851562 5.101562 8.765625 5.300781 C 8.675781 5.390625 8.609375 5.378906 8.566406 5.265625 C 8.6875 4.984375 8.839844 4.726562 9.035156 4.5 Z M 9.035156 4.5 "/>
<path style=" stroke:none;fill-rule:evenodd;fill:rgb(49.019608%,49.019608%,49.019608%);fill-opacity:1;" d="M 9.832031 4.765625 C 10.007812 4.796875 10.164062 4.875 10.300781 5 C 10.054688 5.039062 9.808594 5.0625 9.566406 5.066406 C 9.667969 4.976562 9.757812 4.875 9.832031 4.765625 Z M 9.832031 4.765625 "/>
<path style=" stroke:none;fill-rule:evenodd;fill:rgb(56.078431%,56.078431%,56.078431%);fill-opacity:1;" d="M 7.367188 5.765625 C 7.429688 5.828125 7.476562 5.90625 7.5 6 C 7.390625 6.523438 7.277344 7.046875 7.167969 7.566406 C 7.125 7.710938 7.035156 7.765625 6.898438 7.734375 C 6.839844 7.597656 6.816406 7.453125 6.832031 7.300781 C 6.941406 6.816406 7.039062 6.324219 7.132812 5.832031 C 7.199219 5.777344 7.277344 5.753906 7.367188 5.765625 Z M 7.367188 5.765625 "/>
<path style=" stroke:none;fill-rule:evenodd;fill:rgb(71.372549%,71.372549%,70.980392%);fill-opacity:1;" d="M 4.765625 5.101562 C 4.773438 5.167969 4.75 5.222656 4.699219 5.265625 C 4.3125 5.410156 4.113281 5.6875 4.101562 6.101562 C 3.988281 6.144531 3.945312 6.234375 3.964844 6.367188 C 3.839844 6.351562 3.742188 6.398438 3.667969 6.5 C 3.460938 6.839844 3.316406 7.195312 3.234375 7.566406 C 3.234375 7.457031 3.234375 7.34375 3.234375 7.234375 C 3.082031 7.210938 2.960938 7.253906 2.867188 7.367188 C 2.738281 7.914062 2.671875 8.46875 2.667969 9.035156 C 2.582031 8.660156 2.546875 8.28125 2.566406 7.898438 C 2.757812 7.6875 2.734375 7.507812 2.5 7.367188 C 2.683594 6.980469 2.917969 6.625 3.199219 6.300781 C 3.570312 5.972656 3.9375 5.652344 4.300781 5.332031 C 4.4375 5.21875 4.59375 5.140625 4.765625 5.101562 Z M 4.765625 5.101562 "/>
<path style=" stroke:none;fill-rule:evenodd;fill:rgb(62.352941%,54.901961%,41.176471%);fill-opacity:1;" d="M 11.101562 5.832031 C 10.871094 5.761719 10.640625 5.71875 10.398438 5.699219 C 9.945312 5.742188 9.488281 5.777344 9.035156 5.800781 C 8.859375 5.875 8.683594 5.929688 8.5 5.964844 C 8.5 6.121094 8.5 6.277344 8.5 6.433594 C 8.683594 6.417969 8.863281 6.441406 9.035156 6.5 C 9.035156 6.523438 9.035156 6.542969 9.035156 6.566406 C 8.816406 6.511719 8.59375 6.488281 8.367188 6.5 C 8.34375 6.296875 8.367188 6.09375 8.433594 5.898438 C 9.25 5.59375 10.09375 5.492188 10.964844 5.601562 C 11.019531 5.675781 11.066406 5.753906 11.101562 5.832031 Z M 11.101562 5.832031 "/>
<path style=" stroke:none;fill-rule:evenodd;fill:rgb(70.588235%,60%,34.117647%);fill-opacity:1;" d="M 11.101562 5.832031 C 11.351562 6.066406 11.527344 6.355469 11.632812 6.699219 C 11.523438 6.824219 11.386719 6.910156 11.234375 6.964844 C 11.234375 6.921875 11.210938 6.898438 11.167969 6.898438 C 11.074219 6.707031 10.941406 6.539062 10.765625 6.398438 C 10.53125 6.183594 10.265625 6.015625 9.964844 5.898438 C 9.480469 5.851562 9.171875 6.050781 9.035156 6.5 C 8.863281 6.441406 8.683594 6.417969 8.5 6.433594 C 8.5 6.277344 8.5 6.121094 8.5 5.964844 C 8.683594 5.929688 8.859375 5.875 9.035156 5.800781 C 9.488281 5.777344 9.945312 5.742188 10.398438 5.699219 C 10.640625 5.71875 10.871094 5.761719 11.101562 5.832031 Z M 11.101562 5.832031 "/>
<path style=" stroke:none;fill-rule:evenodd;fill:rgb(55.686275%,55.686275%,55.686275%);fill-opacity:1;" d="M 6.101562 5.433594 C 6.167969 5.433594 6.234375 5.433594 6.300781 5.433594 C 6.3125 5.546875 6.300781 5.65625 6.265625 5.765625 C 5.601562 6.792969 5.300781 7.925781 5.367188 9.167969 C 5.230469 9.164062 5.09375 9.144531 4.964844 9.101562 C 4.890625 7.863281 5.179688 6.730469 5.832031 5.699219 C 5.832031 5.679688 5.832031 5.65625 5.832031 5.632812 C 5.902344 5.542969 5.992188 5.476562 6.101562 5.433594 Z M 6.101562 5.433594 "/>
<path style=" stroke:none;fill-rule:evenodd;fill:rgb(53.72549%,53.72549%,53.72549%);fill-opacity:1;" d="M 11.234375 5.167969 C 11.472656 5.277344 11.695312 5.410156 11.898438 5.566406 C 11.890625 5.636719 11.902344 5.703125 11.933594 5.765625 C 12.152344 5.988281 12.273438 6.253906 12.300781 6.566406 C 12.441406 6.882812 12.53125 7.21875 12.566406 7.566406 C 12.457031 7.566406 12.34375 7.566406 12.234375 7.566406 C 12.191406 6.636719 11.855469 5.835938 11.234375 5.167969 Z M 11.234375 5.167969 "/>
<path style=" stroke:none;fill-rule:evenodd;fill:rgb(57.254902%,56.470588%,56.470588%);fill-opacity:1;" d="M 5.433594 4.167969 C 5.378906 4.269531 5.359375 4.378906 5.367188 4.5 C 5.195312 4.496094 5.0625 4.5625 4.964844 4.699219 C 4.703125 4.851562 4.4375 5.007812 4.167969 5.167969 C 3.699219 5.621094 3.222656 6.066406 2.734375 6.5 C 2.648438 6.707031 2.527344 6.882812 2.367188 7.035156 C 2.339844 7.152344 2.296875 7.261719 2.234375 7.367188 C 2.242188 7.40625 2.265625 7.429688 2.300781 7.433594 C 2.117188 7.714844 2.003906 8.027344 1.964844 8.367188 C 1.804688 8.285156 1.671875 8.175781 1.566406 8.035156 C 2.386719 6.28125 3.675781 4.992188 5.433594 4.167969 Z M 5.433594 4.167969 "/>
<path style=" stroke:none;fill-rule:evenodd;fill:rgb(96.862745%,85.098039%,49.411765%);fill-opacity:1;" d="M 11.167969 6.898438 C 10.949219 7.027344 10.75 7.183594 10.566406 7.367188 C 10.28125 7.191406 10.035156 6.96875 9.832031 6.699219 C 9.558594 6.644531 9.292969 6.578125 9.035156 6.5 C 9.171875 6.050781 9.480469 5.851562 9.964844 5.898438 C 10.265625 6.015625 10.53125 6.183594 10.765625 6.398438 C 10.941406 6.539062 11.074219 6.707031 11.167969 6.898438 Z M 11.167969 6.898438 "/>
<path style=" stroke:none;fill-rule:evenodd;fill:rgb(88.235294%,87.843137%,87.843137%);fill-opacity:1;" d="M 4.964844 4.699219 C 5.113281 4.695312 5.136719 4.738281 5.035156 4.832031 C 4.925781 4.898438 4.835938 4.988281 4.765625 5.101562 C 4.59375 5.140625 4.4375 5.21875 4.300781 5.332031 C 3.9375 5.652344 3.570312 5.972656 3.199219 6.300781 C 2.917969 6.625 2.683594 6.980469 2.5 7.367188 C 2.425781 7.371094 2.359375 7.394531 2.300781 7.433594 C 2.265625 7.429688 2.242188 7.40625 2.234375 7.367188 C 2.296875 7.261719 2.339844 7.152344 2.367188 7.035156 C 2.527344 6.882812 2.648438 6.707031 2.734375 6.5 C 3.222656 6.066406 3.699219 5.621094 4.167969 5.167969 C 4.4375 5.007812 4.703125 4.851562 4.964844 4.699219 Z M 4.964844 4.699219 "/>
<path style=" stroke:none;fill-rule:evenodd;fill:rgb(94.509804%,94.509804%,94.509804%);fill-opacity:1;" d="M 8.765625 6.964844 C 9.496094 7.105469 9.996094 7.527344 10.265625 8.234375 C 10.386719 9.050781 10.0625 9.617188 9.300781 9.933594 C 8.746094 10.046875 8.234375 9.957031 7.765625 9.667969 C 7.65625 9.589844 7.589844 9.492188 7.566406 9.367188 C 7.570312 9.332031 7.59375 9.308594 7.632812 9.300781 C 7.957031 9.449219 8.289062 9.492188 8.632812 9.433594 C 8.65625 9.355469 8.679688 9.277344 8.699219 9.199219 C 8.523438 8.453125 8.542969 7.707031 8.765625 6.964844 Z M 8.765625 6.964844 "/>
<path style=" stroke:none;fill-rule:evenodd;fill:rgb(48.627451%,48.627451%,48.627451%);fill-opacity:1;" d="M 12.964844 6.632812 C 13.191406 7.003906 13.390625 7.394531 13.566406 7.800781 C 13.371094 7.828125 13.195312 7.796875 13.035156 7.699219 C 13.101562 7.699219 13.167969 7.699219 13.234375 7.699219 C 13.175781 7.332031 13.085938 6.976562 12.964844 6.632812 Z M 12.964844 6.632812 "/>
<path style=" stroke:none;fill-rule:evenodd;fill:rgb(70.196078%,70.196078%,70.196078%);fill-opacity:1;" d="M 6.101562 8.433594 C 5.953125 8.410156 5.828125 8.457031 5.734375 8.566406 C 5.605469 9.046875 5.539062 9.535156 5.535156 10.035156 C 5.421875 10.09375 5.296875 10.117188 5.167969 10.101562 C 4.984375 10.121094 4.804688 10.097656 4.632812 10.035156 C 4.523438 9.800781 4.445312 9.554688 4.398438 9.300781 C 4.367188 8.613281 4.355469 7.921875 4.367188 7.234375 C 4.386719 7.003906 4.453125 6.792969 4.566406 6.601562 C 4.570312 6.417969 4.484375 6.339844 4.300781 6.367188 C 4.59375 6.15625 4.839844 6.199219 5.035156 6.5 C 4.824219 7.050781 4.710938 7.628906 4.699219 8.234375 C 4.613281 8.40625 4.566406 8.605469 4.566406 8.832031 C 4.574219 9.183594 4.640625 9.515625 4.765625 9.832031 C 4.835938 9.84375 4.902344 9.832031 4.964844 9.800781 C 5.054688 9.664062 5.144531 9.53125 5.234375 9.398438 C 5.160156 9.285156 5.070312 9.1875 4.964844 9.101562 C 5.09375 9.144531 5.230469 9.164062 5.367188 9.167969 C 5.300781 7.925781 5.601562 6.792969 6.265625 5.765625 C 6.300781 5.65625 6.3125 5.546875 6.300781 5.433594 C 6.234375 5.433594 6.167969 5.433594 6.101562 5.433594 C 6.167969 5.382812 6.246094 5.339844 6.332031 5.300781 C 6.433594 4.949219 6.667969 4.824219 7.035156 4.933594 C 7.105469 4.976562 7.148438 5.046875 7.167969 5.132812 C 6.9375 5.644531 6.679688 6.144531 6.398438 6.632812 C 6.378906 6.765625 6.355469 6.898438 6.332031 7.035156 C 6.140625 7.382812 6.015625 7.761719 5.964844 8.167969 C 5.988281 8.273438 6.03125 8.363281 6.101562 8.433594 Z M 6.101562 8.433594 "/>
<path style=" stroke:none;fill-rule:evenodd;fill:rgb(89.019608%,89.019608%,89.019608%);fill-opacity:1;" d="M 12.300781 6.566406 C 12.367188 6.566406 12.433594 6.566406 12.5 6.566406 C 12.484375 6.710938 12.542969 6.824219 12.667969 6.898438 C 12.71875 7.136719 12.710938 7.355469 12.632812 7.566406 C 12.609375 7.566406 12.589844 7.566406 12.566406 7.566406 C 12.53125 7.21875 12.441406 6.882812 12.300781 6.566406 Z M 12.300781 6.566406 "/>
<path style=" stroke:none;fill-rule:evenodd;fill:rgb(90.196078%,80.784314%,58.039216%);fill-opacity:1;" d="M 9.035156 6.566406 C 9.035156 6.542969 9.035156 6.523438 9.035156 6.5 C 9.292969 6.578125 9.558594 6.644531 9.832031 6.699219 C 10.035156 6.96875 10.28125 7.191406 10.566406 7.367188 C 10.75 7.183594 10.949219 7.027344 11.167969 6.898438 C 11.210938 6.898438 11.234375 6.921875 11.234375 6.964844 C 10.984375 7.226562 10.773438 7.515625 10.601562 7.832031 C 10.246094 7.199219 9.722656 6.777344 9.035156 6.566406 Z M 9.035156 6.566406 "/>
<path style=" stroke:none;fill-rule:evenodd;fill:rgb(70.196078%,70.196078%,70.196078%);fill-opacity:1;" d="M 10.433594 2.964844 C 11.09375 3.132812 11.695312 3.421875 12.234375 3.832031 C 12.339844 4.03125 12.472656 4.222656 12.632812 4.398438 C 13.152344 4.628906 13.574219 4.984375 13.898438 5.464844 C 13.964844 5.5 14.03125 5.511719 14.101562 5.5 C 14.417969 6.152344 14.71875 6.820312 15 7.5 C 15.054688 7.589844 15.132812 7.632812 15.234375 7.632812 C 15.234375 7.65625 15.234375 7.679688 15.234375 7.699219 C 15.246094 7.902344 15.234375 8.101562 15.199219 8.300781 C 15.03125 8.269531 14.839844 8.246094 14.632812 8.234375 C 14.65625 8.5 14.679688 8.765625 14.699219 9.035156 C 14.613281 8.980469 14.535156 8.914062 14.464844 8.832031 C 14.324219 8.527344 14.203125 8.21875 14.101562 7.898438 C 14.40625 8.125 14.582031 8.046875 14.632812 7.667969 C 13.984375 5.773438 12.738281 4.441406 10.898438 3.667969 C 11.078125 3.636719 11.257812 3.648438 11.433594 3.699219 C 11.394531 3.492188 11.261719 3.390625 11.035156 3.398438 C 10.585938 3.386719 10.140625 3.375 9.699219 3.367188 C 9.464844 3.554688 9.199219 3.667969 8.898438 3.699219 C 8.96875 3.609375 9.035156 3.519531 9.101562 3.433594 C 9.320312 3.257812 9.566406 3.113281 9.832031 3 C 10.03125 2.96875 10.230469 2.957031 10.433594 2.964844 Z M 10.433594 2.964844 "/>
<path style=" stroke:none;fill-rule:evenodd;fill:rgb(52.941176%,52.941176%,52.941176%);fill-opacity:1;" d="M 4.367188 7.234375 C 4.355469 7.921875 4.367188 8.613281 4.398438 9.300781 C 4.445312 9.554688 4.523438 9.800781 4.632812 10.035156 C 4.804688 10.097656 4.984375 10.121094 5.167969 10.101562 C 4.878906 10.1875 4.589844 10.1875 4.300781 10.101562 C 4.132812 9.214844 4.121094 8.328125 4.265625 7.433594 C 4.28125 7.351562 4.316406 7.285156 4.367188 7.234375 Z M 4.367188 7.234375 "/>
<path style=" stroke:none;fill-rule:evenodd;fill:rgb(90.980392%,90.980392%,90.980392%);fill-opacity:1;" d="M 5.832031 5.632812 C 5.832031 5.65625 5.832031 5.679688 5.832031 5.699219 C 5.773438 5.691406 5.730469 5.714844 5.699219 5.765625 C 5.140625 6.707031 4.832031 7.730469 4.765625 8.832031 C 4.699219 8.636719 4.679688 8.4375 4.699219 8.234375 C 4.710938 7.628906 4.824219 7.050781 5.035156 6.5 C 5.089844 6.507812 5.136719 6.488281 5.167969 6.433594 C 5.292969 6.027344 5.46875 5.648438 5.699219 5.300781 C 5.792969 5.171875 5.882812 5.160156 5.964844 5.265625 C 5.875 5.371094 5.832031 5.492188 5.832031 5.632812 Z M 5.832031 5.632812 "/>
<path style=" stroke:none;fill-rule:evenodd;fill:rgb(96.470588%,96.470588%,96.470588%);fill-opacity:1;" d="M 11.367188 7.433594 C 11.4375 7.441406 11.484375 7.484375 11.5 7.566406 C 11.511719 7.875 11.601562 8.152344 11.765625 8.398438 C 11.921875 8.421875 12.078125 8.445312 12.234375 8.464844 C 12.273438 8.574219 12.316406 8.675781 12.367188 8.765625 C 12.433594 8.859375 12.5 8.945312 12.566406 9.035156 C 12.574219 9.074219 12.597656 9.109375 12.632812 9.132812 C 12.824219 9.1875 13.003906 9.175781 13.167969 9.101562 C 13.246094 9.046875 13.3125 8.980469 13.367188 8.898438 C 13.429688 8.972656 13.453125 9.058594 13.433594 9.167969 C 12.882812 10.042969 12.171875 10.199219 11.300781 9.632812 C 11.011719 9.363281 10.878906 9.03125 10.898438 8.632812 C 10.875 8.15625 11.03125 7.753906 11.367188 7.433594 Z M 11.367188 7.433594 "/>
<path style=" stroke:none;fill-rule:evenodd;fill:rgb(4.313725%,4.313725%,4.313725%);fill-opacity:1;" d="M 9.300781 8.035156 C 10.046875 8.035156 10.25 8.355469 9.898438 9 C 9.269531 9.234375 8.96875 9.023438 9 8.367188 C 9.089844 8.242188 9.191406 8.132812 9.300781 8.035156 Z M 9.300781 8.035156 "/>
<path style=" stroke:none;fill-rule:evenodd;fill:rgb(68.627451%,68.627451%,68.627451%);fill-opacity:1;" d="M 12.367188 8.765625 C 12.316406 8.675781 12.273438 8.574219 12.234375 8.464844 C 12.078125 8.445312 11.921875 8.421875 11.765625 8.398438 C 11.601562 8.152344 11.511719 7.875 11.5 7.566406 C 11.484375 7.484375 11.4375 7.441406 11.367188 7.433594 C 11.460938 7.328125 11.570312 7.242188 11.699219 7.167969 C 11.757812 7.410156 11.8125 7.65625 11.867188 7.898438 C 11.898438 7.933594 11.933594 7.964844 11.964844 8 C 12.171875 8.011719 12.371094 8.046875 12.566406 8.101562 C 12.398438 8.285156 12.332031 8.507812 12.367188 8.765625 Z M 12.367188 8.765625 "/>
<path style=" stroke:none;fill-rule:evenodd;fill:rgb(56.862745%,56.470588%,57.254902%);fill-opacity:1;" d="M 15.234375 7.699219 C 15.460938 8.171875 15.40625 8.617188 15.066406 9.035156 C 14.992188 9.136719 14.894531 9.179688 14.765625 9.167969 C 14.746094 9.121094 14.722656 9.078125 14.699219 9.035156 C 14.679688 8.765625 14.65625 8.5 14.632812 8.234375 C 14.839844 8.246094 15.03125 8.269531 15.199219 8.300781 C 15.234375 8.101562 15.246094 7.902344 15.234375 7.699219 Z M 15.234375 7.699219 "/>
<path style=" stroke:none;fill-rule:evenodd;fill:rgb(82.745098%,92.156863%,91.764706%);fill-opacity:1;" d="M -0.0351562 6.898438 C 0.0585938 6.890625 0.148438 6.902344 0.234375 6.933594 C 0.394531 7.089844 0.574219 7.222656 0.765625 7.332031 C 0.949219 7.386719 1.117188 7.351562 1.265625 7.234375 C 1.300781 7.296875 1.308594 7.363281 1.300781 7.433594 C 1.214844 7.636719 1.148438 7.847656 1.101562 8.066406 C 1.242188 8.375 1.464844 8.609375 1.765625 8.765625 C 1.8125 8.828125 1.878906 8.847656 1.964844 8.832031 C 1.945312 9.179688 1.96875 9.511719 2.035156 9.832031 C 2.089844 10.425781 2.378906 10.582031 2.898438 10.300781 C 2.898438 10.410156 2.898438 10.523438 2.898438 10.632812 C 1.824219 10.636719 0.847656 10.945312 -0.0351562 11.566406 C -0.0351562 10.011719 -0.0351562 8.457031 -0.0351562 6.898438 Z M -0.0351562 6.898438 "/>
<path style=" stroke:none;fill-rule:evenodd;fill:rgb(64.313725%,64.313725%,64.313725%);fill-opacity:1;" d="M 13.433594 9.167969 C 13.453125 9.058594 13.429688 8.972656 13.367188 8.898438 C 13.453125 8.710938 13.453125 8.523438 13.367188 8.332031 C 13.5 8.300781 13.632812 8.289062 13.765625 8.300781 C 13.746094 8.628906 13.636719 8.917969 13.433594 9.167969 Z M 13.433594 9.167969 "/>
<path style=" stroke:none;fill-rule:evenodd;fill:rgb(80.784314%,80.784314%,80.784314%);fill-opacity:1;" d="M 5.832031 5.699219 C 5.179688 6.730469 4.890625 7.863281 4.964844 9.101562 C 5.070312 9.1875 5.160156 9.285156 5.234375 9.398438 C 5.144531 9.53125 5.054688 9.664062 4.964844 9.800781 C 4.902344 9.832031 4.835938 9.84375 4.765625 9.832031 C 4.640625 9.515625 4.574219 9.183594 4.566406 8.832031 C 4.566406 8.605469 4.613281 8.40625 4.699219 8.234375 C 4.679688 8.4375 4.699219 8.636719 4.765625 8.832031 C 4.832031 7.730469 5.140625 6.707031 5.699219 5.765625 C 5.730469 5.714844 5.773438 5.691406 5.832031 5.699219 Z M 5.832031 5.699219 "/>
<path style=" stroke:none;fill-rule:evenodd;fill:rgb(68.235294%,68.235294%,68.235294%);fill-opacity:1;" d="M 8.765625 6.964844 C 8.542969 7.707031 8.523438 8.453125 8.699219 9.199219 C 8.679688 9.277344 8.65625 9.355469 8.632812 9.433594 C 8.289062 9.492188 7.957031 9.449219 7.632812 9.300781 C 7.59375 9.308594 7.570312 9.332031 7.566406 9.367188 C 7.378906 9.269531 7.269531 9.113281 7.234375 8.898438 C 7.582031 8.996094 7.9375 9.042969 8.300781 9.035156 C 8.234375 8.390625 8.222656 7.746094 8.265625 7.101562 C 8.40625 6.980469 8.574219 6.9375 8.765625 6.964844 Z M 8.765625 6.964844 "/>
<path style=" stroke:none;fill-rule:evenodd;fill:rgb(41.568627%,41.568627%,41.568627%);fill-opacity:1;" d="M 12.566406 9.035156 C 12.761719 9.085938 12.960938 9.109375 13.167969 9.101562 C 13.003906 9.175781 12.824219 9.1875 12.632812 9.132812 C 12.597656 9.109375 12.574219 9.074219 12.566406 9.035156 Z M 12.566406 9.035156 "/>
<path style=" stroke:none;fill-rule:evenodd;fill:rgb(58.039216%,58.039216%,57.647059%);fill-opacity:1;" d="M 3.234375 7.566406 C 3.105469 8.121094 3.085938 8.675781 3.167969 9.234375 C 3.277344 9.320312 3.390625 9.320312 3.5 9.234375 C 3.59375 8.964844 3.660156 8.699219 3.699219 8.433594 C 3.710938 8.789062 3.699219 9.144531 3.667969 9.5 C 3.3125 9.664062 2.945312 9.800781 2.566406 9.898438 C 2.476562 9.222656 2.476562 8.554688 2.566406 7.898438 C 2.546875 8.28125 2.582031 8.660156 2.667969 9.035156 C 2.671875 8.46875 2.738281 7.914062 2.867188 7.367188 C 2.960938 7.253906 3.082031 7.210938 3.234375 7.234375 C 3.234375 7.34375 3.234375 7.457031 3.234375 7.566406 Z M 3.234375 7.566406 "/>
<path style=" stroke:none;fill-rule:evenodd;fill:rgb(41.176471%,45.098039%,45.490196%);fill-opacity:1;" d="M 1.765625 8.765625 C 1.855469 8.765625 1.945312 8.765625 2.035156 8.765625 C 2.035156 9.121094 2.035156 9.476562 2.035156 9.832031 C 1.96875 9.511719 1.945312 9.179688 1.964844 8.832031 C 1.878906 8.847656 1.8125 8.828125 1.765625 8.765625 Z M 1.765625 8.765625 "/>
<path style=" stroke:none;fill-rule:evenodd;fill:rgb(60.784314%,56.862745%,40%);fill-opacity:1;" d="M 7.167969 9.699219 C 7.101562 9.699219 7.035156 9.699219 6.964844 9.699219 C 6.941406 9.609375 6.886719 9.542969 6.800781 9.5 C 6.644531 9.578125 6.5 9.578125 6.367188 9.5 C 6.730469 9.171875 7 9.238281 7.167969 9.699219 Z M 7.167969 9.699219 "/>
<path style=" stroke:none;fill-rule:evenodd;fill:rgb(74.117647%,70.588235%,62.745098%);fill-opacity:1;" d="M 10.566406 9.367188 C 11.03125 9.75 10.945312 9.871094 10.300781 9.734375 C 10.398438 9.613281 10.488281 9.492188 10.566406 9.367188 Z M 10.566406 9.367188 "/>
<path style=" stroke:none;fill-rule:evenodd;fill:rgb(73.333333%,56.078431%,34.117647%);fill-opacity:1;" d="M 6.167969 9.5 C 6.234375 9.5 6.300781 9.5 6.367188 9.5 C 6.5 9.578125 6.644531 9.578125 6.800781 9.5 C 6.886719 9.542969 6.941406 9.609375 6.964844 9.699219 C 6.835938 9.796875 6.726562 9.90625 6.632812 10.035156 C 6.476562 9.851562 6.320312 9.675781 6.167969 9.5 Z M 6.167969 9.5 "/>
<path style=" stroke:none;fill-rule:evenodd;fill:rgb(80.392157%,65.098039%,48.627451%);fill-opacity:1;" d="M 14.433594 9.5 C 14.445312 9.566406 14.421875 9.609375 14.367188 9.632812 C 13.949219 9.652344 13.613281 9.832031 13.367188 10.167969 C 13.261719 10.183594 13.171875 10.226562 13.101562 10.300781 C 13.027344 10.238281 12.941406 10.214844 12.832031 10.234375 C 13.316406 9.949219 13.714844 9.574219 14.035156 9.101562 C 14.167969 9.234375 14.300781 9.367188 14.433594 9.5 Z M 14.433594 9.5 "/>
<path style=" stroke:none;fill-rule:evenodd;fill:rgb(82.352941%,62.352941%,40%);fill-opacity:1;" d="M 11.167969 10.167969 C 10.808594 10.15625 10.453125 10.167969 10.101562 10.199219 C 9.941406 10.316406 9.765625 10.371094 9.566406 10.367188 C 9.671875 10.289062 9.785156 10.210938 9.898438 10.132812 C 10.335938 10.078125 10.757812 10.089844 11.167969 10.167969 Z M 11.167969 10.167969 "/>
<path style=" stroke:none;fill-rule:evenodd;fill:rgb(63.529412%,50.980392%,32.941176%);fill-opacity:1;" d="M 3.632812 10.035156 C 3.746094 10.035156 3.835938 10.078125 3.898438 10.167969 C 3.898438 10.210938 3.898438 10.253906 3.898438 10.300781 C 3.898438 10.367188 3.898438 10.433594 3.898438 10.5 C 3.851562 10.527344 3.820312 10.574219 3.800781 10.632812 C 3.703125 10.523438 3.582031 10.480469 3.433594 10.5 C 3.433594 10.589844 3.433594 10.679688 3.433594 10.765625 C 3.367188 10.558594 3.347656 10.335938 3.367188 10.101562 C 3.472656 10.117188 3.5625 10.09375 3.632812 10.035156 Z M 3.632812 10.035156 "/>
<path style=" stroke:none;fill-rule:evenodd;fill:rgb(98.039216%,17.647059%,15.686275%);fill-opacity:1;" d="M 14.367188 9.898438 C 14.453125 9.9375 14.507812 10.003906 14.535156 10.101562 C 14.578125 10.457031 14.578125 10.8125 14.535156 11.167969 C 14.472656 11.25 14.394531 11.316406 14.300781 11.367188 C 14.265625 11.65625 14.132812 11.875 13.898438 12.035156 C 13.425781 11.953125 13.226562 11.664062 13.300781 11.167969 C 13.292969 10.769531 13.40625 10.414062 13.632812 10.101562 C 13.871094 9.996094 14.113281 9.929688 14.367188 9.898438 Z M 14.367188 9.898438 "/>
<path style=" stroke:none;fill-rule:evenodd;fill:rgb(58.431373%,16.078431%,14.901961%);fill-opacity:1;" d="M 6.167969 9.5 C 6.320312 9.675781 6.476562 9.851562 6.632812 10.035156 C 6.632812 10.054688 6.632812 10.078125 6.632812 10.101562 C 6.585938 10.160156 6.519531 10.183594 6.433594 10.167969 C 6.441406 10.359375 6.351562 10.46875 6.167969 10.5 C 5.523438 10.742188 4.855469 10.820312 4.167969 10.734375 C 4.058594 10.703125 3.96875 10.644531 3.898438 10.566406 C 3.898438 10.542969 3.898438 10.523438 3.898438 10.5 C 3.898438 10.433594 3.898438 10.367188 3.898438 10.300781 C 3.957031 10.324219 3.976562 10.367188 3.964844 10.433594 C 3.996094 10.496094 4.042969 10.554688 4.101562 10.601562 C 4.542969 10.644531 4.988281 10.644531 5.433594 10.601562 C 5.53125 10.574219 5.597656 10.519531 5.632812 10.433594 C 5.773438 10.445312 5.90625 10.421875 6.035156 10.367188 C 6.113281 10.144531 6.113281 9.921875 6.035156 9.699219 C 6.03125 9.597656 6.074219 9.53125 6.167969 9.5 Z M 6.167969 9.5 "/>
<path style=" stroke:none;fill-rule:evenodd;fill:rgb(98.431373%,68.235294%,27.058824%);fill-opacity:1;" d="M 11.167969 10.167969 C 11.1875 10.167969 11.210938 10.167969 11.234375 10.167969 C 11.222656 10.226562 11.246094 10.269531 11.300781 10.300781 C 11.425781 10.339844 11.546875 10.382812 11.667969 10.433594 C 11.695312 10.558594 11.726562 10.679688 11.765625 10.800781 C 11.636719 10.910156 11.503906 11.023438 11.367188 11.132812 C 10.796875 11.285156 10.21875 11.332031 9.632812 11.265625 C 9.519531 11.15625 9.433594 11.035156 9.367188 10.898438 C 9.496094 10.746094 9.5625 10.570312 9.566406 10.367188 C 9.765625 10.371094 9.941406 10.316406 10.101562 10.199219 C 10.453125 10.167969 10.808594 10.15625 11.167969 10.167969 Z M 11.167969 10.167969 "/>
<path style=" stroke:none;fill-rule:evenodd;fill:rgb(88.627451%,78.431373%,57.254902%);fill-opacity:1;" d="M 7.433594 9.964844 C 7.878906 10.253906 8.367188 10.433594 8.898438 10.5 C 8.65625 10.882812 8.636719 11.285156 8.832031 11.699219 C 8.789062 11.699219 8.746094 11.699219 8.699219 11.699219 C 8.65625 11.699219 8.632812 11.679688 8.632812 11.632812 C 8.632812 11.277344 8.632812 10.921875 8.632812 10.566406 C 8.105469 10.589844 7.707031 10.390625 7.433594 9.964844 Z M 7.433594 9.964844 "/>
<path style=" stroke:none;fill-rule:evenodd;fill:rgb(20.784314%,1.568627%,1.960784%);fill-opacity:1;" d="M 3.964844 10.433594 C 4.207031 10.535156 4.460938 10.582031 4.734375 10.566406 C 5.046875 10.574219 5.347656 10.53125 5.632812 10.433594 C 5.597656 10.519531 5.53125 10.574219 5.433594 10.601562 C 4.988281 10.644531 4.542969 10.644531 4.101562 10.601562 C 4.042969 10.554688 3.996094 10.496094 3.964844 10.433594 Z M 3.964844 10.433594 "/>
<path style=" stroke:none;fill-rule:evenodd;fill:rgb(22.352941%,2.745098%,2.745098%);fill-opacity:1;" d="M 14.433594 9.5 C 14.738281 9.933594 14.835938 10.425781 14.734375 10.964844 C 14.71875 11.050781 14.683594 11.117188 14.632812 11.167969 C 14.644531 10.789062 14.632812 10.410156 14.601562 10.035156 C 14.574219 9.898438 14.496094 9.808594 14.367188 9.765625 C 14.367188 9.722656 14.367188 9.679688 14.367188 9.632812 C 14.421875 9.609375 14.445312 9.566406 14.433594 9.5 Z M 14.433594 9.5 "/>
<path style=" stroke:none;fill-rule:evenodd;fill:rgb(69.803922%,11.764706%,11.764706%);fill-opacity:1;" d="M 6.167969 10.5 C 6.171875 10.566406 6.148438 10.621094 6.101562 10.667969 C 5.957031 10.683594 5.84375 10.75 5.765625 10.867188 C 5.140625 10.9375 4.519531 10.949219 3.898438 10.898438 C 3.898438 10.789062 3.898438 10.679688 3.898438 10.566406 C 3.96875 10.644531 4.058594 10.703125 4.167969 10.734375 C 4.855469 10.820312 5.523438 10.742188 6.167969 10.5 Z M 6.167969 10.5 "/>
<path style=" stroke:none;fill-rule:evenodd;fill:rgb(87.058824%,28.235294%,17.647059%);fill-opacity:1;" d="M 14.367188 9.632812 C 14.367188 9.679688 14.367188 9.722656 14.367188 9.765625 C 14.367188 9.8125 14.367188 9.855469 14.367188 9.898438 C 14.113281 9.929688 13.871094 9.996094 13.632812 10.101562 C 13.40625 10.414062 13.292969 10.769531 13.300781 11.167969 C 13.226562 11.664062 13.425781 11.953125 13.898438 12.035156 C 13.859375 12.09375 13.835938 12.160156 13.832031 12.234375 C 13.832031 12.277344 13.832031 12.320312 13.832031 12.367188 C 13.8125 12.433594 13.765625 12.476562 13.699219 12.5 C 13.46875 12.269531 13.28125 12.003906 13.132812 11.699219 C 13.089844 11.320312 13.089844 10.945312 13.132812 10.566406 C 13.226562 10.441406 13.304688 10.308594 13.367188 10.167969 C 13.613281 9.832031 13.949219 9.652344 14.367188 9.632812 Z M 14.367188 9.632812 "/>
<path style=" stroke:none;fill-rule:evenodd;fill:rgb(98.039216%,17.647059%,15.686275%);fill-opacity:1;" d="M 4.234375 11.832031 C 4.234375 11.8125 4.234375 11.789062 4.234375 11.765625 C 4.128906 11.554688 4.0625 11.332031 4.035156 11.101562 C 4.769531 11.050781 5.503906 10.972656 6.234375 10.867188 C 6.3125 10.652344 6.433594 10.460938 6.601562 10.300781 C 6.722656 10.46875 6.777344 10.65625 6.765625 10.867188 C 6.71875 11.164062 6.632812 11.441406 6.5 11.699219 C 6.429688 11.691406 6.363281 11.699219 6.300781 11.734375 C 6.203125 11.867188 6.089844 11.988281 5.964844 12.101562 C 5.570312 12.167969 5.167969 12.1875 4.765625 12.167969 C 4.765625 12.101562 4.765625 12.035156 4.765625 11.964844 C 4.601562 11.890625 4.421875 11.847656 4.234375 11.832031 Z M 4.234375 11.832031 "/>
<path style=" stroke:none;fill-rule:evenodd;fill:rgb(81.960784%,62.745098%,37.647059%);fill-opacity:1;" d="M 11.234375 10.167969 C 11.382812 10.226562 11.539062 10.285156 11.699219 10.332031 C 11.753906 10.464844 11.84375 10.566406 11.964844 10.632812 C 12.050781 10.785156 12.027344 10.917969 11.898438 11.035156 C 11.207031 11.363281 10.472656 11.488281 9.699219 11.398438 C 9.480469 11.335938 9.28125 11.234375 9.101562 11.101562 C 9.09375 10.75 9.25 10.507812 9.566406 10.367188 C 9.5625 10.570312 9.496094 10.746094 9.367188 10.898438 C 9.433594 11.035156 9.519531 11.15625 9.632812 11.265625 C 10.21875 11.332031 10.796875 11.285156 11.367188 11.132812 C 11.503906 11.023438 11.636719 10.910156 11.765625 10.800781 C 11.726562 10.679688 11.695312 10.558594 11.667969 10.433594 C 11.546875 10.382812 11.425781 10.339844 11.300781 10.300781 C 11.246094 10.269531 11.222656 10.226562 11.234375 10.167969 Z M 11.234375 10.167969 "/>
<path style=" stroke:none;fill-rule:evenodd;fill:rgb(98.431373%,84.313725%,47.843137%);fill-opacity:1;" d="M 6.964844 9.699219 C 7.035156 9.699219 7.101562 9.699219 7.167969 9.699219 C 7.289062 9.761719 7.378906 9.847656 7.433594 9.964844 C 7.707031 10.390625 8.105469 10.589844 8.632812 10.566406 C 8.632812 10.921875 8.632812 11.277344 8.632812 11.632812 C 8.0625 11.558594 7.484375 11.546875 6.898438 11.601562 C 6.863281 11.648438 6.820312 11.679688 6.765625 11.699219 C 6.789062 11.609375 6.8125 11.523438 6.832031 11.433594 C 6.894531 11.078125 6.90625 10.722656 6.867188 10.367188 C 6.804688 10.261719 6.726562 10.171875 6.632812 10.101562 C 6.632812 10.078125 6.632812 10.054688 6.632812 10.035156 C 6.726562 9.90625 6.835938 9.796875 6.964844 9.699219 Z M 6.964844 9.699219 "/>
<path style=" stroke:none;fill-rule:evenodd;fill:rgb(94.901961%,71.372549%,39.215686%);fill-opacity:1;" d="M 3.898438 10.5 C 3.898438 10.523438 3.898438 10.542969 3.898438 10.566406 C 3.898438 10.679688 3.898438 10.789062 3.898438 10.898438 C 3.910156 11.125 3.945312 11.347656 4 11.566406 C 4.046875 11.671875 4.125 11.738281 4.234375 11.765625 C 4.234375 11.789062 4.234375 11.8125 4.234375 11.832031 C 4.644531 12.34375 5.175781 12.511719 5.832031 12.332031 C 5.996094 12.257812 6.152344 12.167969 6.300781 12.066406 C 6.46875 11.84375 6.648438 11.632812 6.832031 11.433594 C 6.8125 11.523438 6.789062 11.609375 6.765625 11.699219 C 6.558594 11.964844 6.3125 12.199219 6.035156 12.398438 C 6.046875 12.425781 6.070312 12.4375 6.101562 12.433594 C 5.820312 12.480469 5.53125 12.527344 5.234375 12.566406 C 5.1875 12.523438 5.144531 12.476562 5.101562 12.433594 C 5.019531 12.523438 4.921875 12.566406 4.800781 12.566406 C 4.605469 12.507812 4.414062 12.441406 4.234375 12.367188 C 4.082031 12.28125 3.945312 12.167969 3.832031 12.035156 C 3.632812 11.632812 3.5 11.210938 3.433594 10.765625 C 3.433594 10.679688 3.433594 10.589844 3.433594 10.5 C 3.582031 10.480469 3.703125 10.523438 3.800781 10.632812 C 3.820312 10.574219 3.851562 10.527344 3.898438 10.5 Z M 3.898438 10.5 "/>
<path style=" stroke:none;fill-rule:evenodd;fill:rgb(75.294118%,21.568627%,20.784314%);fill-opacity:1;" d="M 14.367188 9.765625 C 14.496094 9.808594 14.574219 9.898438 14.601562 10.035156 C 14.632812 10.410156 14.644531 10.789062 14.632812 11.167969 C 14.542969 11.390625 14.457031 11.609375 14.367188 11.832031 C 14.1875 11.96875 14.007812 12.105469 13.832031 12.234375 C 13.835938 12.160156 13.859375 12.09375 13.898438 12.035156 C 14.132812 11.875 14.265625 11.65625 14.300781 11.367188 C 14.394531 11.316406 14.472656 11.25 14.535156 11.167969 C 14.578125 10.8125 14.578125 10.457031 14.535156 10.101562 C 14.507812 10.003906 14.453125 9.9375 14.367188 9.898438 C 14.367188 9.855469 14.367188 9.8125 14.367188 9.765625 Z M 14.367188 9.765625 "/>
<path style=" stroke:none;fill-rule:evenodd;fill:rgb(94.901961%,76.078431%,34.901961%);fill-opacity:1;" d="M 8.632812 11.632812 C 8.632812 11.679688 8.65625 11.699219 8.699219 11.699219 C 8.710938 11.855469 8.753906 12 8.832031 12.132812 C 9.027344 12.199219 9.226562 12.242188 9.433594 12.265625 C 9.53125 12.3125 9.574219 12.390625 9.566406 12.5 C 8.414062 12.382812 7.257812 12.359375 6.101562 12.433594 C 6.070312 12.4375 6.046875 12.425781 6.035156 12.398438 C 6.3125 12.199219 6.558594 11.964844 6.765625 11.699219 C 6.820312 11.679688 6.863281 11.648438 6.898438 11.601562 C 7.484375 11.546875 8.0625 11.558594 8.632812 11.632812 Z M 8.632812 11.632812 "/>
<path style=" stroke:none;fill-rule:evenodd;fill:rgb(12.941176%,6.27451%,3.529412%);fill-opacity:1;" d="M 12.367188 10.632812 C 12.613281 11.175781 12.503906 11.65625 12.035156 12.066406 C 11.140625 12.621094 10.230469 12.644531 9.300781 12.132812 C 9.21875 12.0625 9.152344 11.984375 9.101562 11.898438 C 9.183594 11.902344 9.25 11.871094 9.300781 11.800781 C 9.261719 11.695312 9.308594 11.605469 9.433594 11.535156 C 9.257812 11.433594 9.144531 11.289062 9.101562 11.101562 C 9.28125 11.234375 9.480469 11.335938 9.699219 11.398438 C 10.472656 11.488281 11.207031 11.363281 11.898438 11.035156 C 11.832031 11.148438 11.730469 11.234375 11.601562 11.300781 C 11.046875 11.464844 10.480469 11.542969 9.898438 11.535156 C 9.847656 11.554688 9.800781 11.585938 9.765625 11.632812 C 10.300781 11.703125 10.832031 11.703125 11.367188 11.632812 C 11.359375 11.566406 11.382812 11.511719 11.433594 11.464844 C 11.617188 11.453125 11.78125 11.398438 11.933594 11.300781 C 12.050781 11.378906 12.117188 11.488281 12.132812 11.632812 C 12.441406 11.363281 12.519531 11.027344 12.367188 10.632812 Z M 12.367188 10.632812 "/>
<path style=" stroke:none;fill-rule:evenodd;fill:rgb(64.313725%,40.784314%,32.156863%);fill-opacity:1;" d="M 0.234375 11.898438 C 0.601562 12.03125 0.980469 12.128906 1.367188 12.199219 C 2.058594 12.230469 2.746094 12.230469 3.433594 12.199219 C 3.589844 12.359375 3.601562 12.523438 3.464844 12.699219 C 3.433594 13.03125 3.421875 13.367188 3.433594 13.699219 C 3.296875 13.710938 3.164062 13.699219 3.035156 13.667969 C 2.714844 13.558594 2.402344 13.433594 2.101562 13.300781 C 2.453125 13.378906 2.808594 13.433594 3.167969 13.464844 C 3.199219 13.433594 3.234375 13.398438 3.265625 13.367188 C 3.300781 13.011719 3.3125 12.65625 3.300781 12.300781 C 2.980469 12.339844 2.65625 12.359375 2.332031 12.367188 C 1.546875 12.265625 0.757812 12.199219 -0.0351562 12.167969 C -0.0351562 12.121094 -0.0351562 12.078125 -0.0351562 12.035156 C 0.0703125 12.019531 0.160156 11.972656 0.234375 11.898438 Z M 0.234375 11.898438 "/>
<path style=" stroke:none;fill-rule:evenodd;fill:rgb(84.313725%,64.705882%,42.745098%);fill-opacity:1;" d="M 10.167969 12.101562 C 10.101562 12.011719 10.011719 11.941406 9.898438 11.898438 C 10.183594 11.832031 10.472656 11.8125 10.765625 11.832031 C 10.765625 11.8125 10.765625 11.789062 10.765625 11.765625 C 10.980469 11.753906 11.183594 11.710938 11.367188 11.632812 C 11.5625 11.585938 11.75 11.519531 11.933594 11.433594 C 11.964844 11.457031 12 11.476562 12.035156 11.5 C 11.554688 12.144531 10.929688 12.347656 10.167969 12.101562 Z M 10.167969 12.101562 "/>
<path style=" stroke:none;fill-rule:evenodd;fill:rgb(87.058824%,25.882353%,15.294118%);fill-opacity:1;" d="M 6.632812 10.101562 C 6.726562 10.171875 6.804688 10.261719 6.867188 10.367188 C 6.90625 10.722656 6.894531 11.078125 6.832031 11.433594 C 6.648438 11.632812 6.46875 11.84375 6.300781 12.066406 C 6.152344 12.167969 5.996094 12.257812 5.832031 12.332031 C 5.175781 12.511719 4.644531 12.34375 4.234375 11.832031 C 4.421875 11.847656 4.601562 11.890625 4.765625 11.964844 C 4.765625 12.035156 4.765625 12.101562 4.765625 12.167969 C 5.167969 12.1875 5.570312 12.167969 5.964844 12.101562 C 6.089844 11.988281 6.203125 11.867188 6.300781 11.734375 C 6.363281 11.699219 6.429688 11.691406 6.5 11.699219 C 6.632812 11.441406 6.71875 11.164062 6.765625 10.867188 C 6.777344 10.65625 6.722656 10.46875 6.601562 10.300781 C 6.433594 10.460938 6.3125 10.652344 6.234375 10.867188 C 5.503906 10.972656 4.769531 11.050781 4.035156 11.101562 C 4.0625 11.332031 4.128906 11.554688 4.234375 11.765625 C 4.125 11.738281 4.046875 11.671875 4 11.566406 C 3.945312 11.347656 3.910156 11.125 3.898438 10.898438 C 4.519531 10.949219 5.140625 10.9375 5.765625 10.867188 C 5.84375 10.75 5.957031 10.683594 6.101562 10.667969 C 6.148438 10.621094 6.171875 10.566406 6.167969 10.5 C 6.351562 10.46875 6.441406 10.359375 6.433594 10.167969 C 6.519531 10.183594 6.585938 10.160156 6.632812 10.101562 Z M 6.632812 10.101562 "/>
<path style=" stroke:none;fill-rule:evenodd;fill:rgb(41.176471%,9.803922%,9.803922%);fill-opacity:1;" d="M 14.367188 11.832031 C 14.257812 12.078125 14.078125 12.253906 13.832031 12.367188 C 13.832031 12.320312 13.832031 12.277344 13.832031 12.234375 C 14.007812 12.105469 14.1875 11.96875 14.367188 11.832031 Z M 14.367188 11.832031 "/>
<path style=" stroke:none;fill-rule:evenodd;fill:rgb(88.627451%,74.901961%,48.235294%);fill-opacity:1;" d="M 13.367188 10.167969 C 13.304688 10.308594 13.226562 10.441406 13.132812 10.566406 C 13.089844 10.945312 13.089844 11.320312 13.132812 11.699219 C 13.28125 12.003906 13.46875 12.269531 13.699219 12.5 C 13.484375 12.601562 13.261719 12.691406 13.035156 12.765625 C 12.976562 12.894531 12.953125 13.027344 12.964844 13.167969 C 12.632812 13.175781 12.300781 13.167969 11.964844 13.132812 C 9.777344 12.507812 7.554688 12.351562 5.300781 12.667969 C 4.855469 12.898438 4.5 12.800781 4.234375 12.367188 C 4.414062 12.441406 4.605469 12.507812 4.800781 12.566406 C 4.921875 12.566406 5.019531 12.523438 5.101562 12.433594 C 5.144531 12.476562 5.1875 12.523438 5.234375 12.566406 C 5.53125 12.527344 5.820312 12.480469 6.101562 12.433594 C 7.257812 12.359375 8.414062 12.382812 9.566406 12.5 C 9.574219 12.390625 9.53125 12.3125 9.433594 12.265625 C 9.226562 12.242188 9.027344 12.199219 8.832031 12.132812 C 8.753906 12 8.710938 11.855469 8.699219 11.699219 C 8.746094 11.699219 8.789062 11.699219 8.832031 11.699219 C 8.921875 11.765625 9.011719 11.832031 9.101562 11.898438 C 9.152344 11.984375 9.21875 12.0625 9.300781 12.132812 C 10.230469 12.644531 11.140625 12.621094 12.035156 12.066406 C 12.503906 11.65625 12.613281 11.175781 12.367188 10.632812 C 12.367188 10.523438 12.324219 10.433594 12.234375 10.367188 C 12.433594 10.308594 12.632812 10.265625 12.832031 10.234375 C 12.628906 10.496094 12.585938 10.785156 12.699219 11.101562 C 12.652344 11.367188 12.597656 11.632812 12.535156 11.898438 C 12.371094 11.996094 12.226562 12.121094 12.101562 12.265625 C 11.933594 12.269531 11.800781 12.324219 11.699219 12.433594 C 11.175781 12.578125 11.175781 12.734375 11.699219 12.898438 C 12.054688 12.964844 12.410156 12.988281 12.765625 12.964844 C 12.734375 12.777344 12.800781 12.644531 12.964844 12.566406 C 13.15625 12.621094 13.335938 12.578125 13.5 12.433594 C 13.296875 12.335938 13.152344 12.183594 13.066406 11.964844 C 12.921875 11.40625 12.933594 10.851562 13.101562 10.300781 C 13.171875 10.226562 13.261719 10.183594 13.367188 10.167969 Z M 13.367188 10.167969 "/>
<path style=" stroke:none;fill-rule:evenodd;fill:rgb(98.039216%,85.098039%,47.058824%);fill-opacity:1;" d="M 12.832031 10.234375 C 12.941406 10.214844 13.027344 10.238281 13.101562 10.300781 C 12.933594 10.851562 12.921875 11.40625 13.066406 11.964844 C 13.152344 12.183594 13.296875 12.335938 13.5 12.433594 C 13.335938 12.578125 13.15625 12.621094 12.964844 12.566406 C 12.539062 12.492188 12.117188 12.445312 11.699219 12.433594 C 11.800781 12.324219 11.933594 12.269531 12.101562 12.265625 C 12.226562 12.121094 12.371094 11.996094 12.535156 11.898438 C 12.597656 11.632812 12.652344 11.367188 12.699219 11.101562 C 12.585938 10.785156 12.628906 10.496094 12.832031 10.234375 Z M 12.832031 10.234375 "/>
<path style=" stroke:none;fill-rule:evenodd;fill:rgb(93.333333%,69.019608%,34.901961%);fill-opacity:1;" d="M 10.765625 11.832031 C 10.964844 11.832031 11.167969 11.832031 11.367188 11.832031 C 11.367188 11.898438 11.367188 11.964844 11.367188 12.035156 C 11.058594 12.085938 10.746094 12.097656 10.433594 12.066406 C 10.402344 12.039062 10.378906 12.003906 10.367188 11.964844 C 10.507812 11.921875 10.640625 11.878906 10.765625 11.832031 Z M 10.765625 11.832031 "/>
<path style=" stroke:none;fill-rule:evenodd;fill:rgb(67.843137%,50.980392%,38.823529%);fill-opacity:1;" d="M 10.765625 11.765625 C 10.765625 11.789062 10.765625 11.8125 10.765625 11.832031 C 10.472656 11.8125 10.183594 11.832031 9.898438 11.898438 C 10.011719 11.941406 10.101562 12.011719 10.167969 12.101562 C 9.878906 12.035156 9.613281 11.910156 9.367188 11.734375 C 9.832031 11.757812 10.296875 11.765625 10.765625 11.765625 Z M 10.765625 11.765625 "/>
<path style=" stroke:none;fill-rule:evenodd;fill:rgb(94.901961%,76.470588%,33.72549%);fill-opacity:1;" d="M 11.699219 12.433594 C 12.117188 12.445312 12.539062 12.492188 12.964844 12.566406 C 12.800781 12.644531 12.734375 12.777344 12.765625 12.964844 C 12.410156 12.988281 12.054688 12.964844 11.699219 12.898438 C 11.175781 12.734375 11.175781 12.578125 11.699219 12.433594 Z M 11.699219 12.433594 "/>
<path style=" stroke:none;fill-rule:evenodd;fill:rgb(76.862745%,44.705882%,28.235294%);fill-opacity:1;" d="M -0.0351562 12.167969 C 0.757812 12.199219 1.546875 12.265625 2.332031 12.367188 C 2.65625 12.359375 2.980469 12.339844 3.300781 12.300781 C 3.3125 12.65625 3.300781 13.011719 3.265625 13.367188 C 3.234375 13.398438 3.199219 13.433594 3.167969 13.464844 C 2.808594 13.433594 2.453125 13.378906 2.101562 13.300781 C 1.941406 13.316406 1.808594 13.273438 1.699219 13.167969 C 1.667969 13.101562 1.625 13.046875 1.566406 13 C 1.046875 12.847656 0.511719 12.746094 -0.0351562 12.699219 C -0.0351562 12.523438 -0.0351562 12.34375 -0.0351562 12.167969 Z M -0.0351562 12.167969 "/>
<path style=" stroke:none;fill-rule:evenodd;fill:rgb(62.352941%,42.745098%,34.117647%);fill-opacity:1;" d="M -0.0351562 12.765625 C -0.0351562 12.746094 -0.0351562 12.722656 -0.0351562 12.699219 C 0.511719 12.746094 1.046875 12.847656 1.566406 13 C 1.625 13.046875 1.667969 13.101562 1.699219 13.167969 C 1.125 13.035156 0.550781 12.902344 -0.0351562 12.765625 Z M -0.0351562 12.765625 "/>
<path style=" stroke:none;fill-rule:evenodd;fill:rgb(12.156863%,12.156863%,12.156863%);fill-opacity:1;" d="M 6.632812 12.898438 C 7.820312 12.863281 8.996094 12.941406 10.167969 13.132812 C 10.886719 13.257812 11.597656 13.414062 12.300781 13.601562 C 12.941406 13.707031 13.585938 13.796875 14.234375 13.867188 C 13.859375 14.09375 13.449219 14.21875 13 14.234375 C 12.09375 14.105469 11.21875 13.894531 10.367188 13.601562 C 9.796875 13.460938 9.230469 13.472656 8.667969 13.632812 C 7.226562 14.207031 5.75 14.316406 4.234375 13.964844 C 4.167969 13.855469 4.078125 13.765625 3.964844 13.699219 C 4.125 13.546875 4.300781 13.425781 4.5 13.332031 C 5.199219 13.113281 5.910156 12.96875 6.632812 12.898438 Z M 6.632812 12.898438 "/>
<path style=" stroke:none;fill-rule:evenodd;fill:rgb(62.352941%,81.568627%,89.019608%);fill-opacity:1;" d="M 14.632812 12.167969 C 14.914062 12.320312 15.160156 12.519531 15.367188 12.765625 C 14.808594 12.566406 14.773438 12.675781 15.265625 13.101562 C 15.320312 13.433594 15.3125 13.769531 15.234375 14.101562 C 15.175781 14.046875 15.152344 13.976562 15.167969 13.898438 C 15.101562 13.898438 15.035156 13.898438 14.964844 13.898438 C 14.957031 14.410156 14.964844 14.921875 15 15.433594 C 15.167969 15.570312 15.246094 15.75 15.234375 15.964844 C 15.1875 15.964844 15.144531 15.964844 15.101562 15.964844 C 14.996094 15.648438 14.839844 15.359375 14.632812 15.101562 C 14.785156 14.746094 14.808594 14.378906 14.699219 14 C 14.941406 13.75 15.042969 13.449219 15 13.101562 C 14.730469 12.953125 14.453125 12.820312 14.167969 12.699219 C 14.324219 12.519531 14.480469 12.339844 14.632812 12.167969 Z M 14.632812 12.167969 "/>
<path style=" stroke:none;fill-rule:evenodd;fill:rgb(60%,85.490196%,95.686275%);fill-opacity:1;" d="M 15.367188 12.765625 C 15.539062 12.90625 15.738281 12.996094 15.964844 13.035156 C 15.964844 14.011719 15.964844 14.988281 15.964844 15.964844 C 15.722656 15.964844 15.476562 15.964844 15.234375 15.964844 C 15.246094 15.75 15.167969 15.570312 15 15.433594 C 14.964844 14.921875 14.957031 14.410156 14.964844 13.898438 C 15.035156 13.898438 15.101562 13.898438 15.167969 13.898438 C 15.152344 13.976562 15.175781 14.046875 15.234375 14.101562 C 15.3125 13.769531 15.320312 13.433594 15.265625 13.101562 C 14.773438 12.675781 14.808594 12.566406 15.367188 12.765625 Z M 15.367188 12.765625 "/>
<path style=" stroke:none;fill-rule:evenodd;fill:rgb(10.980392%,4.313725%,3.529412%);fill-opacity:1;" d="M 3.632812 10.035156 C 3.5625 10.09375 3.472656 10.117188 3.367188 10.101562 C 3.347656 10.335938 3.367188 10.558594 3.433594 10.765625 C 3.5 11.210938 3.632812 11.632812 3.832031 12.035156 C 3.746094 11.980469 3.675781 11.902344 3.632812 11.800781 C 3.570312 11.769531 3.503906 11.757812 3.433594 11.765625 C 3.457031 11.484375 3.398438 11.214844 3.265625 10.964844 C 3.273438 11.253906 3.28125 11.542969 3.300781 11.832031 C 2.953125 11.871094 2.617188 11.960938 2.300781 12.101562 C 2.367188 12.121094 2.433594 12.144531 2.5 12.167969 C 2.894531 12.128906 3.28125 12.085938 3.667969 12.035156 C 4.070312 12.210938 4.09375 12.386719 3.734375 12.566406 C 3.648438 13.203125 3.570312 13.824219 3.5 14.433594 C 3.5 14.542969 3.5 14.65625 3.5 14.765625 C 3.847656 14.746094 4.179688 14.765625 4.5 14.832031 C 4.144531 14.824219 3.789062 14.832031 3.433594 14.867188 C 3.503906 14.945312 3.59375 14.980469 3.699219 14.964844 C 3.703125 15.308594 3.660156 15.640625 3.566406 15.964844 C 3.542969 15.964844 3.523438 15.964844 3.5 15.964844 C 3.503906 15.648438 3.546875 15.335938 3.632812 15.035156 C 3.5 15.039062 3.386719 14.996094 3.300781 14.898438 C 3.292969 14.628906 3.316406 14.363281 3.367188 14.101562 C 2.851562 13.988281 2.339844 13.855469 1.832031 13.699219 C 1.347656 13.535156 0.859375 13.367188 0.367188 13.199219 C 0.234375 13.167969 0.101562 13.15625 -0.0351562 13.167969 C -0.0351562 13.035156 -0.0351562 12.898438 -0.0351562 12.765625 C 0.550781 12.902344 1.125 13.035156 1.699219 13.167969 C 1.808594 13.273438 1.941406 13.316406 2.101562 13.300781 C 2.402344 13.433594 2.714844 13.558594 3.035156 13.667969 C 3.164062 13.699219 3.296875 13.710938 3.433594 13.699219 C 3.421875 13.367188 3.433594 13.03125 3.464844 12.699219 C 3.601562 12.523438 3.589844 12.359375 3.433594 12.199219 C 2.746094 12.230469 2.058594 12.230469 1.367188 12.199219 C 0.980469 12.128906 0.601562 12.03125 0.234375 11.898438 C 0.339844 11.746094 0.496094 11.679688 0.699219 11.699219 C 0.6875 11.566406 0.734375 11.457031 0.832031 11.367188 C 1.066406 11.246094 1.308594 11.179688 1.566406 11.167969 C 1.566406 11.101562 1.566406 11.035156 1.566406 10.964844 C 1.902344 10.964844 2.234375 10.945312 2.566406 10.898438 C 2.757812 10.890625 2.9375 10.9375 3.101562 11.035156 C 3.144531 11 3.179688 10.953125 3.199219 10.898438 C 3.25 10.566406 3.304688 10.230469 3.367188 9.898438 C 3.441406 9.976562 3.53125 10.019531 3.632812 10.035156 Z M 3.632812 10.035156 "/>
<path style=" stroke:none;fill-rule:evenodd;fill:rgb(64.705882%,43.137255%,35.686275%);fill-opacity:1;" d="M 2.964844 11.167969 C 2.867188 11.140625 2.769531 11.117188 2.667969 11.101562 C 2.328125 11.179688 1.980469 11.234375 1.632812 11.265625 C 1.46875 11.359375 1.3125 11.460938 1.167969 11.566406 C 1.203125 11.613281 1.246094 11.644531 1.300781 11.667969 C 1.878906 11.699219 2.457031 11.710938 3.035156 11.699219 C 3.035156 11.609375 3.035156 11.523438 3.035156 11.433594 C 3.128906 11.519531 3.171875 11.628906 3.167969 11.765625 C 2.382812 11.882812 1.605469 11.847656 0.832031 11.667969 C 0.753906 11.605469 0.753906 11.550781 0.832031 11.5 C 1.089844 11.398438 1.335938 11.289062 1.566406 11.167969 C 1.882812 11.09375 2.207031 11.050781 2.535156 11.035156 C 2.707031 11.035156 2.851562 11.078125 2.964844 11.167969 Z M 2.964844 11.167969 "/>
<path style=" stroke:none;fill-rule:evenodd;fill:rgb(76.078431%,43.137255%,28.235294%);fill-opacity:1;" d="M 2.964844 11.167969 C 3.027344 11.238281 3.050781 11.328125 3.035156 11.433594 C 3.035156 11.523438 3.035156 11.609375 3.035156 11.699219 C 2.457031 11.710938 1.878906 11.699219 1.300781 11.667969 C 1.246094 11.644531 1.203125 11.613281 1.167969 11.566406 C 1.3125 11.460938 1.46875 11.359375 1.632812 11.265625 C 1.980469 11.234375 2.328125 11.179688 2.667969 11.101562 C 2.769531 11.117188 2.867188 11.140625 2.964844 11.167969 Z M 2.964844 11.167969 "/>
<path style=" stroke:none;fill-rule:evenodd;fill:rgb(61.960784%,39.607843%,31.764706%);fill-opacity:1;" d="M 1.832031 13.699219 C 2.339844 13.855469 2.851562 13.988281 3.367188 14.101562 C 3.316406 14.363281 3.292969 14.628906 3.300781 14.898438 C 3.292969 14.621094 3.179688 14.390625 2.964844 14.199219 C 2.5625 14.0625 2.183594 13.898438 1.832031 13.699219 Z M 1.832031 13.699219 "/>
<path style=" stroke:none;fill-rule:evenodd;fill:rgb(76.470588%,44.705882%,29.411765%);fill-opacity:1;" d="M -0.0351562 13.167969 C 0.101562 13.15625 0.234375 13.167969 0.367188 13.199219 C 0.859375 13.367188 1.347656 13.535156 1.832031 13.699219 C 2.183594 13.898438 2.5625 14.0625 2.964844 14.199219 C 3.179688 14.390625 3.292969 14.621094 3.300781 14.898438 C 3.386719 14.996094 3.5 15.039062 3.632812 15.035156 C 3.546875 15.335938 3.503906 15.648438 3.5 15.964844 C 3.320312 15.964844 3.144531 15.964844 2.964844 15.964844 C 2.886719 15.753906 2.753906 15.574219 2.566406 15.433594 C 2.027344 15.195312 1.492188 14.941406 0.964844 14.667969 C 0.632812 14.632812 0.300781 14.621094 -0.0351562 14.632812 C -0.0351562 14.144531 -0.0351562 13.65625 -0.0351562 13.167969 Z M -0.0351562 13.167969 "/>
<path style=" stroke:none;fill-rule:evenodd;fill:rgb(81.960784%,81.960784%,81.960784%);fill-opacity:1;" d="M 4.832031 14.300781 C 5.542969 14.34375 6.074219 14.652344 6.433594 15.234375 C 6.425781 15.410156 6.472656 15.566406 6.566406 15.699219 C 6.566406 15.789062 6.566406 15.878906 6.566406 15.964844 C 6.433594 15.964844 6.300781 15.964844 6.167969 15.964844 C 6.175781 15.832031 6.167969 15.699219 6.132812 15.566406 C 5.988281 15.433594 5.890625 15.277344 5.832031 15.101562 C 5.605469 15.019531 5.382812 14.921875 5.167969 14.800781 C 4.695312 14.6875 4.230469 14.554688 3.765625 14.398438 C 4.117188 14.3125 4.472656 14.277344 4.832031 14.300781 Z M 4.832031 14.300781 "/>
<path style=" stroke:none;fill-rule:evenodd;fill:rgb(81.176471%,81.568627%,81.176471%);fill-opacity:1;" d="M 13.964844 14.300781 C 14.101562 14.289062 14.234375 14.300781 14.367188 14.332031 C 14.425781 14.421875 14.449219 14.523438 14.433594 14.632812 C 14.210938 14.621094 13.988281 14.632812 13.765625 14.667969 C 13.609375 14.785156 13.429688 14.863281 13.234375 14.898438 C 13.078125 15.085938 12.914062 15.265625 12.734375 15.433594 C 12.714844 15.628906 12.660156 15.804688 12.566406 15.964844 C 12.433594 15.964844 12.300781 15.964844 12.167969 15.964844 C 12.398438 15.027344 12.996094 14.46875 13.964844 14.300781 Z M 13.964844 14.300781 "/>
<path style=" stroke:none;fill-rule:evenodd;fill:rgb(69.411765%,69.411765%,69.411765%);fill-opacity:1;" d="M 4.832031 14.300781 C 4.472656 14.277344 4.117188 14.3125 3.765625 14.398438 C 4.230469 14.554688 4.695312 14.6875 5.167969 14.800781 C 5.382812 14.921875 5.605469 15.019531 5.832031 15.101562 C 5.890625 15.277344 5.988281 15.433594 6.132812 15.566406 C 6.167969 15.699219 6.175781 15.832031 6.167969 15.964844 C 6.101562 15.964844 6.035156 15.964844 5.964844 15.964844 C 5.933594 15.789062 5.867188 15.621094 5.765625 15.464844 C 5.398438 15.148438 4.976562 14.9375 4.5 14.832031 C 4.179688 14.765625 3.847656 14.746094 3.5 14.765625 C 3.5 14.65625 3.5 14.542969 3.5 14.433594 C 3.574219 14.390625 3.640625 14.335938 3.699219 14.265625 C 4.089844 14.210938 4.46875 14.222656 4.832031 14.300781 Z M 4.832031 14.300781 "/>
<path style=" stroke:none;fill-rule:evenodd;fill:rgb(66.27451%,42.352941%,32.941176%);fill-opacity:1;" d="M -0.0351562 14.699219 C -0.0351562 14.679688 -0.0351562 14.65625 -0.0351562 14.632812 C 0.300781 14.621094 0.632812 14.632812 0.964844 14.667969 C 1.492188 14.941406 2.027344 15.195312 2.566406 15.433594 C 2.753906 15.574219 2.886719 15.753906 2.964844 15.964844 C 2.921875 15.964844 2.878906 15.964844 2.832031 15.964844 C 2.019531 15.238281 1.0625 14.816406 -0.0351562 14.699219 Z M -0.0351562 14.699219 "/>
<path style=" stroke:none;fill-rule:evenodd;fill:rgb(11.764706%,3.137255%,2.352941%);fill-opacity:1;" d="M -0.0351562 14.699219 C 1.0625 14.816406 2.019531 15.238281 2.832031 15.964844 C 2.609375 15.964844 2.390625 15.964844 2.167969 15.964844 C 1.53125 15.457031 0.796875 15.167969 -0.0351562 15.101562 C -0.0351562 14.964844 -0.0351562 14.832031 -0.0351562 14.699219 Z M -0.0351562 14.699219 "/>
<path style=" stroke:none;fill-rule:evenodd;fill:rgb(13.72549%,13.72549%,13.72549%);fill-opacity:1;" d="M 11.566406 15.101562 C 11.042969 15.246094 10.511719 15.390625 9.964844 15.535156 C 8.902344 15.5625 7.855469 15.417969 6.832031 15.101562 C 6.773438 15.101562 6.726562 15.125 6.699219 15.167969 C 6.664062 15.089844 6.644531 15.015625 6.632812 14.933594 C 6.746094 14.921875 6.855469 14.910156 6.964844 14.898438 C 8.492188 15.082031 10.027344 15.148438 11.566406 15.101562 Z M 11.566406 15.101562 "/>
<path style=" stroke:none;fill-rule:evenodd;fill:rgb(70.588235%,70.588235%,70.588235%);fill-opacity:1;" d="M 13.964844 14.300781 C 14.128906 14.234375 14.308594 14.214844 14.5 14.234375 C 14.5 14.410156 14.5 14.589844 14.5 14.765625 C 14.066406 14.839844 13.664062 15.003906 13.300781 15.265625 C 13.019531 15.417969 12.863281 15.652344 12.832031 15.964844 C 12.746094 15.964844 12.65625 15.964844 12.566406 15.964844 C 12.660156 15.804688 12.714844 15.628906 12.734375 15.433594 C 12.914062 15.265625 13.078125 15.085938 13.234375 14.898438 C 13.429688 14.863281 13.609375 14.785156 13.765625 14.667969 C 13.988281 14.632812 14.210938 14.621094 14.433594 14.632812 C 14.449219 14.523438 14.425781 14.421875 14.367188 14.332031 C 14.234375 14.300781 14.101562 14.289062 13.964844 14.300781 Z M 13.964844 14.300781 "/>
<path style=" stroke:none;fill-rule:evenodd;fill:rgb(69.019608%,44.313725%,35.686275%);fill-opacity:1;" d="M -0.0351562 15.101562 C 0.796875 15.167969 1.53125 15.457031 2.167969 15.964844 C 2.054688 15.964844 1.945312 15.964844 1.832031 15.964844 C 1.839844 15.898438 1.816406 15.84375 1.765625 15.800781 C 1.589844 15.765625 1.414062 15.753906 1.234375 15.765625 C 1.25 15.636719 1.207031 15.535156 1.101562 15.464844 C 0.726562 15.378906 0.347656 15.324219 -0.0351562 15.300781 C -0.0351562 15.234375 -0.0351562 15.167969 -0.0351562 15.101562 Z M -0.0351562 15.101562 "/>
<path style=" stroke:none;fill-rule:evenodd;fill:rgb(4.313725%,4.313725%,4.313725%);fill-opacity:1;" d="M 4.5 14.832031 C 4.976562 14.9375 5.398438 15.148438 5.765625 15.464844 C 5.867188 15.621094 5.933594 15.789062 5.964844 15.964844 C 5.765625 15.964844 5.566406 15.964844 5.367188 15.964844 C 5.074219 15.410156 4.605469 15.164062 3.964844 15.234375 C 3.964844 15.480469 3.941406 15.722656 3.898438 15.964844 C 3.789062 15.964844 3.679688 15.964844 3.566406 15.964844 C 3.660156 15.640625 3.703125 15.308594 3.699219 14.964844 C 3.59375 14.980469 3.503906 14.945312 3.433594 14.867188 C 3.789062 14.832031 4.144531 14.824219 4.5 14.832031 Z M 4.5 14.832031 "/>
<path style=" stroke:none;fill-rule:evenodd;fill:rgb(76.862745%,45.098039%,28.627451%);fill-opacity:1;" d="M -0.0351562 15.300781 C 0.347656 15.324219 0.726562 15.378906 1.101562 15.464844 C 1.207031 15.535156 1.25 15.636719 1.234375 15.765625 C 1.414062 15.753906 1.589844 15.765625 1.765625 15.800781 C 1.816406 15.84375 1.839844 15.898438 1.832031 15.964844 C 1.210938 15.964844 0.589844 15.964844 -0.0351562 15.964844 C -0.0351562 15.746094 -0.0351562 15.523438 -0.0351562 15.300781 Z M -0.0351562 15.300781 "/>
<path style=" stroke:none;fill-rule:evenodd;fill:rgb(12.156863%,12.156863%,12.156863%);fill-opacity:1;" d="M 5.367188 15.964844 C 4.878906 15.964844 4.390625 15.964844 3.898438 15.964844 C 3.941406 15.722656 3.964844 15.480469 3.964844 15.234375 C 4.605469 15.164062 5.074219 15.410156 5.367188 15.964844 Z M 5.367188 15.964844 "/>
<path style=" stroke:none;fill-rule:evenodd;fill:rgb(69.411765%,69.411765%,69.411765%);fill-opacity:1;" d="M 12.035156 15.300781 C 11.257812 15.480469 10.480469 15.644531 9.699219 15.800781 C 9.59375 15.816406 9.527344 15.871094 9.5 15.964844 C 9.433594 15.964844 9.367188 15.964844 9.300781 15.964844 C 9.257812 15.886719 9.179688 15.839844 9.066406 15.832031 C 8.296875 15.6875 7.527344 15.53125 6.765625 15.367188 C 6.707031 15.320312 6.683594 15.253906 6.699219 15.167969 C 6.726562 15.125 6.773438 15.101562 6.832031 15.101562 C 7.855469 15.417969 8.902344 15.5625 9.964844 15.535156 C 10.511719 15.390625 11.042969 15.246094 11.566406 15.101562 C 11.792969 15.054688 12.015625 15.054688 12.234375 15.101562 C 12.1875 15.191406 12.121094 15.257812 12.035156 15.300781 Z M 12.035156 15.300781 "/>
<path style=" stroke:none;fill-rule:evenodd;fill:rgb(12.156863%,12.156863%,12.156863%);fill-opacity:1;" d="M 14.632812 15.964844 C 14.1875 15.964844 13.746094 15.964844 13.300781 15.964844 C 13.347656 15.820312 13.4375 15.695312 13.566406 15.601562 C 13.78125 15.480469 14.003906 15.382812 14.234375 15.300781 C 14.277344 15.320312 14.320312 15.34375 14.367188 15.367188 C 14.460938 15.570312 14.550781 15.769531 14.632812 15.964844 Z M 14.632812 15.964844 "/>
<path style=" stroke:none;fill-rule:evenodd;fill:rgb(13.333333%,13.333333%,13.333333%);fill-opacity:1;" d="M 6.765625 15.367188 C 7.527344 15.53125 8.296875 15.6875 9.066406 15.832031 C 9.179688 15.839844 9.257812 15.886719 9.300781 15.964844 C 8.476562 15.964844 7.65625 15.964844 6.832031 15.964844 C 6.832031 15.761719 6.8125 15.5625 6.765625 15.367188 Z M 6.765625 15.367188 "/>
<path style=" stroke:none;fill-rule:evenodd;fill:rgb(39.215686%,39.215686%,39.215686%);fill-opacity:1;" d="M 6.433594 15.234375 C 6.527344 15.367188 6.574219 15.523438 6.566406 15.699219 C 6.472656 15.566406 6.425781 15.410156 6.433594 15.234375 Z M 6.433594 15.234375 "/>
<path style=" stroke:none;fill-rule:evenodd;fill:rgb(12.54902%,12.54902%,12.54902%);fill-opacity:1;" d="M 12.035156 15.300781 C 12.007812 15.535156 11.941406 15.757812 11.832031 15.964844 C 11.054688 15.964844 10.277344 15.964844 9.5 15.964844 C 9.527344 15.871094 9.59375 15.816406 9.699219 15.800781 C 10.480469 15.644531 11.257812 15.480469 12.035156 15.300781 Z M 12.035156 15.300781 "/>
</g>
</svg>
