<?xml version="1.0" encoding="UTF-8"?>
<!DOCTYPE svg PUBLIC "-//W3C//DTD SVG 1.1//EN" "http://www.w3.org/Graphics/SVG/1.1/DTD/svg11.dtd">
<svg xmlns="http://www.w3.org/2000/svg" version="1.1" width="240px" height="240px" style="shape-rendering:geometricPrecision; text-rendering:geometricPrecision; image-rendering:optimizeQuality; fill-rule:evenodd; clip-rule:evenodd" xmlns:xlink="http://www.w3.org/1999/xlink">
<g><path style="opacity:1" fill="#ec96d9" d="M -0.5,-0.5 C 8.5,-0.5 17.5,-0.5 26.5,-0.5C 27.8823,2.3943 29.8823,4.8943 32.5,7C 38.2936,10.309 43.6269,14.1423 48.5,18.5C 49.1175,20.2292 50.1175,21.7292 51.5,23C 58.1565,26.5498 64.4899,30.5498 70.5,35C 76.8649,40.2233 79.8649,47.0566 79.5,55.5C 79.1667,55.5 78.8333,55.5 78.5,55.5C 75.1501,55.335 71.8168,55.5017 68.5,56C 66.2465,58.3333 63.9132,60.6667 61.5,63C 59.8333,63.6667 58.1667,63.6667 56.5,63C 54.7577,59.1281 51.7577,57.2947 47.5,57.5C 47.1788,55.9519 46.1788,55.2852 44.5,55.5C 43.7659,54.2921 43.4326,52.9587 43.5,51.5C 37.9312,49.1007 33.7646,45.1007 31,39.5C 30.586,39.9574 30.086,40.2907 29.5,40.5C 24.5554,39.0637 20.5554,36.2304 17.5,32C 15.8659,31.5065 14.1992,31.3398 12.5,31.5C 12.7135,29.8561 12.3802,28.3561 11.5,27C 7.6408,24.9931 3.6408,23.4931 -0.5,22.5C -0.5,14.8333 -0.5,7.16667 -0.5,-0.5 Z"/></g>
<g><path style="opacity:1" fill="#d4ecec" d="M 28.5,-0.5 C 98.8333,-0.5 169.167,-0.5 239.5,-0.5C 239.5,64.8333 239.5,130.167 239.5,195.5C 236.097,194.927 233.097,193.594 230.5,191.5C 227.384,187.782 223.718,184.782 219.5,182.5C 225.386,172.988 227.386,162.654 225.5,151.5C 225.567,149.599 225.233,147.766 224.5,146C 231.566,141.176 235.899,134.509 237.5,126C 236.258,107.938 230.091,91.7711 219,77.5C 204.409,60.952 186.909,48.452 166.5,40C 149.93,32.1756 137.097,36.009 128,51.5C 126.552,49.1061 124.386,47.6061 121.5,47C 114.233,45.4853 106.899,45.1519 99.5,46C 94.2989,48.4319 88.9656,50.5986 83.5,52.5C 83.781,46.245 82.781,40.245 80.5,34.5C 78.1691,34.5023 76.1691,33.669 74.5,32C 71.6107,26.3735 66.9441,23.8735 60.5,24.5C 58.0425,23.8757 56.3758,22.3757 55.5,20C 53.8455,19.3923 52.1789,18.8923 50.5,18.5C 49.2965,16.3655 47.4632,15.0322 45,14.5C 43.5524,10.5124 40.7191,8.01238 36.5,7C 35.6634,5.98873 35.33,4.82207 35.5,3.5C 31.7779,4.32014 29.4446,2.98681 28.5,-0.5 Z"/></g>
<g><path style="opacity:1" fill="#e5d7ef" d="M 26.5,-0.5 C 27.1667,-0.5 27.8333,-0.5 28.5,-0.5C 29.4446,2.98681 31.7779,4.32014 35.5,3.5C 35.33,4.82207 35.6634,5.98873 36.5,7C 40.7191,8.01238 43.5524,10.5124 45,14.5C 47.4632,15.0322 49.2965,16.3655 50.5,18.5C 49.8333,18.5 49.1667,18.5 48.5,18.5C 43.6269,14.1423 38.2936,10.309 32.5,7C 29.8823,4.8943 27.8823,2.3943 26.5,-0.5 Z"/></g>
<g><path style="opacity:1" fill="#e1e2f2" d="M 50.5,18.5 C 52.1789,18.8923 53.8455,19.3923 55.5,20C 56.3758,22.3757 58.0425,23.8757 60.5,24.5C 66.9441,23.8735 71.6107,26.3735 74.5,32C 76.1691,33.669 78.1691,34.5023 80.5,34.5C 82.781,40.245 83.781,46.245 83.5,52.5C 83.5,53.1667 83.1667,53.5 82.5,53.5C 81.7074,49.2983 80.8741,44.9649 80,40.5C 71.2029,34.3841 62.3695,28.2174 53.5,22C 52.2899,20.9609 51.2899,19.7942 50.5,18.5 Z"/></g>
<g><path style="opacity:1" fill="#d6a5de" d="M -0.5,23.5 C -0.5,23.1667 -0.5,22.8333 -0.5,22.5C 3.6408,23.4931 7.6408,24.9931 11.5,27C 12.3802,28.3561 12.7135,29.8561 12.5,31.5C 14.1992,31.3398 15.8659,31.5065 17.5,32C 20.5554,36.2304 24.5554,39.0637 29.5,40.5C 30.086,40.2907 30.586,39.9574 31,39.5C 33.7646,45.1007 37.9312,49.1007 43.5,51.5C 43.4326,52.9587 43.7659,54.2921 44.5,55.5C 41.5294,53.0097 38.1961,51.0097 34.5,49.5C 30.8509,47.6004 27.8509,44.7671 25.5,41C 16.9918,36.4 9.32512,30.7333 2.5,24C 1.55198,23.5172 0.551975,23.3505 -0.5,23.5 Z"/></g>
<g><path style="opacity:1" fill="#9adaf1" d="M -0.5,23.5 C 0.551975,23.3505 1.55198,23.5172 2.5,24C 9.32512,30.7333 16.9918,36.4 25.5,41C 27.8509,44.7671 30.8509,47.6004 34.5,49.5C 34.2148,51.288 34.5481,52.9547 35.5,54.5C 37.3222,54.4626 39.3222,54.796 41.5,55.5C 41.2606,57.4672 41.5939,59.3005 42.5,61C 45.5355,61.709 48.3688,62.8756 51,64.5C 52.2121,67.8342 51.3788,70.3342 48.5,72C 49.2524,72.6708 49.5858,73.5041 49.5,74.5C 37.2593,85.0682 27.2593,97.4016 19.5,111.5C 19.6495,110.448 19.4828,109.448 19,108.5C 16.7569,110.282 14.2569,110.782 11.5,110C 8.59007,108.357 5.92341,106.357 3.5,104C 2.20677,103.51 0.873441,103.343 -0.5,103.5C -0.5,76.8333 -0.5,50.1667 -0.5,23.5 Z"/></g>
<g><path style="opacity:1" fill="#daa4d2" d="M 48.5,18.5 C 49.1667,18.5 49.8333,18.5 50.5,18.5C 51.2899,19.7942 52.2899,20.9609 53.5,22C 62.3695,28.2174 71.2029,34.3841 80,40.5C 80.8741,44.9649 81.7074,49.2983 82.5,53.5C 81.7095,54.4013 80.7095,55.0679 79.5,55.5C 79.8649,47.0566 76.8649,40.2233 70.5,35C 64.4899,30.5498 58.1565,26.5498 51.5,23C 50.1175,21.7292 49.1175,20.2292 48.5,18.5 Z"/></g>
<g><path style="opacity:1" fill="#0d0e0f" d="M 225.5,151.5 C 224.081,148.404 223.081,145.071 222.5,141.5C 222.977,140.522 223.643,139.689 224.5,139C 223.263,138.768 222.263,138.268 221.5,137.5C 223.39,137.703 224.89,137.037 226,135.5C 231.076,129.245 231.909,122.578 228.5,115.5C 228.5,115.167 228.5,114.833 228.5,114.5C 226.873,104.789 223.373,95.7893 218,87.5C 208.248,75.2502 196.748,65.2502 183.5,57.5C 175.433,51.3003 166.433,46.9669 156.5,44.5C 147.916,41.3407 141.25,43.6741 136.5,51.5C 135.512,52.795 134.512,54.1283 133.5,55.5C 131.088,55.6695 128.921,55.0028 127,53.5C 126,54.1667 125,54.8333 124,55.5C 116.721,52.7536 109.221,51.9202 101.5,53C 94.5161,55.7055 87.8494,58.8722 81.5,62.5C 55.1339,74.8661 35.8005,94.1995 23.5,120.5C 25.0905,122.633 27.0905,124.299 29.5,125.5C 30.0667,120.381 31.7334,115.714 34.5,111.5C 35.391,110.89 36.391,110.557 37.5,110.5C 41.0285,112.646 41.3619,115.313 38.5,118.5C 37.1771,128.341 37.1771,138.341 38.5,148.5C 44.1969,146.99 49.6969,144.99 55,142.5C 55.4994,137.177 55.666,131.844 55.5,126.5C 55.8378,116.637 57.8378,107.137 61.5,98C 62.1301,96.6898 63.1301,95.8565 64.5,95.5C 67.2431,95.0772 68.5765,96.2439 68.5,99C 66.7963,101.916 65.7963,105.083 65.5,108.5C 64.7321,109.263 64.2321,110.263 64,111.5C 61.8368,124.894 62.0035,138.228 64.5,151.5C 62.4021,150.516 60.4021,150.849 58.5,152.5C 57.5326,151.194 56.1993,150.527 54.5,150.5C 52.9557,150.297 51.6223,149.63 50.5,148.5C 49.5577,153.479 48.7244,158.479 48,163.5C 47.6924,164.308 47.1924,164.975 46.5,165.5C 44.0442,164.052 41.3775,163.386 38.5,163.5C 33.5193,164.165 28.5193,164.498 23.5,164.5C 23.5,165.5 23.5,166.5 23.5,167.5C 19.6346,167.676 15.9679,168.676 12.5,170.5C 10.9951,171.842 10.3285,173.508 10.5,175.5C 7.42307,175.179 5.08974,176.179 3.5,178.5C 2.39514,179.6 1.06181,180.267 -0.5,180.5C -0.5,178.167 -0.5,175.833 -0.5,173.5C 12.7186,164.205 27.3853,159.538 43.5,159.5C 43.5,157.833 43.5,156.167 43.5,154.5C 35.7001,158.71 31.3668,156.376 30.5,147.5C 30.5,142.167 30.5,136.833 30.5,131.5C 29.1667,131.5 27.8333,131.5 26.5,131.5C 21.9831,129.149 18.6497,125.649 16.5,121C 17.2065,117.715 18.2065,114.548 19.5,111.5C 27.2593,97.4016 37.2593,85.0682 49.5,74.5C 52.8103,72.5179 55.8103,70.1846 58.5,67.5C 64.9414,63.0445 71.6081,59.0445 78.5,55.5C 78.8333,55.5 79.1667,55.5 79.5,55.5C 80.7095,55.0679 81.7095,54.4013 82.5,53.5C 83.1667,53.5 83.5,53.1667 83.5,52.5C 88.9656,50.5986 94.2989,48.4319 99.5,46C 106.899,45.1519 114.233,45.4853 121.5,47C 124.386,47.6061 126.552,49.1061 128,51.5C 137.097,36.009 149.93,32.1756 166.5,40C 186.909,48.452 204.409,60.952 219,77.5C 230.091,91.7711 236.258,107.938 237.5,126C 235.899,134.509 231.566,141.176 224.5,146C 225.233,147.766 225.567,149.599 225.5,151.5 Z"/></g>
<g><path style="opacity:1" fill="#828283" d="M 156.5,44.5 C 153.482,44.3354 150.482,44.502 147.5,45C 143.5,46.7102 139.833,48.8769 136.5,51.5C 141.25,43.6741 147.916,41.3407 156.5,44.5 Z"/></g>
<g><path style="opacity:1" fill="#b1b2b0" d="M 133.5,55.5 C 131.218,57.1781 128.551,58.5114 125.5,59.5C 120.324,57.5473 114.991,57.0473 109.5,58C 108.027,58.7096 107.36,59.8762 107.5,61.5C 108.873,61.3433 110.207,61.51 111.5,62C 109.527,62.4955 107.527,62.6621 105.5,62.5C 105.784,64.4147 105.451,66.0813 104.5,67.5C 104.5,65.8333 104.5,64.1667 104.5,62.5C 95.5336,63.2122 87.3669,66.2122 80,71.5C 78.5603,72.1476 77.0603,72.4809 75.5,72.5C 77.0311,71.0755 76.6977,70.4088 74.5,70.5C 75.911,68.461 77.911,67.461 80.5,67.5C 80.366,65.7085 80.6993,64.0418 81.5,62.5C 87.8494,58.8722 94.5161,55.7055 101.5,53C 109.221,51.9202 116.721,52.7536 124,55.5C 125,54.8333 126,54.1667 127,53.5C 128.921,55.0028 131.088,55.6695 133.5,55.5 Z"/></g>
<g><path style="opacity:1" fill="#a7cfeb" d="M 34.5,49.5 C 38.1961,51.0097 41.5294,53.0097 44.5,55.5C 46.1788,55.2852 47.1788,55.9519 47.5,57.5C 51.3971,60.6092 55.0638,63.9426 58.5,67.5C 55.8103,70.1846 52.8103,72.5179 49.5,74.5C 49.5858,73.5041 49.2524,72.6708 48.5,72C 51.3788,70.3342 52.2121,67.8342 51,64.5C 48.3688,62.8756 45.5355,61.709 42.5,61C 41.5939,59.3005 41.2606,57.4672 41.5,55.5C 39.3222,54.796 37.3222,54.4626 35.5,54.5C 34.5481,52.9547 34.2148,51.288 34.5,49.5 Z"/></g>
<g><path style="opacity:1" fill="#d3d3d3" d="M 211.5,118.5 C 207.83,109.689 203.663,101.022 199,92.5C 195.718,88.2406 192.218,84.2406 188.5,80.5C 187.081,79.5489 185.415,79.2155 183.5,79.5C 183.657,80.8734 183.49,82.2068 183,83.5C 179.409,80.5872 177.076,76.9205 176,72.5C 171.492,70.0605 166.992,67.5605 162.5,65C 161.663,63.9887 161.33,62.8221 161.5,61.5C 156.315,59.7483 150.981,59.2483 145.5,60C 142.362,61.9709 140.695,64.8042 140.5,68.5C 139.564,69.9744 138.23,70.9744 136.5,71.5C 135.566,70.4324 135.232,69.099 135.5,67.5C 135.494,65.1556 134.327,63.8223 132,63.5C 129.817,63.5221 128.317,64.5221 127.5,66.5C 123.231,66.3488 119.898,68.0155 117.5,71.5C 116.114,74.9753 114.781,78.4753 113.5,82C 115.158,85.1759 114.158,86.6759 110.5,86.5C 109.178,86.33 108.011,86.6634 107,87.5C 105.604,94.8838 104.104,102.217 102.5,109.5C 101.418,114.36 100.418,119.36 99.5,124.5C 98.1974,126.377 96.6974,128.043 95,129.5C 94.2917,128.619 93.4584,127.953 92.5,127.5C 92.5,126.833 92.1667,126.5 91.5,126.5C 90.4695,125.448 89.8029,124.114 89.5,122.5C 90.2634,116.432 92.0967,110.765 95,105.5C 95.3333,103.5 95.6667,101.5 96,99.5C 100.219,92.1625 104.052,84.6625 107.5,77C 107.245,75.6739 106.578,74.6739 105.5,74C 100.017,72.3864 96.5166,74.2198 95,79.5C 93.6976,80.0848 92.531,80.7515 91.5,81.5C 89.8595,82.147 88.5261,83.147 87.5,84.5C 87.4772,82.4004 88.1439,80.5671 89.5,79C 88.2413,77.3977 86.908,77.5643 85.5,79.5C 82.0439,84.7478 79.3772,90.4145 77.5,96.5C 77.0431,97.2975 76.3764,97.6309 75.5,97.5C 72.5834,92.9838 68.9167,92.3172 64.5,95.5C 63.1301,95.8565 62.1301,96.6898 61.5,98C 57.8378,107.137 55.8378,116.637 55.5,126.5C 54.9304,130.496 53.9304,134.496 52.5,138.5C 50.8333,139.833 49.1667,139.833 47.5,138.5C 46.2645,130.122 46.5978,121.789 48.5,113.5C 49.7587,107.957 51.9254,102.624 55,97.5C 56.1096,95.9632 57.6096,95.2965 59.5,95.5C 59.1568,93.5168 59.8235,92.1834 61.5,91.5C 63.288,91.7852 64.9547,91.4519 66.5,90.5C 76.6873,78.628 89.3539,70.9613 104.5,67.5C 105.451,66.0813 105.784,64.4147 105.5,62.5C 107.527,62.6621 109.527,62.4955 111.5,62C 110.207,61.51 108.873,61.3433 107.5,61.5C 107.36,59.8762 108.027,58.7096 109.5,58C 114.991,57.0473 120.324,57.5473 125.5,59.5C 128.551,58.5114 131.218,57.1781 133.5,55.5C 137.976,55.007 141.976,53.3404 145.5,50.5C 152.1,50.6303 158.767,50.797 165.5,51C 168.923,50.8551 170.923,52.3551 171.5,55.5C 168.859,54.7369 166.192,54.5702 163.5,55C 191.091,66.5936 209.758,86.5936 219.5,115C 218.737,120.686 216.07,121.853 211.5,118.5 Z"/></g>
<g><path style="opacity:1" fill="#b2b2b2" d="M 188.5,80.5 C 184.775,80.7796 183.608,82.7796 185,86.5C 188.771,90.431 191.938,94.7643 194.5,99.5C 196.309,104.672 197.642,110.005 198.5,115.5C 197.5,115.5 196.5,115.5 195.5,115.5C 192.99,115.946 190.99,115.28 189.5,113.5C 190.641,110.36 190.808,107.027 190,103.5C 188.117,102.347 187.284,100.681 187.5,98.5C 186.5,98.5 185.5,98.5 184.5,98.5C 184.104,93.7978 182.27,89.7978 179,86.5C 178.517,85.552 178.351,84.552 178.5,83.5C 175.451,81.1373 172.118,79.1373 168.5,77.5C 163.726,73.9021 159.06,70.0688 154.5,66C 152.711,65.0862 150.877,64.2529 149,63.5C 145.789,64.5221 142.956,66.1888 140.5,68.5C 140.695,64.8042 142.362,61.9709 145.5,60C 150.981,59.2483 156.315,59.7483 161.5,61.5C 161.33,62.8221 161.663,63.9887 162.5,65C 166.992,67.5605 171.492,70.0605 176,72.5C 177.076,76.9205 179.409,80.5872 183,83.5C 183.49,82.2068 183.657,80.8734 183.5,79.5C 185.415,79.2155 187.081,79.5489 188.5,80.5 Z"/></g>
<g><path style="opacity:1" fill="#d19fcd" d="M 78.5,55.5 C 71.6081,59.0445 64.9414,63.0445 58.5,67.5C 55.0638,63.9426 51.3971,60.6092 47.5,57.5C 51.7577,57.2947 54.7577,59.1281 56.5,63C 58.1667,63.6667 59.8333,63.6667 61.5,63C 63.9132,60.6667 66.2465,58.3333 68.5,56C 71.8168,55.5017 75.1501,55.335 78.5,55.5 Z"/></g>
<g><path style="opacity:1" fill="#89898a" d="M 183.5,57.5 C 196.748,65.2502 208.248,75.2502 218,87.5C 223.373,95.7893 226.873,104.789 228.5,114.5C 226.983,114.489 225.816,113.823 225,112.5C 220.794,102.296 216.294,92.2962 211.5,82.5C 210.448,82.6495 209.448,82.4828 208.5,82C 203.633,74.7889 197.299,69.4556 189.5,66C 187.092,63.3119 185.092,60.4785 183.5,57.5 Z"/></g>
<g><path style="opacity:1" fill="#b2b2b2" d="M 127.5,66.5 C 122.75,73.3012 119.917,80.9679 119,89.5C 117.266,102.104 116.433,114.771 116.5,127.5C 112.309,126.738 108.642,124.904 105.5,122C 102.77,121.058 101.437,122.058 101.5,125C 101.439,126.711 102.106,128.044 103.5,129C 100.308,133.12 96.3079,134.954 91.5,134.5C 92.3742,132.253 92.7076,129.92 92.5,127.5C 93.4584,127.953 94.2917,128.619 95,129.5C 96.6974,128.043 98.1974,126.377 99.5,124.5C 100.418,119.36 101.418,114.36 102.5,109.5C 102.244,111.792 102.577,113.959 103.5,116C 105.549,116.47 106.883,115.636 107.5,113.5C 109.165,105.675 110.831,97.8419 112.5,90C 112.138,88.5657 111.472,87.3991 110.5,86.5C 114.158,86.6759 115.158,85.1759 113.5,82C 114.781,78.4753 116.114,74.9753 117.5,71.5C 119.898,68.0155 123.231,66.3488 127.5,66.5 Z"/></g>
<g><path style="opacity:1" fill="#908f8f" d="M 104.5,67.5 C 89.3539,70.9613 76.6873,78.628 66.5,90.5C 64.9547,91.4519 63.288,91.7852 61.5,91.5C 61.6793,85.3097 64.6793,81.1431 70.5,79C 71.2524,78.3292 71.5858,77.4959 71.5,76.5C 72.5274,74.8058 73.8608,73.4725 75.5,72.5C 77.0603,72.4809 78.5603,72.1476 80,71.5C 87.3669,66.2122 95.5336,63.2122 104.5,62.5C 104.5,64.1667 104.5,65.8333 104.5,67.5 Z"/></g>
<g><path style="opacity:1" fill="#0e0c0b" d="M 135.5,67.5 C 132.617,70.9083 130.284,74.7416 128.5,79C 129.137,80.7126 130.137,80.8793 131.5,79.5C 132.798,76.5498 134.464,73.8831 136.5,71.5C 138.23,70.9744 139.564,69.9744 140.5,68.5C 142.956,66.1888 145.789,64.5221 149,63.5C 150.877,64.2529 152.711,65.0862 154.5,66C 159.06,70.0688 163.726,73.9021 168.5,77.5C 177.858,87.565 182.858,99.565 183.5,113.5C 185.167,113.5 186.833,113.5 188.5,113.5C 188.833,113.5 189.167,113.5 189.5,113.5C 190.99,115.28 192.99,115.946 195.5,115.5C 197.914,116.933 200.581,117.433 203.5,117C 200.868,110.902 197.868,105.069 194.5,99.5C 191.938,94.7643 188.771,90.431 185,86.5C 183.608,82.7796 184.775,80.7796 188.5,80.5C 192.218,84.2406 195.718,88.2406 199,92.5C 203.663,101.022 207.83,109.689 211.5,118.5C 213.04,123.253 214.874,127.92 217,132.5C 218.039,133.71 219.206,134.71 220.5,135.5C 220.833,136.167 221.167,136.833 221.5,137.5C 222.263,138.268 223.263,138.768 224.5,139C 223.643,139.689 222.977,140.522 222.5,141.5C 223.081,145.071 224.081,148.404 225.5,151.5C 227.386,162.654 225.386,172.988 219.5,182.5C 217.218,185.122 214.885,187.788 212.5,190.5C 216.789,192.278 220.956,194.278 225,196.5C 225.629,201.735 224.129,206.235 220.5,210C 222.123,215.712 221.79,221.212 219.5,226.5C 222.624,230.414 224.957,234.747 226.5,239.5C 224.167,239.5 221.833,239.5 219.5,239.5C 218.241,236.54 216.908,233.54 215.5,230.5C 214.833,230.167 214.167,229.833 213.5,229.5C 210.053,230.723 206.72,232.223 203.5,234C 201.536,235.451 200.203,237.284 199.5,239.5C 197.167,239.5 194.833,239.5 192.5,239.5C 192.943,234.792 195.276,231.292 199.5,229C 204.985,225.086 210.985,222.586 217.5,221.5C 217.5,218.833 217.5,216.167 217.5,213.5C 214.615,213.194 211.948,213.527 209.5,214.5C 194.949,217.058 185.949,225.391 182.5,239.5C 180.833,239.5 179.167,239.5 177.5,239.5C 179.115,236.377 180.115,233.044 180.5,229.5C 181.812,228.855 182.812,227.855 183.5,226.5C 180.23,225.808 176.897,225.808 173.5,226.5C 150.398,227.226 127.398,226.226 104.5,223.5C 102.833,223.667 101.167,223.833 99.5,224C 99.6526,225.209 99.9859,226.375 100.5,227.5C 100.263,228.791 100.596,229.791 101.5,230.5C 102.159,233.455 102.492,236.455 102.5,239.5C 101.167,239.5 99.8333,239.5 98.5,239.5C 98.5,238.167 98.5,236.833 98.5,235.5C 98.5905,232.848 97.9238,230.515 96.5,228.5C 91.1186,219.794 83.1186,215.128 72.5,214.5C 67.0154,213.348 61.3487,213.182 55.5,214C 54.6266,215.045 53.6266,215.878 52.5,216.5C 53.5639,207.381 54.7305,198.048 56,188.5C 61.4041,185.829 61.0708,183.163 55,180.5C 49.2309,181.283 43.3975,181.95 37.5,182.5C 36.5,182.167 35.5,181.833 34.5,181.5C 39.2852,179.409 44.2852,178.076 49.5,177.5C 49.2437,173.138 49.077,168.805 49,164.5C 50.9978,168.241 51.8312,172.241 51.5,176.5C 52.552,176.351 53.552,176.517 54.5,177C 55.1634,178.518 56.1634,179.685 57.5,180.5C 59.2024,182.537 61.2024,184.203 63.5,185.5C 67.4717,191.992 72.8051,193.492 79.5,190C 113.335,185.264 146.669,187.597 179.5,197C 184.489,197.499 189.489,197.666 194.5,197.5C 194.318,195.409 194.652,193.409 195.5,191.5C 198.936,190.356 202.27,189.023 205.5,187.5C 206.5,187.167 207.167,186.5 207.5,185.5C 211.188,183.812 213.855,181.145 215.5,177.5C 216.833,174.167 218.167,170.833 219.5,167.5C 220.268,166.737 220.768,165.737 221,164.5C 222.563,156.361 221.063,149.027 216.5,142.5C 214.533,140.507 212.533,138.507 210.5,136.5C 205.742,143.594 199.742,149.261 192.5,153.5C 189.478,153.981 186.478,154.647 183.5,155.5C 184.853,156.524 185.52,157.857 185.5,159.5C 187.816,165.435 186.65,170.435 182,174.5C 181.755,172.337 180.755,170.67 179,169.5C 176.734,170.956 174.234,171.79 171.5,172C 170.748,172.671 170.414,173.504 170.5,174.5C 162.493,175.56 154.493,175.56 146.5,174.5C 147.025,173.808 147.692,173.308 148.5,173C 157.208,173.156 165.708,171.99 174,169.5C 175.975,168.535 177.475,167.201 178.5,165.5C 180.436,163.757 180.77,161.757 179.5,159.5C 177.639,158.472 176.305,156.972 175.5,155C 173.1,154.256 170.767,153.423 168.5,152.5C 168.167,152.5 167.833,152.5 167.5,152.5C 161.347,151.347 155.014,151.18 148.5,152C 146.767,153.189 145.1,154.356 143.5,155.5C 138.736,157.601 136.403,161.268 136.5,166.5C 137.191,169.365 138.858,171.532 141.5,173C 139.606,174.101 138.939,175.434 139.5,177C 138.756,178.039 137.756,178.539 136.5,178.5C 135.167,177.5 133.833,176.5 132.5,175.5C 129.525,169.267 129.858,163.267 133.5,157.5C 125.514,156.502 118.181,153.835 111.5,149.5C 110.674,147.736 109.341,146.402 107.5,145.5C 104.983,138.575 100.983,137.575 95.5,142.5C 94.5,142.5 93.5,142.5 92.5,142.5C 91.1201,142.962 90.4534,143.962 90.5,145.5C 91.6705,148.849 91.6705,152.182 90.5,155.5C 88.5914,156.348 86.5914,156.682 84.5,156.5C 80.2165,157.966 75.7165,158.633 71,158.5C 66.9121,158.712 63.0787,158.045 59.5,156.5C 59.6716,155.508 59.3382,154.842 58.5,154.5C 58.5,153.833 58.5,153.167 58.5,152.5C 60.4021,150.849 62.4021,150.516 64.5,151.5C 68.8333,152.833 73.1667,152.833 77.5,151.5C 79.4672,151.739 81.3005,151.406 83,150.5C 83.0569,143.022 84.0569,135.689 86,128.5C 87.4443,126.845 89.2776,126.178 91.5,126.5C 92.1667,126.5 92.5,126.833 92.5,127.5C 92.7076,129.92 92.3742,132.253 91.5,134.5C 96.3079,134.954 100.308,133.12 103.5,129C 102.106,128.044 101.439,126.711 101.5,125C 101.437,122.058 102.77,121.058 105.5,122C 108.642,124.904 112.309,126.738 116.5,127.5C 116.433,114.771 117.266,102.104 119,89.5C 119.917,80.9679 122.75,73.3012 127.5,66.5C 128.317,64.5221 129.817,63.5221 132,63.5C 134.327,63.8223 135.494,65.1556 135.5,67.5 Z"/></g>
<g><path style="opacity:1" fill="#777776" d="M 135.5,67.5 C 135.232,69.099 135.566,70.4324 136.5,71.5C 134.464,73.8831 132.798,76.5498 131.5,79.5C 130.137,80.8793 129.137,80.7126 128.5,79C 130.284,74.7416 132.617,70.9083 135.5,67.5 Z"/></g>
<g><path style="opacity:1" fill="#7d7d7d" d="M 147.5,71.5 C 150.14,71.954 152.473,73.1207 154.5,75C 150.799,75.5896 147.132,75.923 143.5,76C 145.041,74.6288 146.375,73.1288 147.5,71.5 Z"/></g>
<g><path style="opacity:1" fill="#8f8f8f" d="M 110.5,86.5 C 111.472,87.3991 112.138,88.5657 112.5,90C 110.831,97.8419 109.165,105.675 107.5,113.5C 106.883,115.636 105.549,116.47 103.5,116C 102.577,113.959 102.244,111.792 102.5,109.5C 104.104,102.217 105.604,94.8838 107,87.5C 108.011,86.6634 109.178,86.33 110.5,86.5 Z"/></g>
<g><path style="opacity:1" fill="#b6b6b5" d="M 71.5,76.5 C 71.5858,77.4959 71.2524,78.3292 70.5,79C 64.6793,81.1431 61.6793,85.3097 61.5,91.5C 59.8235,92.1834 59.1568,93.5168 59.5,95.5C 57.6096,95.2965 56.1096,95.9632 55,97.5C 51.9254,102.624 49.7587,107.957 48.5,113.5C 48.5,111.833 48.5,110.167 48.5,108.5C 46.2341,108.141 44.4007,108.808 43,110.5C 41.0489,118.708 40.0489,127.041 40,135.5C 38.7111,129.912 38.2111,124.245 38.5,118.5C 41.3619,115.313 41.0285,112.646 37.5,110.5C 40.2436,104.682 43.7436,99.3486 48,94.5C 53.5508,89.6089 59.0508,84.7755 64.5,80C 66.5766,78.295 68.91,77.1283 71.5,76.5 Z"/></g>
<g><path style="opacity:1" fill="#9f8c69" d="M 166.5,87.5 C 163.092,86.4406 159.592,85.7739 156,85.5C 149.178,86.1451 142.345,86.6451 135.5,87C 132.904,88.1356 130.237,88.969 127.5,89.5C 127.5,91.8333 127.5,94.1667 127.5,96.5C 130.279,96.2786 132.946,96.612 135.5,97.5C 135.5,97.8333 135.5,98.1667 135.5,98.5C 132.236,97.6758 128.902,97.3424 125.5,97.5C 125.183,94.4281 125.516,91.4281 126.5,88.5C 138.729,83.8891 151.396,82.3891 164.5,84C 165.305,85.1127 165.972,86.2794 166.5,87.5 Z"/></g>
<g><path style="opacity:1" fill="#b49957" d="M 166.5,87.5 C 170.255,91.0039 172.922,95.3372 174.5,100.5C 172.824,102.337 170.824,103.67 168.5,104.5C 168.5,103.833 168.167,103.5 167.5,103.5C 166.118,100.606 164.118,98.1057 161.5,96C 157.957,92.7305 153.957,90.2305 149.5,88.5C 142.236,87.7734 137.569,90.7734 135.5,97.5C 132.946,96.612 130.279,96.2786 127.5,96.5C 127.5,94.1667 127.5,91.8333 127.5,89.5C 130.237,88.969 132.904,88.1356 135.5,87C 142.345,86.6451 149.178,86.1451 156,85.5C 159.592,85.7739 163.092,86.4406 166.5,87.5 Z"/></g>
<g><path style="opacity:1" fill="#8e8e8e" d="M 91.5,81.5 C 92.5,81.5 93.5,81.5 94.5,81.5C 94.6602,83.1992 94.4935,84.8659 94,86.5C 84.0146,101.877 79.5146,118.877 80.5,137.5C 78.4352,137.483 76.4352,137.15 74.5,136.5C 73.3573,117.958 77.6906,100.958 87.5,85.5C 87.5,85.1667 87.5,84.8333 87.5,84.5C 88.5261,83.147 89.8595,82.147 91.5,81.5 Z"/></g>
<g><path style="opacity:1" fill="#898989" d="M 168.5,77.5 C 172.118,79.1373 175.451,81.1373 178.5,83.5C 178.351,84.552 178.517,85.552 179,86.5C 182.27,89.7978 184.104,93.7978 184.5,98.5C 186.609,103.266 187.942,108.266 188.5,113.5C 186.833,113.5 185.167,113.5 183.5,113.5C 182.858,99.565 177.858,87.565 168.5,77.5 Z"/></g>
<g><path style="opacity:1" fill="#929090" d="M 81.5,62.5 C 80.6993,64.0418 80.366,65.7085 80.5,67.5C 77.911,67.461 75.911,68.461 74.5,70.5C 70.5344,72.7783 66.5344,75.1116 62.5,77.5C 55.5099,84.3222 48.3433,90.9889 41,97.5C 39.7193,100.603 37.8859,103.269 35.5,105.5C 35.1132,107.274 34.4465,108.941 33.5,110.5C 33.6236,111.107 33.9569,111.44 34.5,111.5C 31.7334,115.714 30.0667,120.381 29.5,125.5C 27.0905,124.299 25.0905,122.633 23.5,120.5C 35.8005,94.1995 55.1339,74.8661 81.5,62.5 Z"/></g>
<g><path style="opacity:1" fill="#f7d97e" d="M 167.5,103.5 C 164.239,105.419 161.239,107.753 158.5,110.5C 154.199,107.866 150.532,104.532 147.5,100.5C 143.369,99.6804 139.369,98.6804 135.5,97.5C 137.569,90.7734 142.236,87.7734 149.5,88.5C 153.957,90.2305 157.957,92.7305 161.5,96C 164.118,98.1057 166.118,100.606 167.5,103.5 Z"/></g>
<g><path style="opacity:1" fill="#e1e0e0" d="M 74.5,70.5 C 76.6977,70.4088 77.0311,71.0755 75.5,72.5C 73.8608,73.4725 72.5274,74.8058 71.5,76.5C 68.91,77.1283 66.5766,78.295 64.5,80C 59.0508,84.7755 53.5508,89.6089 48,94.5C 43.7436,99.3486 40.2436,104.682 37.5,110.5C 36.391,110.557 35.391,110.89 34.5,111.5C 33.9569,111.44 33.6236,111.107 33.5,110.5C 34.4465,108.941 35.1132,107.274 35.5,105.5C 37.8859,103.269 39.7193,100.603 41,97.5C 48.3433,90.9889 55.5099,84.3222 62.5,77.5C 66.5344,75.1116 70.5344,72.7783 74.5,70.5 Z"/></g>
<g><path style="opacity:1" fill="#f1f1f1" d="M 131.5,104.5 C 142.434,106.589 149.934,112.922 154,123.5C 155.776,135.784 150.942,144.284 139.5,149C 131.197,150.68 123.53,149.347 116.5,145C 114.859,143.871 113.859,142.371 113.5,140.5C 113.56,139.957 113.893,139.624 114.5,139.5C 119.364,141.744 124.364,142.411 129.5,141.5C 129.833,140.333 130.167,139.167 130.5,138C 127.835,126.79 128.168,115.623 131.5,104.5 Z"/></g>
<g><path style="opacity:1" fill="#7c7c7c" d="M 194.5,99.5 C 197.868,105.069 200.868,110.902 203.5,117C 200.581,117.433 197.914,116.933 195.5,115.5C 196.5,115.5 197.5,115.5 198.5,115.5C 197.642,110.005 196.309,104.672 194.5,99.5 Z"/></g>
<g><path style="opacity:1" fill="#b3b3b3" d="M 91.5,126.5 C 89.2776,126.178 87.4443,126.845 86,128.5C 84.0569,135.689 83.0569,143.022 83,150.5C 81.3005,151.406 79.4672,151.739 77.5,151.5C 74.7531,151.813 72.0865,151.48 69.5,150.5C 67.8723,146.992 66.7056,143.325 66,139.5C 65.5002,129.172 65.3335,118.839 65.5,108.5C 65.7963,105.083 66.7963,101.916 68.5,99C 68.5765,96.2439 67.2431,95.0772 64.5,95.5C 68.9167,92.3172 72.5834,92.9838 75.5,97.5C 72.3408,105.773 70.6741,114.44 70.5,123.5C 69.1836,126.087 68.517,129.087 68.5,132.5C 68.6319,137.73 69.6319,142.73 71.5,147.5C 72.552,147.649 73.552,147.483 74.5,147C 75.8485,144.99 77.1818,142.99 78.5,141C 77.3955,139.285 76.0622,137.785 74.5,136.5C 76.4352,137.15 78.4352,137.483 80.5,137.5C 79.5146,118.877 84.0146,101.877 94,86.5C 94.4935,84.8659 94.6602,83.1992 94.5,81.5C 93.5,81.5 92.5,81.5 91.5,81.5C 92.531,80.7515 93.6976,80.0848 95,79.5C 96.5166,74.2198 100.017,72.3864 105.5,74C 106.578,74.6739 107.245,75.6739 107.5,77C 104.052,84.6625 100.219,92.1625 96,99.5C 95.6667,101.5 95.3333,103.5 95,105.5C 92.0967,110.765 90.2634,116.432 89.5,122.5C 89.8029,124.114 90.4695,125.448 91.5,126.5 Z"/></g>
<g><path style="opacity:1" fill="#e3e3e3" d="M 184.5,98.5 C 185.5,98.5 186.5,98.5 187.5,98.5C 187.284,100.681 188.117,102.347 190,103.5C 190.808,107.027 190.641,110.36 189.5,113.5C 189.167,113.5 188.833,113.5 188.5,113.5C 187.942,108.266 186.609,103.266 184.5,98.5 Z"/></g>
<g><path style="opacity:1" fill="#e6ce94" d="M 135.5,98.5 C 135.5,98.1667 135.5,97.8333 135.5,97.5C 139.369,98.6804 143.369,99.6804 147.5,100.5C 150.532,104.532 154.199,107.866 158.5,110.5C 161.239,107.753 164.239,105.419 167.5,103.5C 168.167,103.5 168.5,103.833 168.5,104.5C 164.778,108.394 161.612,112.728 159,117.5C 153.686,108.016 145.853,101.683 135.5,98.5 Z"/></g>
<g><path style="opacity:1" fill="#b3b3b3" d="M 156.5,44.5 C 166.433,46.9669 175.433,51.3003 183.5,57.5C 185.092,60.4785 187.092,63.3119 189.5,66C 197.299,69.4556 203.633,74.7889 208.5,82C 209.448,82.4828 210.448,82.6495 211.5,82.5C 216.294,92.2962 220.794,102.296 225,112.5C 225.816,113.823 226.983,114.489 228.5,114.5C 228.5,114.833 228.5,115.167 228.5,115.5C 228.665,118.518 228.498,121.518 228,124.5C 225.45,124.045 222.616,123.711 219.5,123.5C 219.833,127.5 220.167,131.5 220.5,135.5C 219.206,134.71 218.039,133.71 217,132.5C 214.874,127.92 213.04,123.253 211.5,118.5C 216.07,121.853 218.737,120.686 219.5,115C 209.758,86.5936 191.091,66.5936 163.5,55C 166.192,54.5702 168.859,54.7369 171.5,55.5C 170.923,52.3551 168.923,50.8551 165.5,51C 158.767,50.797 152.1,50.6303 145.5,50.5C 141.976,53.3404 137.976,55.007 133.5,55.5C 134.512,54.1283 135.512,52.795 136.5,51.5C 139.833,48.8769 143.5,46.7102 147.5,45C 150.482,44.502 153.482,44.3354 156.5,44.5 Z"/></g>
<g><path style="opacity:1" fill="#878787" d="M 65.5,108.5 C 65.3335,118.839 65.5002,129.172 66,139.5C 66.7056,143.325 67.8723,146.992 69.5,150.5C 72.0865,151.48 74.7531,151.813 77.5,151.5C 73.1667,152.833 68.8333,152.833 64.5,151.5C 62.0035,138.228 61.8368,124.894 64,111.5C 64.2321,110.263 64.7321,109.263 65.5,108.5 Z"/></g>
<g><path style="opacity:1" fill="#e8e8e8" d="M 87.5,84.5 C 87.5,84.8333 87.5,85.1667 87.5,85.5C 86.6236,85.3691 85.9569,85.7025 85.5,86.5C 77.1316,100.624 72.465,115.957 71.5,132.5C 70.5159,129.572 70.1826,126.572 70.5,123.5C 70.6741,114.44 72.3408,105.773 75.5,97.5C 76.3764,97.6309 77.0431,97.2975 77.5,96.5C 79.3772,90.4145 82.0439,84.7478 85.5,79.5C 86.908,77.5643 88.2413,77.3977 89.5,79C 88.1439,80.5671 87.4772,82.4004 87.5,84.5 Z"/></g>
<g><path style="opacity:1" fill="#f6f6f6" d="M 170.5,111.5 C 171.586,111.62 172.253,112.287 172.5,113.5C 172.687,118.098 174.021,122.265 176.5,126C 178.833,126.333 181.167,126.667 183.5,127C 184.099,128.622 184.766,130.122 185.5,131.5C 186.512,132.872 187.512,134.205 188.5,135.5C 188.611,136.117 188.944,136.617 189.5,137C 192.367,137.801 195.034,137.634 197.5,136.5C 198.694,135.728 199.694,134.728 200.5,133.5C 201.434,134.568 201.768,135.901 201.5,137.5C 193.248,150.637 182.581,152.97 169.5,144.5C 165.155,140.471 163.155,135.471 163.5,129.5C 163.114,122.327 165.447,116.327 170.5,111.5 Z"/></g>
<g><path style="opacity:1" fill="#0b0b0b" d="M 139.5,120.5 C 150.723,120.522 153.723,125.355 148.5,135C 139.059,138.544 134.559,135.377 135,125.5C 136.366,123.638 137.866,121.972 139.5,120.5 Z"/></g>
<g><path style="opacity:1" fill="#afafaf" d="M 185.5,131.5 C 184.766,130.122 184.099,128.622 183.5,127C 181.167,126.667 178.833,126.333 176.5,126C 174.021,122.265 172.687,118.098 172.5,113.5C 172.253,112.287 171.586,111.62 170.5,111.5C 171.914,109.946 173.581,108.612 175.5,107.5C 176.379,111.154 177.213,114.821 178,118.5C 178.5,119 179,119.5 179.5,120C 182.553,120.179 185.553,120.679 188.5,121.5C 185.97,124.27 184.97,127.603 185.5,131.5 Z"/></g>
<g><path style="opacity:1" fill="#919092" d="M 228.5,115.5 C 231.909,122.578 231.076,129.245 226,135.5C 224.89,137.037 223.39,137.703 221.5,137.5C 221.167,136.833 220.833,136.167 220.5,135.5C 220.167,131.5 219.833,127.5 219.5,123.5C 222.616,123.711 225.45,124.045 228,124.5C 228.498,121.518 228.665,118.518 228.5,115.5 Z"/></g>
<g><path style="opacity:1" fill="#d3ebea" d="M -0.5,103.5 C 0.873441,103.343 2.20677,103.51 3.5,104C 5.92341,106.357 8.59007,108.357 11.5,110C 14.2569,110.782 16.7569,110.282 19,108.5C 19.4828,109.448 19.6495,110.448 19.5,111.5C 18.2065,114.548 17.2065,117.715 16.5,121C 18.6497,125.649 21.9831,129.149 26.5,131.5C 27.209,132.404 28.209,132.737 29.5,132.5C 29.1795,137.695 29.5128,142.695 30.5,147.5C 31.3668,156.376 35.7001,158.71 43.5,154.5C 43.5,156.167 43.5,157.833 43.5,159.5C 27.3853,159.538 12.7186,164.205 -0.5,173.5C -0.5,150.167 -0.5,126.833 -0.5,103.5 Z"/></g>
<g><path style="opacity:1" fill="#a4a4a4" d="M 201.5,137.5 C 201.768,135.901 201.434,134.568 200.5,133.5C 201.786,130.665 201.786,127.832 200.5,125C 202.473,124.505 204.473,124.338 206.5,124.5C 206.189,129.444 204.523,133.777 201.5,137.5 Z"/></g>
<g><path style="opacity:1" fill="#cecece" d="M 87.5,85.5 C 77.6906,100.958 73.3573,117.958 74.5,136.5C 76.0622,137.785 77.3955,139.285 78.5,141C 77.1818,142.99 75.8485,144.99 74.5,147C 73.552,147.483 72.552,147.649 71.5,147.5C 69.6319,142.73 68.6319,137.73 68.5,132.5C 68.517,129.087 69.1836,126.087 70.5,123.5C 70.1826,126.572 70.5159,129.572 71.5,132.5C 72.465,115.957 77.1316,100.624 85.5,86.5C 85.9569,85.7025 86.6236,85.3691 87.5,85.5 Z"/></g>
<g><path style="opacity:1" fill="#aeaeae" d="M 131.5,104.5 C 128.168,115.623 127.835,126.79 130.5,138C 130.167,139.167 129.833,140.333 129.5,141.5C 124.364,142.411 119.364,141.744 114.5,139.5C 113.893,139.624 113.56,139.957 113.5,140.5C 110.695,139.021 109.028,136.688 108.5,133.5C 113.714,134.968 119.047,135.635 124.5,135.5C 123.508,125.852 123.342,116.186 124,106.5C 126.106,104.709 128.606,104.042 131.5,104.5 Z"/></g>
<g><path style="opacity:1" fill="#6a6a6a" d="M 188.5,135.5 C 191.43,136.299 194.43,136.632 197.5,136.5C 195.034,137.634 192.367,137.801 189.5,137C 188.944,136.617 188.611,136.117 188.5,135.5 Z"/></g>
<g><path style="opacity:1" fill="#949493" d="M 48.5,113.5 C 46.5978,121.789 46.2645,130.122 47.5,138.5C 49.1667,139.833 50.8333,139.833 52.5,138.5C 53.9304,134.496 54.9304,130.496 55.5,126.5C 55.666,131.844 55.4994,137.177 55,142.5C 49.6969,144.99 44.1969,146.99 38.5,148.5C 37.1771,138.341 37.1771,128.341 38.5,118.5C 38.2111,124.245 38.7111,129.912 40,135.5C 40.0489,127.041 41.0489,118.708 43,110.5C 44.4007,108.808 46.2341,108.141 48.5,108.5C 48.5,110.167 48.5,111.833 48.5,113.5 Z"/></g>
<g><path style="opacity:1" fill="#697374" d="M 26.5,131.5 C 27.8333,131.5 29.1667,131.5 30.5,131.5C 30.5,136.833 30.5,142.167 30.5,147.5C 29.5128,142.695 29.1795,137.695 29.5,132.5C 28.209,132.737 27.209,132.404 26.5,131.5 Z"/></g>
<g><path style="opacity:1" fill="#9b9166" d="M 107.5,145.5 C 106.5,145.5 105.5,145.5 104.5,145.5C 104.144,144.13 103.31,143.13 102,142.5C 99.6763,143.693 97.5097,143.693 95.5,142.5C 100.983,137.575 104.983,138.575 107.5,145.5 Z"/></g>
<g><path style="opacity:1" fill="#bdb4a0" d="M 158.5,140.5 C 165.497,146.259 164.163,148.092 154.5,146C 155.965,144.226 157.298,142.392 158.5,140.5 Z"/></g>
<g><path style="opacity:1" fill="#bb8f57" d="M 92.5,142.5 C 93.5,142.5 94.5,142.5 95.5,142.5C 97.5097,143.693 99.6763,143.693 102,142.5C 103.31,143.13 104.144,144.13 104.5,145.5C 102.563,146.954 100.897,148.621 99.5,150.5C 97.153,147.777 94.8197,145.11 92.5,142.5 Z"/></g>
<g><path style="opacity:1" fill="#cda67c" d="M 216.5,142.5 C 216.672,143.492 216.338,144.158 215.5,144.5C 209.22,144.806 204.22,147.473 200.5,152.5C 198.938,152.733 197.605,153.4 196.5,154.5C 195.432,153.566 194.099,153.232 192.5,153.5C 199.742,149.261 205.742,143.594 210.5,136.5C 212.533,138.507 214.533,140.507 216.5,142.5 Z"/></g>
<g><path style="opacity:1" fill="#d29f66" d="M 167.5,152.5 C 162.156,152.334 156.823,152.501 151.5,153C 149.138,154.731 146.471,155.565 143.5,155.5C 145.1,154.356 146.767,153.189 148.5,152C 155.014,151.18 161.347,151.347 167.5,152.5 Z"/></g>
<g><path style="opacity:1" fill="#a28254" d="M 54.5,150.5 C 56.1993,150.527 57.5326,151.194 58.5,152.5C 58.5,153.167 58.5,153.833 58.5,154.5C 58.5,155.5 58.5,156.5 58.5,157.5C 57.7784,157.918 57.2784,158.584 57,159.5C 55.5557,157.845 53.7224,157.178 51.5,157.5C 51.5,158.833 51.5,160.167 51.5,161.5C 50.5206,158.375 50.1872,155.042 50.5,151.5C 52.099,151.768 53.4324,151.434 54.5,150.5 Z"/></g>
<g><path style="opacity:1" fill="#fa2d28" d="M 215.5,148.5 C 216.79,149.058 217.623,150.058 218,151.5C 218.667,156.833 218.667,162.167 218,167.5C 217.1,168.77 215.934,169.77 214.5,170.5C 214.013,174.818 212.013,178.152 208.5,180.5C 201.39,179.287 198.39,174.953 199.5,167.5C 199.415,161.566 201.082,156.233 204.5,151.5C 208.045,149.932 211.712,148.932 215.5,148.5 Z"/></g>
<g><path style="opacity:1" fill="#952926" d="M 92.5,142.5 C 94.8197,145.11 97.153,147.777 99.5,150.5C 99.5,150.833 99.5,151.167 99.5,151.5C 98.791,152.404 97.791,152.737 96.5,152.5C 96.6308,155.367 95.2974,157.033 92.5,157.5C 82.8294,161.14 72.8294,162.306 62.5,161C 60.867,160.52 59.5336,159.687 58.5,158.5C 58.5,158.167 58.5,157.833 58.5,157.5C 58.5,156.5 58.5,155.5 58.5,154.5C 59.3382,154.842 59.6716,155.508 59.5,156.5C 59.9528,157.458 60.6195,158.292 61.5,159C 68.1667,159.667 74.8333,159.667 81.5,159C 82.9423,158.623 83.9423,157.79 84.5,156.5C 86.5914,156.682 88.5914,156.348 90.5,155.5C 91.6705,152.182 91.6705,148.849 90.5,145.5C 90.4534,143.962 91.1201,142.962 92.5,142.5 Z"/></g>
<g><path style="opacity:1" fill="#fbae45" d="M 167.5,152.5 C 167.833,152.5 168.167,152.5 168.5,152.5C 168.369,153.376 168.702,154.043 169.5,154.5C 171.382,155.093 173.215,155.76 175,156.5C 175.422,158.355 175.922,160.189 176.5,162C 174.532,163.658 172.532,165.325 170.5,167C 161.973,169.306 153.306,169.972 144.5,169C 142.814,167.353 141.48,165.519 140.5,163.5C 142.449,161.208 143.449,158.541 143.5,155.5C 146.471,155.565 149.138,154.731 151.5,153C 156.823,152.501 162.156,152.334 167.5,152.5 Z"/></g>
<g><path style="opacity:1" fill="#e2c892" d="M 111.5,149.5 C 118.181,153.835 125.514,156.502 133.5,157.5C 129.858,163.267 129.525,169.267 132.5,175.5C 131.833,175.5 131.167,175.5 130.5,175.5C 129.833,175.5 129.5,175.167 129.5,174.5C 129.5,169.167 129.5,163.833 129.5,158.5C 121.597,158.854 115.597,155.854 111.5,149.5 Z"/></g>
<g><path style="opacity:1" fill="#350405" d="M 59.5,156.5 C 63.0787,158.045 66.9121,158.712 71,158.5C 75.7165,158.633 80.2165,157.966 84.5,156.5C 83.9423,157.79 82.9423,158.623 81.5,159C 74.8333,159.667 68.1667,159.667 61.5,159C 60.6195,158.292 59.9528,157.458 59.5,156.5 Z"/></g>
<g><path style="opacity:1" fill="#390707" d="M 216.5,142.5 C 221.063,149.027 222.563,156.361 221,164.5C 220.768,165.737 220.268,166.737 219.5,167.5C 219.666,161.824 219.499,156.157 219,150.5C 218.584,148.45 217.417,147.116 215.5,146.5C 215.5,145.833 215.5,145.167 215.5,144.5C 216.338,144.158 216.672,143.492 216.5,142.5 Z"/></g>
<g><path style="opacity:1" fill="#b21e1e" d="M 92.5,157.5 C 92.5858,158.496 92.2524,159.329 91.5,160C 89.3367,160.245 87.67,161.245 86.5,163C 77.1015,164.086 67.7682,164.253 58.5,163.5C 58.5,161.833 58.5,160.167 58.5,158.5C 59.5336,159.687 60.867,160.52 62.5,161C 72.8294,162.306 82.8294,161.14 92.5,157.5 Z"/></g>
<g><path style="opacity:1" fill="#de482d" d="M 215.5,144.5 C 215.5,145.167 215.5,145.833 215.5,146.5C 215.5,147.167 215.5,147.833 215.5,148.5C 211.712,148.932 208.045,149.932 204.5,151.5C 201.082,156.233 199.415,161.566 199.5,167.5C 198.39,174.953 201.39,179.287 208.5,180.5C 207.89,181.391 207.557,182.391 207.5,183.5C 207.5,184.167 207.5,184.833 207.5,185.5C 207.167,186.5 206.5,187.167 205.5,187.5C 202.044,184.037 199.211,180.037 197,175.5C 196.333,169.833 196.333,164.167 197,158.5C 198.394,156.612 199.56,154.612 200.5,152.5C 204.22,147.473 209.22,144.806 215.5,144.5 Z"/></g>
<g><path style="opacity:1" fill="#fa2d28" d="M 63.5,177.5 C 63.5,177.167 63.5,176.833 63.5,176.5C 61.9205,173.341 60.9205,170.007 60.5,166.5C 71.5472,165.77 82.5472,164.603 93.5,163C 94.6883,159.776 96.5216,156.943 99,154.5C 100.833,157.002 101.666,159.835 101.5,163C 100.803,167.47 99.4692,171.637 97.5,175.5C 96.448,175.351 95.448,175.517 94.5,176C 93.018,177.983 91.3513,179.816 89.5,181.5C 83.5368,182.496 77.5368,182.829 71.5,182.5C 71.5,181.5 71.5,180.5 71.5,179.5C 68.9963,178.361 66.3297,177.694 63.5,177.5 Z"/></g>
<g><path style="opacity:1" fill="#d1a060" d="M 168.5,152.5 C 170.767,153.423 173.1,154.256 175.5,155C 176.305,156.972 177.639,158.472 179.5,159.5C 180.77,161.757 180.436,163.757 178.5,165.5C 168.098,170.478 157.098,172.311 145.5,171C 142.194,170.014 139.194,168.514 136.5,166.5C 136.403,161.268 138.736,157.601 143.5,155.5C 143.449,158.541 142.449,161.208 140.5,163.5C 141.48,165.519 142.814,167.353 144.5,169C 153.306,169.972 161.973,169.306 170.5,167C 172.532,165.325 174.532,163.658 176.5,162C 175.922,160.189 175.422,158.355 175,156.5C 173.215,155.76 171.382,155.093 169.5,154.5C 168.702,154.043 168.369,153.376 168.5,152.5 Z"/></g>
<g><path style="opacity:1" fill="#fbd77a" d="M 104.5,145.5 C 105.5,145.5 106.5,145.5 107.5,145.5C 109.341,146.402 110.674,147.736 111.5,149.5C 115.597,155.854 121.597,158.854 129.5,158.5C 129.5,163.833 129.5,169.167 129.5,174.5C 120.912,173.364 112.245,173.198 103.5,174C 102.956,174.717 102.289,175.217 101.5,175.5C 101.833,174.167 102.167,172.833 102.5,171.5C 103.442,166.195 103.609,160.861 103,155.5C 102.051,153.907 100.885,152.574 99.5,151.5C 99.5,151.167 99.5,150.833 99.5,150.5C 100.897,148.621 102.563,146.954 104.5,145.5 Z"/></g>
<g><path style="opacity:1" fill="#f2b664" d="M 58.5,157.5 C 58.5,157.833 58.5,158.167 58.5,158.5C 58.5,160.167 58.5,161.833 58.5,163.5C 58.6744,166.874 59.1744,170.207 60,173.5C 60.7202,175.056 61.8868,176.056 63.5,176.5C 63.5,176.833 63.5,177.167 63.5,177.5C 69.6562,185.185 77.6562,187.685 87.5,185C 89.9258,183.855 92.2591,182.522 94.5,181C 97.0312,177.642 99.6979,174.476 102.5,171.5C 102.167,172.833 101.833,174.167 101.5,175.5C 98.3613,179.47 94.6947,182.97 90.5,186C 90.7284,186.399 91.0618,186.565 91.5,186.5C 87.3002,187.22 82.9669,187.886 78.5,188.5C 77.8333,187.833 77.1667,187.167 76.5,186.5C 75.3122,187.84 73.8122,188.507 72,188.5C 69.064,187.607 66.2307,186.607 63.5,185.5C 61.2024,184.203 59.2024,182.537 57.5,180.5C 54.5066,174.497 52.5066,168.163 51.5,161.5C 51.5,160.167 51.5,158.833 51.5,157.5C 53.7224,157.178 55.5557,157.845 57,159.5C 57.2784,158.584 57.7784,157.918 58.5,157.5 Z"/></g>
<g><path style="opacity:1" fill="#c03735" d="M 215.5,146.5 C 217.417,147.116 218.584,148.45 219,150.5C 219.499,156.157 219.666,161.824 219.5,167.5C 218.167,170.833 216.833,174.167 215.5,177.5C 212.791,179.556 210.124,181.556 207.5,183.5C 207.557,182.391 207.89,181.391 208.5,180.5C 212.013,178.152 214.013,174.818 214.5,170.5C 215.934,169.77 217.1,168.77 218,167.5C 218.667,162.167 218.667,156.833 218,151.5C 217.623,150.058 216.79,149.058 215.5,148.5C 215.5,147.833 215.5,147.167 215.5,146.5 Z"/></g>
<g><path style="opacity:1" fill="#f2c259" d="M 129.5,174.5 C 129.5,175.167 129.833,175.5 130.5,175.5C 130.665,177.827 131.331,179.993 132.5,182C 135.424,182.988 138.424,183.654 141.5,184C 142.973,184.71 143.64,185.876 143.5,187.5C 126.183,185.718 108.85,185.385 91.5,186.5C 91.0618,186.565 90.7284,186.399 90.5,186C 94.6947,182.97 98.3613,179.47 101.5,175.5C 102.289,175.217 102.956,174.717 103.5,174C 112.245,173.198 120.912,173.364 129.5,174.5 Z"/></g>
<g><path style="opacity:1" fill="#211009" d="M 185.5,159.5 C 189.202,167.66 187.535,174.826 180.5,181C 167.098,189.316 153.432,189.649 139.5,182C 138.29,180.961 137.29,179.794 136.5,178.5C 137.756,178.539 138.756,178.039 139.5,177C 138.939,175.434 139.606,174.101 141.5,173C 138.858,171.532 137.191,169.365 136.5,166.5C 139.194,168.514 142.194,170.014 145.5,171C 157.098,172.311 168.098,170.478 178.5,165.5C 177.475,167.201 175.975,168.535 174,169.5C 165.708,171.99 157.208,173.156 148.5,173C 147.692,173.308 147.025,173.808 146.5,174.5C 154.493,175.56 162.493,175.56 170.5,174.5C 170.414,173.504 170.748,172.671 171.5,172C 174.234,171.79 176.734,170.956 179,169.5C 180.755,170.67 181.755,172.337 182,174.5C 186.65,170.435 187.816,165.435 185.5,159.5 Z"/></g>
<g><path style="opacity:1" fill="#a46852" d="M 3.5,178.5 C 9.01125,180.462 14.6779,181.962 20.5,183C 30.8516,183.433 41.1849,183.433 51.5,183C 53.8501,185.373 54.0167,187.873 52,190.5C 51.5007,195.489 51.3341,200.489 51.5,205.5C 49.4727,205.662 47.4727,205.495 45.5,205C 40.6941,203.35 36.0274,201.517 31.5,199.5C 36.8034,200.659 42.1367,201.492 47.5,202C 48,201.5 48.5,201 49,200.5C 49.4994,195.177 49.666,189.844 49.5,184.5C 44.7013,185.079 39.8679,185.412 35,185.5C 23.2188,184.01 11.3855,183.01 -0.5,182.5C -0.5,181.833 -0.5,181.167 -0.5,180.5C 1.06181,180.267 2.39514,179.6 3.5,178.5 Z"/></g>
<g><path style="opacity:1" fill="#d7a56d" d="M 152.5,181.5 C 151.517,180.15 150.184,179.15 148.5,178.5C 152.783,177.508 157.116,177.174 161.5,177.5C 161.5,177.167 161.5,176.833 161.5,176.5C 164.727,176.324 167.727,175.657 170.5,174.5C 173.423,173.803 176.256,172.803 179,171.5C 179.5,171.833 180,172.167 180.5,172.5C 173.3,182.196 163.967,185.196 152.5,181.5 Z"/></g>
<g><path style="opacity:1" fill="#de4227" d="M 99.5,151.5 C 100.885,152.574 102.051,153.907 103,155.5C 103.609,160.861 103.442,166.195 102.5,171.5C 99.6979,174.476 97.0312,177.642 94.5,181C 92.2591,182.522 89.9258,183.855 87.5,185C 77.6562,187.685 69.6562,185.185 63.5,177.5C 66.3297,177.694 68.9963,178.361 71.5,179.5C 71.5,180.5 71.5,181.5 71.5,182.5C 77.5368,182.829 83.5368,182.496 89.5,181.5C 91.3513,179.816 93.018,177.983 94.5,176C 95.448,175.517 96.448,175.351 97.5,175.5C 99.4692,171.637 100.803,167.47 101.5,163C 101.666,159.835 100.833,157.002 99,154.5C 96.5216,156.943 94.6883,159.776 93.5,163C 82.5472,164.603 71.5472,165.77 60.5,166.5C 60.9205,170.007 61.9205,173.341 63.5,176.5C 61.8868,176.056 60.7202,175.056 60,173.5C 59.1744,170.207 58.6744,166.874 58.5,163.5C 67.7682,164.253 77.1015,164.086 86.5,163C 87.67,161.245 89.3367,160.245 91.5,160C 92.2524,159.329 92.5858,158.496 92.5,157.5C 95.2974,157.033 96.6308,155.367 96.5,152.5C 97.791,152.737 98.791,152.404 99.5,151.5 Z"/></g>
<g><path style="opacity:1" fill="#691919" d="M 215.5,177.5 C 213.855,181.145 211.188,183.812 207.5,185.5C 207.5,184.833 207.5,184.167 207.5,183.5C 210.124,181.556 212.791,179.556 215.5,177.5 Z"/></g>
<g><path style="opacity:1" fill="#e2bf7b" d="M 200.5,152.5 C 199.56,154.612 198.394,156.612 197,158.5C 196.333,164.167 196.333,169.833 197,175.5C 199.211,180.037 202.044,184.037 205.5,187.5C 202.27,189.023 198.936,190.356 195.5,191.5C 194.652,193.409 194.318,195.409 194.5,197.5C 189.489,197.666 184.489,197.499 179.5,197C 146.669,187.597 113.335,185.264 79.5,190C 72.8051,193.492 67.4717,191.992 63.5,185.5C 66.2307,186.607 69.064,187.607 72,188.5C 73.8122,188.507 75.3122,187.84 76.5,186.5C 77.1667,187.167 77.8333,187.833 78.5,188.5C 82.9669,187.886 87.3002,187.22 91.5,186.5C 108.85,185.385 126.183,185.718 143.5,187.5C 143.64,185.876 142.973,184.71 141.5,184C 138.424,183.654 135.424,182.988 132.5,182C 131.331,179.993 130.665,177.827 130.5,175.5C 131.167,175.5 131.833,175.5 132.5,175.5C 133.833,176.5 135.167,177.5 136.5,178.5C 137.29,179.794 138.29,180.961 139.5,182C 153.432,189.649 167.098,189.316 180.5,181C 187.535,174.826 189.202,167.66 185.5,159.5C 185.52,157.857 184.853,156.524 183.5,155.5C 186.478,154.647 189.478,153.981 192.5,153.5C 189.431,157.448 188.764,161.781 190.5,166.5C 189.773,170.515 188.94,174.515 188,178.5C 185.54,179.958 183.373,181.791 181.5,184C 179.026,184.037 177.026,184.87 175.5,186.5C 167.62,188.676 167.62,191.01 175.5,193.5C 180.792,194.495 186.125,194.828 191.5,194.5C 191.028,191.642 192.028,189.642 194.5,188.5C 197.355,189.34 200.022,188.674 202.5,186.5C 199.435,185.064 197.269,182.731 196,179.5C 193.841,171.099 194.008,162.765 196.5,154.5C 197.605,153.4 198.938,152.733 200.5,152.5 Z"/></g>
<g><path style="opacity:1" fill="#fad978" d="M 192.5,153.5 C 194.099,153.232 195.432,153.566 196.5,154.5C 194.008,162.765 193.841,171.099 196,179.5C 197.269,182.731 199.435,185.064 202.5,186.5C 200.022,188.674 197.355,189.34 194.5,188.5C 188.091,187.36 181.758,186.693 175.5,186.5C 177.026,184.87 179.026,184.037 181.5,184C 183.373,181.791 185.54,179.958 188,178.5C 188.94,174.515 189.773,170.515 190.5,166.5C 188.764,161.781 189.431,157.448 192.5,153.5 Z"/></g>
<g><path style="opacity:1" fill="#eeb059" d="M 161.5,177.5 C 164.5,177.5 167.5,177.5 170.5,177.5C 170.5,178.5 170.5,179.5 170.5,180.5C 165.851,181.295 161.184,181.461 156.5,181C 156.043,180.586 155.709,180.086 155.5,179.5C 157.631,178.831 159.631,178.165 161.5,177.5 Z"/></g>
<g><path style="opacity:1" fill="#ad8263" d="M 161.5,176.5 C 161.5,176.833 161.5,177.167 161.5,177.5C 157.116,177.174 152.783,177.508 148.5,178.5C 150.184,179.15 151.517,180.15 152.5,181.5C 148.191,180.515 144.191,178.681 140.5,176C 147.454,176.339 154.454,176.506 161.5,176.5 Z"/></g>
<g><path style="opacity:1" fill="#f2c356" d="M 175.5,186.5 C 181.758,186.693 188.091,187.36 194.5,188.5C 192.028,189.642 191.028,191.642 191.5,194.5C 186.125,194.828 180.792,194.495 175.5,193.5C 167.62,191.01 167.62,188.676 175.5,186.5 Z"/></g>
<g><path style="opacity:1" fill="#c47248" d="M -0.5,182.5 C 11.3855,183.01 23.2188,184.01 35,185.5C 39.8679,185.412 44.7013,185.079 49.5,184.5C 49.666,189.844 49.4994,195.177 49,200.5C 48.5,201 48,201.5 47.5,202C 42.1367,201.492 36.8034,200.659 31.5,199.5C 29.1417,199.747 27.1417,199.081 25.5,197.5C 25.0472,196.542 24.3805,195.708 23.5,195C 15.6819,192.708 7.68194,191.208 -0.5,190.5C -0.5,187.833 -0.5,185.167 -0.5,182.5 Z"/></g>
<g><path style="opacity:1" fill="#9f6d57" d="M -0.5,191.5 C -0.5,191.167 -0.5,190.833 -0.5,190.5C 7.68194,191.208 15.6819,192.708 23.5,195C 24.3805,195.708 25.0472,196.542 25.5,197.5C 16.9003,195.507 8.23359,193.507 -0.5,191.5 Z"/></g>
<g><path style="opacity:1" fill="#1f1f1f" d="M 99.5,193.5 C 117.282,192.933 134.949,194.099 152.5,197C 163.319,198.855 173.986,201.188 184.5,204C 194.127,205.592 203.794,206.925 213.5,208C 207.895,211.421 201.728,213.254 195,213.5C 181.428,211.59 168.261,208.423 155.5,204C 146.929,201.902 138.429,202.069 130,204.5C 108.427,213.096 86.2602,214.763 63.5,209.5C 62.5,207.833 61.1667,206.5 59.5,205.5C 61.8698,203.214 64.5365,201.38 67.5,200C 77.9991,196.709 88.6657,194.542 99.5,193.5 Z"/></g>
<g><path style="opacity:1" fill="#9fd0e3" d="M 219.5,182.5 C 223.718,184.782 227.384,187.782 230.5,191.5C 222.121,188.481 221.621,190.147 229,196.5C 229.829,201.533 229.662,206.533 228.5,211.5C 227.614,210.675 227.281,209.675 227.5,208.5C 226.5,208.5 225.5,208.5 224.5,208.5C 224.334,216.174 224.5,223.841 225,231.5C 227.534,233.569 228.701,236.235 228.5,239.5C 227.833,239.5 227.167,239.5 226.5,239.5C 224.957,234.747 222.624,230.414 219.5,226.5C 221.79,221.212 222.123,215.712 220.5,210C 224.129,206.235 225.629,201.735 225,196.5C 220.956,194.278 216.789,192.278 212.5,190.5C 214.885,187.788 217.218,185.122 219.5,182.5 Z"/></g>
<g><path style="opacity:1" fill="#99daf4" d="M 230.5,191.5 C 233.097,193.594 236.097,194.927 239.5,195.5C 239.5,210.167 239.5,224.833 239.5,239.5C 235.833,239.5 232.167,239.5 228.5,239.5C 228.701,236.235 227.534,233.569 225,231.5C 224.5,223.841 224.334,216.174 224.5,208.5C 225.5,208.5 226.5,208.5 227.5,208.5C 227.281,209.675 227.614,210.675 228.5,211.5C 229.662,206.533 229.829,201.533 229,196.5C 221.621,190.147 222.121,188.481 230.5,191.5 Z"/></g>
<g><path style="opacity:1" fill="#1c0b09" d="M 54.5,150.5 C 53.4324,151.434 52.099,151.768 50.5,151.5C 50.1872,155.042 50.5206,158.375 51.5,161.5C 52.5066,168.163 54.5066,174.497 57.5,180.5C 56.1634,179.685 55.1634,178.518 54.5,177C 53.552,176.517 52.552,176.351 51.5,176.5C 51.8312,172.241 50.9978,168.241 49,164.5C 49.077,168.805 49.2437,173.138 49.5,177.5C 44.2852,178.076 39.2852,179.409 34.5,181.5C 35.5,181.833 36.5,182.167 37.5,182.5C 43.3975,181.95 49.2309,181.283 55,180.5C 61.0708,183.163 61.4041,185.829 56,188.5C 54.7305,198.048 53.5639,207.381 52.5,216.5C 52.5,218.167 52.5,219.833 52.5,221.5C 57.6946,221.179 62.6946,221.513 67.5,222.5C 62.1563,222.334 56.8229,222.501 51.5,223C 52.5634,224.188 53.8967,224.688 55.5,224.5C 55.569,229.616 54.9024,234.616 53.5,239.5C 53.1667,239.5 52.8333,239.5 52.5,239.5C 52.5376,234.729 53.2043,230.062 54.5,225.5C 52.4862,225.608 50.8195,224.942 49.5,223.5C 49.3946,219.452 49.7279,215.452 50.5,211.5C 42.7679,209.804 35.1013,207.804 27.5,205.5C 20.2236,203.009 12.8903,200.509 5.5,198C 3.5273,197.505 1.5273,197.338 -0.5,197.5C -0.5,195.5 -0.5,193.5 -0.5,191.5C 8.23359,193.507 16.9003,195.507 25.5,197.5C 27.1417,199.081 29.1417,199.747 31.5,199.5C 36.0274,201.517 40.6941,203.35 45.5,205C 47.4727,205.495 49.4727,205.662 51.5,205.5C 51.3341,200.489 51.5007,195.489 52,190.5C 54.0167,187.873 53.8501,185.373 51.5,183C 41.1849,183.433 30.8516,183.433 20.5,183C 14.6779,181.962 9.01125,180.462 3.5,178.5C 5.08974,176.179 7.42307,175.179 10.5,175.5C 10.3285,173.508 10.9951,171.842 12.5,170.5C 15.9679,168.676 19.6346,167.676 23.5,167.5C 23.5,166.5 23.5,165.5 23.5,164.5C 28.5193,164.498 33.5193,164.165 38.5,163.5C 41.3775,163.386 44.0442,164.052 46.5,165.5C 47.1924,164.975 47.6924,164.308 48,163.5C 48.7244,158.479 49.5577,153.479 50.5,148.5C 51.6223,149.63 52.9557,150.297 54.5,150.5 Z"/></g>
<g><path style="opacity:1" fill="#a56e5b" d="M 44.5,167.5 C 43.0328,167.106 41.5328,166.773 40,166.5C 34.8928,167.701 29.7261,168.534 24.5,169C 22.0392,170.415 19.7059,171.915 17.5,173.5C 18.0253,174.192 18.6919,174.692 19.5,175C 28.1603,175.5 36.8269,175.666 45.5,175.5C 45.5,174.167 45.5,172.833 45.5,171.5C 46.9313,172.78 47.5979,174.447 47.5,176.5C 35.7266,178.228 24.0599,177.728 12.5,175C 11.2888,174.107 11.2888,173.274 12.5,172.5C 16.3528,171.004 20.0195,169.338 23.5,167.5C 28.2671,166.434 33.1005,165.768 38,165.5C 40.6103,165.533 42.777,166.2 44.5,167.5 Z"/></g>
<g><path style="opacity:1" fill="#c26e48" d="M 44.5,167.5 C 45.4345,168.568 45.7678,169.901 45.5,171.5C 45.5,172.833 45.5,174.167 45.5,175.5C 36.8269,175.666 28.1603,175.5 19.5,175C 18.6919,174.692 18.0253,174.192 17.5,173.5C 19.7059,171.915 22.0392,170.415 24.5,169C 29.7261,168.534 34.8928,167.701 40,166.5C 41.5328,166.773 43.0328,167.106 44.5,167.5 Z"/></g>
<g><path style="opacity:1" fill="#9e6551" d="M 27.5,205.5 C 35.1013,207.804 42.7679,209.804 50.5,211.5C 49.7279,215.452 49.3946,219.452 49.5,223.5C 49.3863,219.339 47.7196,215.839 44.5,213C 38.4225,210.951 32.7559,208.451 27.5,205.5 Z"/></g>
<g><path style="opacity:1" fill="#c3724b" d="M -0.5,197.5 C 1.5273,197.338 3.5273,197.505 5.5,198C 12.8903,200.509 20.2236,203.009 27.5,205.5C 32.7559,208.451 38.4225,210.951 44.5,213C 47.7196,215.839 49.3863,219.339 49.5,223.5C 50.8195,224.942 52.4862,225.608 54.5,225.5C 53.2043,230.062 52.5376,234.729 52.5,239.5C 49.8333,239.5 47.1667,239.5 44.5,239.5C 43.319,236.306 41.319,233.639 38.5,231.5C 30.3825,227.958 22.3825,224.125 14.5,220C 9.51108,219.501 4.51108,219.334 -0.5,219.5C -0.5,212.167 -0.5,204.833 -0.5,197.5 Z"/></g>
<g><path style="opacity:1" fill="#d1d1d1" d="M 72.5,214.5 C 83.1186,215.128 91.1186,219.794 96.5,228.5C 96.4095,231.152 97.0762,233.485 98.5,235.5C 98.5,236.833 98.5,238.167 98.5,239.5C 96.5,239.5 94.5,239.5 92.5,239.5C 92.6621,237.473 92.4955,235.473 92,233.5C 89.8356,231.52 88.3356,229.187 87.5,226.5C 84.1027,225.304 80.7694,223.804 77.5,222C 70.4504,220.32 63.4504,218.32 56.5,216C 61.7364,214.661 67.0698,214.161 72.5,214.5 Z"/></g>
<g><path style="opacity:1" fill="#cfd0cf" d="M 209.5,214.5 C 211.527,214.338 213.527,214.505 215.5,215C 216.38,216.356 216.714,217.856 216.5,219.5C 213.15,219.335 209.817,219.502 206.5,220C 204.119,221.766 201.452,222.932 198.5,223.5C 196.183,226.317 193.683,228.984 191,231.5C 190.725,234.412 189.891,237.079 188.5,239.5C 186.5,239.5 184.5,239.5 182.5,239.5C 185.949,225.391 194.949,217.058 209.5,214.5 Z"/></g>
<g><path style="opacity:1" fill="#b1b1b1" d="M 72.5,214.5 C 67.0698,214.161 61.7364,214.661 56.5,216C 63.4504,218.32 70.4504,220.32 77.5,222C 80.7694,223.804 84.1027,225.304 87.5,226.5C 88.3356,229.187 89.8356,231.52 92,233.5C 92.4955,235.473 92.6621,237.473 92.5,239.5C 91.5,239.5 90.5,239.5 89.5,239.5C 88.9913,236.808 87.9913,234.308 86.5,232C 80.9663,227.233 74.6329,224.066 67.5,222.5C 62.6946,221.513 57.6946,221.179 52.5,221.5C 52.5,219.833 52.5,218.167 52.5,216.5C 53.6266,215.878 54.6266,215.045 55.5,214C 61.3487,213.182 67.0154,213.348 72.5,214.5 Z"/></g>
<g><path style="opacity:1" fill="#a96c54" d="M -0.5,220.5 C -0.5,220.167 -0.5,219.833 -0.5,219.5C 4.51108,219.334 9.51108,219.501 14.5,220C 22.3825,224.125 30.3825,227.958 38.5,231.5C 41.319,233.639 43.319,236.306 44.5,239.5C 43.8333,239.5 43.1667,239.5 42.5,239.5C 30.2827,228.562 15.9494,222.228 -0.5,220.5 Z"/></g>
<g><path style="opacity:1" fill="#1e0806" d="M -0.5,220.5 C 15.9494,222.228 30.2827,228.562 42.5,239.5C 39.1667,239.5 35.8333,239.5 32.5,239.5C 22.9556,231.866 11.9556,227.533 -0.5,226.5C -0.5,224.5 -0.5,222.5 -0.5,220.5 Z"/></g>
<g><path style="opacity:1" fill="#232323" d="M 173.5,226.5 C 165.648,228.713 157.648,230.879 149.5,233C 133.527,233.451 117.861,231.284 102.5,226.5C 101.584,226.543 100.917,226.876 100.5,227.5C 99.9859,226.375 99.6526,225.209 99.5,224C 101.167,223.833 102.833,223.667 104.5,223.5C 127.398,226.226 150.398,227.226 173.5,226.5 Z"/></g>
<g><path style="opacity:1" fill="#b4b4b4" d="M 209.5,214.5 C 211.948,213.527 214.615,213.194 217.5,213.5C 217.5,216.167 217.5,218.833 217.5,221.5C 210.985,222.586 204.985,225.086 199.5,229C 195.276,231.292 192.943,234.792 192.5,239.5C 191.167,239.5 189.833,239.5 188.5,239.5C 189.891,237.079 190.725,234.412 191,231.5C 193.683,228.984 196.183,226.317 198.5,223.5C 201.452,222.932 204.119,221.766 206.5,220C 209.817,219.502 213.15,219.335 216.5,219.5C 216.714,217.856 216.38,216.356 215.5,215C 213.527,214.505 211.527,214.338 209.5,214.5 Z"/></g>
<g><path style="opacity:1" fill="#b0715b" d="M -0.5,226.5 C 11.9556,227.533 22.9556,231.866 32.5,239.5C 30.8333,239.5 29.1667,239.5 27.5,239.5C 27.5858,238.504 27.2524,237.671 26.5,237C 23.854,236.503 21.1873,236.336 18.5,236.5C 18.7733,234.549 18.1066,233.049 16.5,232C 10.8942,230.681 5.22749,229.847 -0.5,229.5C -0.5,228.5 -0.5,227.5 -0.5,226.5 Z"/></g>
<g><path style="opacity:1" fill="#0b0b0b" d="M 67.5,222.5 C 74.6329,224.066 80.9663,227.233 86.5,232C 87.9913,234.308 88.9913,236.808 89.5,239.5C 86.5,239.5 83.5,239.5 80.5,239.5C 76.1011,231.145 69.1011,227.478 59.5,228.5C 59.4476,232.198 59.1143,235.865 58.5,239.5C 56.8333,239.5 55.1667,239.5 53.5,239.5C 54.9024,234.616 55.569,229.616 55.5,224.5C 53.8967,224.688 52.5634,224.188 51.5,223C 56.8229,222.501 62.1563,222.334 67.5,222.5 Z"/></g>
<g><path style="opacity:1" fill="#c47349" d="M -0.5,229.5 C 5.22749,229.847 10.8942,230.681 16.5,232C 18.1066,233.049 18.7733,234.549 18.5,236.5C 21.1873,236.336 23.854,236.503 26.5,237C 27.2524,237.671 27.5858,238.504 27.5,239.5C 18.1667,239.5 8.83333,239.5 -0.5,239.5C -0.5,236.167 -0.5,232.833 -0.5,229.5 Z"/></g>
<g><path style="opacity:1" fill="#1f1f1f" d="M 80.5,239.5 C 73.1667,239.5 65.8333,239.5 58.5,239.5C 59.1143,235.865 59.4476,232.198 59.5,228.5C 69.1011,227.478 76.1011,231.145 80.5,239.5 Z"/></g>
<g><path style="opacity:1" fill="#b1b1b1" d="M 180.5,229.5 C 168.881,232.181 157.214,234.681 145.5,237C 143.881,237.236 142.881,238.069 142.5,239.5C 141.5,239.5 140.5,239.5 139.5,239.5C 138.848,238.275 137.681,237.608 136,237.5C 124.434,235.299 112.934,232.966 101.5,230.5C 100.596,229.791 100.263,228.791 100.5,227.5C 100.917,226.876 101.584,226.543 102.5,226.5C 117.861,231.284 133.527,233.451 149.5,233C 157.648,230.879 165.648,228.713 173.5,226.5C 176.897,225.808 180.23,225.808 183.5,226.5C 182.812,227.855 181.812,228.855 180.5,229.5 Z"/></g>
<g><path style="opacity:1" fill="#1f1f1f" d="M 219.5,239.5 C 212.833,239.5 206.167,239.5 199.5,239.5C 200.203,237.284 201.536,235.451 203.5,234C 206.72,232.223 210.053,230.723 213.5,229.5C 214.167,229.833 214.833,230.167 215.5,230.5C 216.908,233.54 218.241,236.54 219.5,239.5 Z"/></g>
<g><path style="opacity:1" fill="#222222" d="M 101.5,230.5 C 112.934,232.966 124.434,235.299 136,237.5C 137.681,237.608 138.848,238.275 139.5,239.5C 127.167,239.5 114.833,239.5 102.5,239.5C 102.492,236.455 102.159,233.455 101.5,230.5 Z"/></g>
<g><path style="opacity:1" fill="#646464" d="M 96.5,228.5 C 97.9238,230.515 98.5905,232.848 98.5,235.5C 97.0762,233.485 96.4095,231.152 96.5,228.5 Z"/></g>
<g><path style="opacity:1" fill="#202020" d="M 180.5,229.5 C 180.115,233.044 179.115,236.377 177.5,239.5C 165.833,239.5 154.167,239.5 142.5,239.5C 142.881,238.069 143.881,237.236 145.5,237C 157.214,234.681 168.881,232.181 180.5,229.5 Z"/></g>
</svg>
